<?xml version="1.0" encoding="utf-8"?>
<!DOCTYPE svg PUBLIC "-//W3C//DTD SVG 1.1//EN" "http://www.w3.org/Graphics/SVG/1.1/DTD/svg11.dtd">
<svg version="1.1" id="Ebene_1" xmlns="http://www.w3.org/2000/svg" xmlns:xlink="http://www.w3.org/1999/xlink" x="0px" y="0px"
	 width="24px" height="30px" viewBox="0 0 24 30" enable-background="new 0 0 24 30" xml:space="preserve">
<g id="g18" transform="matrix(0.06694934,0,0,0.06694934,-2.139031,-2.1356839)">
	<g id="g6">
		<path id="path2" d="M115.189,160H307.2c-1.707-19.991-9.715-35.198-27.919-40.099
			c-0.394-0.102-0.904-0.292-1.284-0.401c-12.005-3.399-20.801-7.498-20.801-20.698V78.198c0-25.497-20.509-46.298-46.006-46.298
			s-45.999,20.698-45.999,46.298v20.604c0,13.099-8.803,17.198-20.801,20.596c-0.401,0.102-0.897,0.401-1.4,0.503
			C124.794,124.803,117.093,140.009,115.189,160z M211.191,64.399c7.6,0,13.799,6.199,13.799,13.799
			c0,7.702-6.199,13.799-13.799,13.799s-13.799-6.199-13.799-13.799C197.392,70.599,203.591,64.399,211.191,64.399L211.191,64.399z"
			/>
		<path id="path4" d="M359.8,63.006h-73.604v14.492c0,10.605,8.694,18.503,18.992,18.503h37.196
			c6.71,0,12.092,5.696,12.399,12.508l0.117,327.179c-0.306,6.418-5.31,11.611-11.509,12.107l-264.398,0.117
			c-6.199-0.496-11.1-5.718-11.502-12.107l-0.102-327.296c0.299-6.812,5.893-12.508,12.501-12.508h37.298
			c10.305,0,19.006-7.899,19.006-18.503V63.006H62.589c-15.097,0-27.401,13.092-27.401,28.597v360.393
			c0,15.506,12.304,28.006,27.401,28.006h148.602H359.8c15.083,0,27.394-12.501,27.394-28.006V91.603
			C387.194,76.098,374.883,63.006,359.8,63.006z"/>
	</g>
	<rect id="rect8" x="99.187" y="192.003" width="112.004" height="16.002"/>
	<rect id="rect10" x="99.187" y="287.998" width="159.994" height="16.002"/>
	<rect id="rect12" x="99.187" y="383.993" width="129.012" height="16.016"/>
	<rect id="rect14" x="99.187" y="336.003" width="176.01" height="16.002"/>
	<rect id="rect16" x="99.187" y="240.001" width="208.013" height="16.009"/>
</g>
</svg>
