<svg width="30" height="30" viewBox="0 0 30 30" fill="none" xmlns="http://www.w3.org/2000/svg">
<path d="M6 8.4866L24 8.4866" stroke="white" stroke-width="2" stroke-linecap="round"/>
<path d="M19 8.4866V6.4866C19 5.38203 18.1046 4.4866 17 4.4866H15H13C11.8954 4.4866 11 5.38203 11 6.4866V8.4866" stroke="white" stroke-width="2"/>
<path fill-rule="evenodd" clip-rule="evenodd" d="M9 26.4866L6 8.4866H24L21 26.4866H9ZM11.6037 14.0901C11.799 13.8948 12.1156 13.8948 12.3108 14.0901L15.0002 16.7795L17.6897 14.0901C17.8849 13.8948 18.2015 13.8948 18.3968 14.0901C18.592 14.2853 18.592 14.6019 18.3968 14.7972L15.7073 17.4866L18.397 20.1763C18.5923 20.3715 18.5923 20.6881 18.397 20.8834C18.2017 21.0786 17.8852 21.0786 17.6899 20.8834L15.0002 18.1937L12.3106 20.8834C12.1153 21.0786 11.7987 21.0786 11.6035 20.8834C11.4082 20.6881 11.4082 20.3715 11.6035 20.1763L14.2931 17.4866L11.6037 14.7972C11.4085 14.6019 11.4085 14.2853 11.6037 14.0901Z" fill="white"/>
</svg>
