<?xml version="1.0" encoding="iso-8859-1"?>
<!-- Uploaded to: SVG Repo, www.svgrepo.com, Generator: SVG Repo Mixer Tools -->
<svg fill="#000000" height="800px" width="800px" version="1.1" id="Layer_1" xmlns="http://www.w3.org/2000/svg" xmlns:xlink="http://www.w3.org/1999/xlink" 
	 viewBox="0 0 512 512" xml:space="preserve">
<g>
	<g>
		<path d="M353.178,91.779h-77.512v-6.556c0-25.304,20.586-45.89,45.89-45.89V0c-46.992,0-85.224,38.231-85.224,85.224v6.556
			h-77.512c-58.475,0-106.047,47.573-106.047,106.047c0,26.666,9.915,51.045,26.223,69.698v49.225
			c0,61.516,30.155,114.727,87.206,153.882c41.691,28.614,83.09,39.617,84.833,40.072L256,512l4.964-1.295
			c1.742-0.455,43.141-11.458,84.833-40.072c57.051-39.156,87.206-92.367,87.206-153.882v-49.225
			c16.308-18.654,26.223-43.033,26.223-69.698C459.226,139.352,411.654,91.779,353.178,91.779z M393.669,316.75
			c0,48.327-23.296,88.983-69.24,120.838c-28.272,19.603-57.106,29.958-68.429,33.566c-11.324-3.608-40.159-13.964-68.429-33.566
			c-45.943-31.855-69.24-72.511-69.24-120.838v-37.991h275.338V316.75z M405.278,239.426H106.721
			c-9.132-11.417-14.613-25.877-14.613-41.6c0-36.785,29.927-66.713,66.713-66.713h194.357c36.786,0,66.713,29.928,66.713,66.713
			C419.891,213.549,414.411,228.009,405.278,239.426z"/>
	</g>
</g>
</svg>