<svg version="1.1" xmlns="http://www.w3.org/2000/svg" xmlns:xlink="http://www.w3.org/1999/xlink" x="0px" y="0px"
	 width="24px" height="24px" viewBox="0 0 24 24" enable-background="new 0 0 24 24" xml:space="preserve">
<path d="M22.529,9.243c-0.191,0.192-0.268,0.471-0.215,0.738c0.127,0.658,0.195,1.338,0.195,2.034
	c0,5.797-4.699,10.495-10.495,10.495c-3.068,0-5.828-1.316-7.748-3.414c-0.301-0.332-0.823-0.365-1.139-0.049
	c-0.268,0.268-0.294,0.697-0.04,0.979c2.195,2.445,5.381,3.982,8.926,3.982c6.625,0,11.994-5.369,11.994-11.994
	c0-0.836-0.084-1.652-0.249-2.44C23.645,9.002,22.943,8.83,22.529,9.243z"/>
<path d="M20.693,4.761c0.272-0.274,0.293-0.714,0.027-0.995c-2.185-2.306-5.277-3.745-8.706-3.745
	c-6.625,0-11.994,5.37-11.994,11.994c0,0.901,0.1,1.78,0.288,2.625c0.126,0.564,0.82,0.729,1.228,0.32
	c0.196-0.195,0.271-0.479,0.214-0.75c-0.151-0.708-0.23-1.443-0.23-2.196C1.521,6.219,6.22,1.52,12.016,1.52
	c2.966,0,5.644,1.23,7.552,3.209C19.873,5.046,20.385,5.072,20.693,4.761z"/>
<path d="M21.197,1.521c0.414,0,0.752,0.336,0.752,0.75V5.27c0,0.414-0.338,0.75-0.752,0.75h-2.996c-0.415,0-0.751-0.335-0.751-0.75
	s0.336-0.75,0.751-0.75h2.249V2.271C20.45,1.856,20.785,1.521,21.197,1.521z"/>
<path d="M2.303,18.232c0.14-0.142,0.331-0.221,0.53-0.221h2.999c0.413,0,0.75,0.336,0.75,0.75s-0.336,0.749-0.75,0.749H3.583v2.249
	c0,0.415-0.336,0.75-0.75,0.75c-0.415,0-0.75-0.335-0.75-0.75v-2.998C2.083,18.563,2.162,18.373,2.303,18.232z"/>
<g>
	<path d="M12.016,19.512c4.141,0,7.496-3.354,7.496-7.496c0-4.14-3.354-7.496-7.496-7.496c-4.14,0-7.496,3.356-7.496,7.496
		S7.876,19.512,12.016,19.512z M12.352,17.264H11.68V16.35c-1.611-0.106-2.595-1.01-2.689-2.301h1.05
		c0.073,0.846,0.778,1.287,1.64,1.379v-3.104l-0.328-0.094c-1.313-0.378-2.133-1.05-2.133-2.183c0-1.287,1.054-2.18,2.46-2.324
		V6.768h0.672v0.943c1.485,0.098,2.535,1.009,2.574,2.206h-0.982c-0.092-0.746-0.723-1.213-1.591-1.299v2.915l0.328,0.089
		c0.869,0.23,2.36,0.739,2.36,2.313c0,1.278-0.968,2.295-2.688,2.414V17.264z"/>
	<path d="M12.352,12.516v2.912c0.992-0.111,1.705-0.686,1.705-1.51c0-0.836-0.785-1.148-1.67-1.395L12.352,12.516z"/>
	<path d="M10.204,9.999c0,0.832,0.853,1.177,1.476,1.353V8.629C10.778,8.748,10.204,9.29,10.204,9.999z"/>
</g>
</svg>
