<svg width="30" height="30" viewBox="0 0 30 30" fill="none" xmlns="http://www.w3.org/2000/svg">
<path fill-rule="evenodd" clip-rule="evenodd" d="M17.3307 10.1693C16.5873 10.0589 15.806 10 15 10C10.0294 10 6 12.2386 6 15C6 16.4401 7.09589 17.738 8.84963 18.6504L11.2119 16.2881C11.0745 15.8839 11 15.4506 11 15C11 12.7909 12.7909 11 15 11C15.4507 11 15.8839 11.0745 16.2881 11.2119L17.3307 10.1693ZM14.2308 18.9261C14.4797 18.9746 14.7369 19 15 19C17.2091 19 19 17.2091 19 15C19 14.7369 18.9746 14.4797 18.9261 14.2308L21.5726 11.5843C23.0782 12.4781 24 13.6792 24 15C24 17.7614 19.9706 20 15 20C14.4016 20 13.8169 19.9676 13.2512 19.9057L14.2308 18.9261Z" fill="white"/>
<rect x="21.5" y="7.5" width="2" height="20" rx="1" transform="rotate(45 21.5 7.5)" fill="white"/>
</svg>
