<?xml version="1.0" encoding="utf-8"?>
<!DOCTYPE svg PUBLIC "-//W3C//DTD SVG 1.1//EN" "http://www.w3.org/Graphics/SVG/1.1/DTD/svg11.dtd">
<svg version="1.1" id="Ebene_1" xmlns="http://www.w3.org/2000/svg" xmlns:xlink="http://www.w3.org/1999/xlink" x="0px" y="0px"
   width="20px" height="20px" viewBox="0 0 20 20" enable-background="new 0 0 20 20" xml:space="preserve">
    <path d="M0.147,0.299L0.22,0.215c0.267-0.266,0.683-0.291,0.977-0.072L1.28,0.215l18.5,18.508
  c0.267,0.267,0.29,0.684,0.073,0.977l-0.073,0.084c-0.267,0.267-0.683,0.291-0.977,0.072l-0.084-0.072l-6.603-6.605l-6.321,6.59
  c-0.509,0.53-1.376,0.087-1.287-0.605l0.018-0.096l1.767-7.068H3.75c-0.465,0-0.81-0.416-0.742-0.86l0.021-0.096l1.544-5.411
  L0.22,1.276C-0.047,1.01-0.071,0.593,0.147,0.299L0.22,0.215L0.147,0.299z M6.75,0h7c0.479,0,0.824,0.437,0.736,0.89l-0.025,0.097
  L12.791,6h4.459c0.624,0,0.96,0.707,0.609,1.187l-0.068,0.083l-3.596,3.746L5.518,2.333l0.511-1.789
  C6.111,0.257,6.352,0.05,6.64,0.007L6.75,0z"/>
</svg>