<?xml version="1.0" encoding="utf-8"?>
<!DOCTYPE svg PUBLIC "-//W3C//DTD SVG 1.1//EN" "http://www.w3.org/Graphics/SVG/1.1/DTD/svg11.dtd">
<svg version="1.1" id="Ebene_1" xmlns="http://www.w3.org/2000/svg" xmlns:xlink="http://www.w3.org/1999/xlink" x="0px" y="0px"
   width="16px" height="16px" viewBox="0 0 16 16" enable-background="new 0 0 16 16" xml:space="preserve">
    <path d="M14.856,0H1.144C0.512,0,0,0.513,0,1.144v13.713C0,15.487,0.512,16,1.144,16h13.713
  C15.487,16,16,15.487,16,14.856V1.144C16,0.513,15.487,0,14.856,0z M5.143,3.428c0.946,0,1.714,0.769,1.714,1.714
  c0,0.948-0.768,1.714-1.714,1.714c-0.947,0-1.714-0.766-1.714-1.714C3.428,4.197,4.196,3.428,5.143,3.428z M12.712,13.143H7.287
  c-0.056,0-0.109-0.009-0.16-0.021c-0.049,0.013-0.103,0.021-0.159,0.021H3.317c-0.449,0-0.722-0.493-0.485-0.874l1.826-2.922
  c0.224-0.358,0.746-0.358,0.969,0l1.491,2.387l2.39-4.043c0.221-0.374,0.763-0.374,0.984,0l2.712,4.59
  C13.429,12.661,13.154,13.143,12.712,13.143z"/>
</svg>