<?xml version="1.0" encoding="utf-8"?>
<!DOCTYPE svg PUBLIC "-//W3C//DTD SVG 1.1//EN" "http://www.w3.org/Graphics/SVG/1.1/DTD/svg11.dtd">
<svg version="1.1" id="Ebene_1" xmlns="http://www.w3.org/2000/svg" xmlns:xlink="http://www.w3.org/1999/xlink" x="0px" y="0px"
	 width="30px" height="30px" viewBox="0 0 30 30" enable-background="new 0 0 30 30" xml:space="preserve">
<path d="M25.6,11.906l3.855,0.631C29.77,12.588,30,12.861,30,13.179v3.586
	c0,0.317-0.229,0.587-0.54,0.642l-3.858,0.679c-0.225,0.772-0.531,1.518-0.919,2.222l2.282,3.169
	c0.188,0.259,0.157,0.615-0.067,0.844l-2.538,2.535c-0.223,0.225-0.574,0.256-0.834,0.075l-3.2-2.246
	c-0.705,0.394-1.455,0.707-2.237,0.937l-0.681,3.841c-0.055,0.312-0.326,0.539-0.644,0.537h-3.586
	c-0.318,0.001-0.591-0.229-0.643-0.543l-0.637-3.823c-0.781-0.225-1.534-0.537-2.245-0.928l-3.176,2.224
	c-0.259,0.182-0.612,0.152-0.836-0.071l-2.538-2.539c-0.224-0.227-0.252-0.581-0.067-0.84L5.28,20.34
	c-0.396-0.716-0.709-1.473-0.937-2.257l-3.805-0.676C0.227,17.352,0,17.082,0,16.766v-3.586c0-0.318,0.23-0.591,0.543-0.643
	l3.807-0.634c0.227-0.788,0.542-1.542,0.937-2.256L3.068,6.475C2.886,6.215,2.917,5.864,3.141,5.64l2.535-2.535
	C5.9,2.879,6.257,2.85,6.516,3.036l3.15,2.25c0.711-0.389,1.463-0.697,2.242-0.921l0.625-3.817C12.584,0.232,12.857,0,13.177,0
	h3.586c0.318,0,0.59,0.229,0.644,0.54l0.673,3.838c0.779,0.227,1.528,0.538,2.237,0.932l3.159-2.271
	c0.26-0.188,0.617-0.159,0.844,0.067l2.535,2.535c0.226,0.225,0.256,0.577,0.073,0.836L24.68,9.684
	c0.386,0.706,0.693,1.448,0.918,2.222H25.6z M10.434,15c0,2.521,2.042,4.566,4.564,4.567c2.521,0.001,4.566-2.042,4.568-4.564
	c0-0.001,0-0.002,0-0.003c0-2.521-2.045-4.565-4.566-4.565S10.434,12.479,10.434,15L10.434,15z"/>
</svg>
