<svg width="288" height="105" viewBox="0 0 288 105" fill="none" xmlns="http://www.w3.org/2000/svg">
<path d="M69.1172 16.3437H70.9562V10.797H74.2784C77.8155 10.797 79.4099 8.64648 79.4099 5.96208C79.4099 3.27768 77.8155 1.15685 74.2487 1.15685H69.1172V16.3437ZM70.9562 9.16556V2.78826H74.1894C76.6587 2.78826 77.6005 4.13787 77.6005 5.96208C77.6005 7.78628 76.6587 9.16556 74.219 9.16556H70.9562Z" fill="#7B7B7B"/>
<path d="M96.9612 8.75029C96.9612 3.94507 94.1434 0.949219 90.2577 0.949219C86.3719 0.949219 83.5541 3.94507 83.5541 8.75029C83.5541 13.5555 86.3719 16.5514 90.2577 16.5514C94.1434 16.5514 96.9612 13.5555 96.9612 8.75029ZM95.1815 8.75029C95.1815 12.6953 93.0162 14.831 90.2577 14.831C87.4991 14.831 85.3338 12.6953 85.3338 8.75029C85.3338 4.80526 87.4991 2.66961 90.2577 2.66961C93.0162 2.66961 95.1815 4.80526 95.1815 8.75029Z" fill="#7B7B7B"/>
<path d="M104.587 16.3437H106.485L109.837 4.24169H109.956L113.308 16.3437H115.206L119.359 1.15685H117.49L114.316 13.5259H114.168L110.935 1.15685H108.858L105.625 13.5259H105.477L102.303 1.15685H100.434L104.587 16.3437Z" fill="#7B7B7B"/>
<path d="M123.425 16.3437H132.709V14.7123H125.264V9.55116H132.116V7.91976H125.264V2.78826H132.59V1.15685H123.425V16.3437Z" fill="#7B7B7B"/>
<path d="M137.68 16.3437H139.519V10.4114H142.841C142.975 10.4114 143.101 10.4114 143.227 10.4039L146.43 16.3437H148.566L145.133 10.0702C147.068 9.41027 147.973 7.83078 147.973 5.81377C147.973 3.12937 146.371 1.15685 142.812 1.15685H137.68V16.3437ZM139.519 8.75029V2.78826H142.752C145.214 2.78826 146.163 3.98956 146.163 5.81377C146.163 7.63797 145.214 8.75029 142.782 8.75029H139.519Z" fill="#7B7B7B"/>
<path d="M152.812 16.3437H162.096V14.7123H154.651V9.55116H161.503V7.91976H154.651V2.78826H161.978V1.15685H152.812V16.3437Z" fill="#7B7B7B"/>
<path d="M171.754 16.3437C176.381 16.3437 178.992 13.4665 178.992 8.72063C178.992 4.00439 176.381 1.15685 171.962 1.15685H167.067V16.3437H171.754ZM168.906 14.7123V2.78826H171.843C175.402 2.78826 177.212 5.04256 177.212 8.72063C177.212 12.4284 175.402 14.7123 171.635 14.7123H168.906Z" fill="#7B7B7B"/>
<path d="M191.499 16.3437H196.987C200.576 16.3437 202.059 14.5937 202.059 12.3097C202.059 9.90711 200.398 8.60198 199.004 8.513V8.36469C200.309 8.00875 201.466 7.14855 201.466 5.19087C201.466 2.96623 199.983 1.15685 196.809 1.15685H191.499V16.3437ZM193.338 14.7123V9.43252H197.076C199.063 9.43252 200.309 10.7673 200.309 12.3097C200.309 13.6445 199.389 14.7123 196.987 14.7123H193.338ZM193.338 7.83077V2.78826H196.809C198.826 2.78826 199.716 3.85608 199.716 5.19087C199.716 6.79261 198.411 7.83077 196.75 7.83077H193.338Z" fill="#7B7B7B"/>
<path d="M205.551 1.15685L211.038 10.0851V16.3437H212.877V10.0851L218.365 1.15685H216.259L212.047 8.24604H211.869L207.657 1.15685H205.551Z" fill="#7B7B7B"/>
<path d="M94.1881 96.8664C92.7143 96.8664 91.5117 95.652 91.5117 94.1546C91.5117 92.6808 92.6907 91.5254 94.1881 91.5254C95.6855 91.5254 96.8645 92.6808 96.8645 94.1546C96.8645 95.6402 95.6619 96.8664 94.1881 96.8664Z" fill="#9857FF"/>
<path d="M109.171 96.8683C105.786 96.8683 102.307 95.795 100.491 94.2028L100.125 93.8844L101.906 90.7472L102.448 91.1718C103.816 92.2451 106.482 93.3301 109.336 93.3301C112.627 93.3301 114.219 92.4456 114.219 90.6175C114.219 88.8838 112.284 88.4474 109.112 87.8931C105.468 87.2562 100.927 86.4543 100.927 81.5716C100.927 77.7268 104.347 75.2383 109.643 75.2383C112.509 75.2383 115.492 76.0167 117.226 77.2314L117.662 77.5381L115.893 80.7696L115.363 80.4158C113.782 79.3661 111.754 78.7882 109.654 78.7882C106.647 78.7882 104.925 79.7789 104.925 81.5008C104.925 83.3525 106.918 83.836 110.209 84.4257C113.771 85.0626 118.205 85.8528 118.205 90.5349C118.205 92.4573 117.344 94.0613 115.717 95.1817C114.136 96.2904 111.872 96.8683 109.171 96.8683Z" fill="#9857FF"/>
<path d="M122.102 104.097V75.4736H125.935V78.2688C127.727 76.3464 130.263 75.3203 133.235 75.3203C136.254 75.3203 139.002 76.37 140.96 78.2924C142.953 80.2384 144.05 82.9981 144.05 86.0527C144.05 89.1192 142.953 91.8907 140.972 93.8485C139.002 95.7945 136.266 96.8559 133.247 96.8559C130.31 96.8559 127.845 95.877 126.029 93.99V104.086H122.102V104.097ZM133.07 78.8585C131.1 78.8585 129.308 79.5661 128.034 80.8398C126.713 82.1608 126.017 83.9652 126.017 86.0527C126.017 90.2867 128.918 93.247 133.082 93.247C137.233 93.247 140.146 90.2867 140.146 86.0527C140.146 83.9652 139.45 82.1608 138.129 80.8398C136.832 79.5661 135.039 78.8585 133.07 78.8585Z" fill="#9857FF"/>
<path d="M154.739 96.8677C149.833 96.8677 146.66 94.3556 146.66 90.4637C146.66 88.6238 147.332 87.0906 148.618 86.0292C150.069 84.8262 152.262 84.2129 155.14 84.2129H161.072V83.6232C161.072 80.5214 159.315 78.941 155.859 78.941C153.477 78.941 151.059 79.7666 149.396 81.1583L148.842 81.63L147.144 78.4339L147.509 78.1273C149.703 76.311 152.805 75.3203 156.26 75.3203C161.933 75.3203 165.059 78.2924 165.059 83.694V96.7026H161.226V94.6505C159.728 96.0893 157.487 96.8677 154.739 96.8677ZM155.305 87.3501C151.142 87.3501 150.658 89.0366 150.658 90.2985C150.658 92.3271 152.321 93.4829 155.223 93.4829H155.234C155.305 93.4829 155.376 93.4829 155.458 93.4829C158.136 93.4829 160.105 92.2563 161.155 89.9329V87.3501H155.305V87.3501Z" fill="#9857FF"/>
<path d="M180.249 96.7144C173.986 96.7144 169.445 92.2327 169.445 86.0527C169.445 83.0099 170.566 80.2619 172.606 78.316C174.623 76.3818 177.453 75.3203 180.579 75.3203C184.329 75.3203 187.36 76.8063 189.129 79.5189L189.46 80.0143L186.381 81.9839L186.063 81.5003C184.907 79.7666 182.914 78.7759 180.591 78.7759C178.527 78.7759 176.746 79.46 175.448 80.7573C174.139 82.0664 173.443 83.8709 173.443 85.9702C173.443 88.0931 174.139 89.9093 175.472 91.2067C176.758 92.4686 178.574 93.1644 180.579 93.1644C182.914 93.1644 184.86 92.2209 186.051 90.5108L186.37 90.0509L189.436 92.0086L189.129 92.504C187.466 95.1812 184.353 96.7144 180.591 96.7144C180.473 96.7144 180.366 96.7144 180.249 96.7144Z" fill="#9857FF"/>
<path d="M202.311 96.9361C199.091 96.9361 196.178 95.8628 194.126 93.9051C192.062 91.9473 190.93 89.1875 190.93 86.1211C190.93 79.9057 195.376 75.3887 201.497 75.3887C207.524 75.3887 211.899 79.8114 211.994 85.9442C211.994 86.298 211.994 87.501 211.994 87.501H194.999C195.565 91.0038 198.454 93.3154 202.382 93.3154C204.776 93.3154 206.851 92.4662 208.22 90.9212L208.656 90.4259L210.967 93.0441L210.625 93.4333C208.679 95.6977 205.719 96.9361 202.311 96.9361ZM208.172 84.2813C207.618 81.0144 205 78.7735 201.591 78.7735C198.207 78.7735 195.635 80.9554 195.022 84.2813H208.172Z" fill="#9857FF"/>
<path d="M126.268 64.1267V51.295C126.268 49.3018 125.808 47.7686 124.9 46.7544C124.004 45.7401 122.647 45.233 120.902 45.233C118.932 45.233 117.317 45.8698 116.208 47.061C115.099 48.264 114.51 50.0331 114.51 52.1913V64.1385H110.146V51.295C110.146 47.2733 108.33 45.233 104.744 45.233C102.775 45.233 101.159 45.8698 100.05 47.061C98.9417 48.264 98.352 50.0331 98.352 52.1913V64.1385H93.9883V41.3056H98.2341V43.7941C99.956 42.0958 102.433 41.1641 105.299 41.1641C108.719 41.1641 111.42 42.4968 112.965 44.9381C114.828 42.5322 117.836 41.1641 121.338 41.1641C124.192 41.1641 126.457 41.9896 128.073 43.6054C129.759 45.3037 130.644 47.8748 130.632 51.0237V64.1267H126.268V64.1267Z" fill="white"/>
<path d="M146.838 64.339C139.809 64.339 134.902 59.5625 134.902 52.7221C134.902 46.0231 139.596 41.1641 146.059 41.1641C152.57 41.1641 157.134 45.917 157.157 52.7221C157.157 52.7928 157.146 52.8754 157.146 52.9461C157.134 53.0169 157.134 53.0759 157.134 53.1348V53.1702L157.122 53.2056C157.098 53.3236 157.098 53.4533 157.098 53.6066V54.3496H139.349C139.962 57.9821 142.875 60.3055 146.897 60.3055C149.362 60.3055 151.426 59.421 152.864 57.7581L153.431 57.133L156.025 60.0932L155.636 60.6004C153.607 63.0063 150.482 64.339 146.838 64.339ZM152.805 50.7289C152.511 49.1249 151.768 47.7568 150.647 46.7544C149.432 45.6693 147.84 45.1032 146.071 45.1032C144.314 45.1032 142.745 45.6693 141.53 46.7544C140.41 47.7568 139.679 49.1249 139.384 50.7289H152.805Z" fill="white"/>
<path d="M193.811 64.1249V51.2931C193.811 49.3 193.351 47.7668 192.443 46.7525C191.547 45.7382 190.19 45.2311 188.445 45.2311C186.475 45.2311 184.86 45.8679 183.751 47.0591C182.642 48.2621 182.053 50.0312 182.053 52.1895V64.1367H177.689V51.2931C177.689 47.2714 175.873 45.2311 172.287 45.2311C170.318 45.2311 168.702 45.8679 167.593 47.0591C166.485 48.2621 165.895 50.0312 165.895 52.1895V64.1367H161.531V41.3037H165.777V43.7922C167.499 42.0821 169.976 41.1504 172.842 41.1504C176.262 41.1504 178.963 42.4831 180.508 44.9244C182.371 42.5185 185.378 41.1504 188.881 41.1504C191.735 41.1504 194 41.976 195.616 43.5917C197.302 45.29 198.187 47.8611 198.175 51.0101V64.1131H193.811V64.1249Z" fill="white"/>
<path d="M203.574 72.0032V41.3037H207.82V44.1107C209.707 42.1765 212.278 41.1504 215.309 41.1504C221.902 41.1504 226.678 46.0095 226.678 52.7084C226.678 59.4427 221.902 64.3254 215.309 64.3254C212.337 64.3254 209.813 63.3465 207.95 61.4712V71.9914H203.574V72.0032ZM215.12 45.1367C210.875 45.1367 207.903 48.2503 207.903 52.7202C207.903 57.1901 210.875 60.3036 215.12 60.3036C219.366 60.3036 222.338 57.1901 222.338 52.7202C222.338 48.3211 219.307 45.1367 215.12 45.1367Z" fill="white"/>
<path d="M241.453 64.339C234.73 64.339 229.848 59.4564 229.848 52.7221C229.848 46.0231 234.73 41.1641 241.453 41.1641C244.708 41.1641 247.656 42.3317 249.768 44.4546C251.867 46.5657 253.011 49.5023 252.999 52.7339C252.999 59.4564 248.14 64.339 241.453 64.339ZM241.453 45.1386C237.207 45.1386 234.235 48.2522 234.235 52.7221C234.235 57.1919 237.207 60.3055 241.453 60.3055C245.663 60.3055 248.612 57.1919 248.612 52.7221C248.6 48.2522 245.663 45.1386 241.453 45.1386Z" fill="white"/>
<path d="M266.867 64.339C260.144 64.339 255.262 59.4564 255.262 52.7221C255.262 46.0231 260.144 41.1641 266.867 41.1641C273.554 41.1641 278.413 46.0231 278.413 52.7221C278.413 59.4564 273.554 64.339 266.867 64.339ZM266.867 45.1386C262.621 45.1386 259.649 48.2522 259.649 52.7221C259.649 57.1919 262.621 60.3055 266.867 60.3055C271.077 60.3055 274.026 57.1919 274.026 52.7221C274.026 48.2522 271.089 45.1386 266.867 45.1386Z" fill="white"/>
<path d="M287.184 32.543H282.82V64.127H287.184V32.543Z" fill="white"/>
<path d="M71.8452 95.1333C71.8452 100.067 67.867 104.05 62.9388 104.05H9.20331C4.27508 104.05 0.296875 100.067 0.296875 95.1333V41.3365C0.296875 36.4027 4.30477 32.4199 9.20331 32.4199H62.9388C67.867 32.4199 71.8452 36.4027 71.8452 41.3365V95.1333Z" fill="#2E3349"/>
<path d="M0.296875 68.3262V95.1354C0.296875 100.069 4.30477 104.052 9.23299 104.052H62.9388C67.867 104.052 71.8749 100.069 71.8749 95.1354V68.3262H0.296875Z" fill="url(#paint0_linear_601_179)"/>
<path opacity="0.3" d="M63.3534 94.4804C63.3534 95.5801 62.6112 96.4717 61.6908 96.4717H52.4282C51.5078 96.4717 50.7656 95.5801 50.7656 94.4804V41.9914C50.7656 40.8917 51.5078 40 52.4282 40H61.6908C62.6112 40 63.3534 40.8917 63.3534 41.9914V94.4804Z" fill="#C0C0C0"/>
<defs>
<linearGradient id="paint0_linear_601_179" x1="36.0846" y1="52.7621" x2="36.0846" y2="121.864" gradientUnits="userSpaceOnUse">
<stop stop-color="#AE61FF"/>
<stop offset="1" stop-color="#13EFD8"/>
</linearGradient>
</defs>
</svg>
