<?xml version="1.0" encoding="utf-8"?>
<svg version="1.1" id="Ebene_1" xmlns="http://www.w3.org/2000/svg" xmlns:xlink="http://www.w3.org/1999/xlink" x="0px" y="0px"
	 width="30px" height="30px" viewBox="0 0 30 30" enable-background="new 0 0 30 30" xml:space="preserve">
<path d="M25.714,0.336c0.064,0.05,0.121,0.1,0.18,0.15c0.437,0.375,0.819,0.566,1.373,0.72c0.212,0.063,0.392,0.158,0.516,0.345
	c0.025,0.088,0.025,0.088,0.025,0.171c-0.13,0.171-0.308,0.212-0.511,0.242c-0.09,0.004-0.18,0.004-0.271,0.004
	c-0.025,0-0.051,0-0.076,0c-0.107-0.004-0.215-0.004-0.323-0.004c-0.811-0.029-0.811-0.029-1.559,0.242c-0.014,0-0.031,0-0.048,0
	c-0.013,0.033-0.028,0.065-0.045,0.096c-0.009,0.021-0.018,0.036-0.026,0.053c-0.088,0.184-0.107,0.372-0.055,0.566
	c0.126,0.292,0.396,0.541,0.638,0.737c0.029,0.025,0.029,0.025,0.058,0.05c0.055,0.046,0.112,0.092,0.167,0.137
	c0.045,0.039,0.092,0.075,0.138,0.112c0.22,0.184,0.22,0.184,0.445,0.358c0.85,0.653,1.336,1.457,1.506,2.51
	c0.051,0.433,0.029,0.908-0.063,1.336c-0.005,0.025-0.008,0.045-0.014,0.066c-0.182,0.849-0.628,1.611-1.197,2.26
	c-0.021,0.021-0.038,0.042-0.058,0.063c-0.192,0.221-0.396,0.429-0.62,0.616c-0.033,0.029-0.033,0.029-0.067,0.058
	c-0.475,0.412-0.998,0.766-1.544,1.078c-0.149,0.086-0.287,0.17-0.37,0.329c-0.008,0.02-0.021,0.037-0.03,0.053
	c-0.05,0.108-0.055,0.217-0.058,0.333c-0.005,0.038-0.005,0.075-0.005,0.113c-0.003,0.016-0.003,0.038-0.003,0.058
	c-0.054,1.14-0.291,2.281-1.17,3.089c-0.962,0.824-2.813,0.998-4.02,1.229c-1.046,0.2-1.599,0.735-2.244,1.56
	c-0.029,0.042-0.058,0.079-0.091,0.121c-0.158,0.199-0.309,0.408-0.454,0.615c-0.041,0.059-0.084,0.112-0.125,0.171
	c-0.203,0.279-0.4,0.558-0.57,0.854c0.175-0.047,0.351-0.096,0.521-0.15c0.049-0.016,0.104-0.033,0.153-0.045
	c0.025-0.009,0.056-0.018,0.078-0.025c0.15-0.046,0.297-0.091,0.446-0.137c0.016-0.008,0.033-0.014,0.049-0.017
	c0.957-0.297,1.916-0.592,2.876-0.875c0.025-0.009,0.055-0.021,0.088-0.028c0.079-0.022,0.162-0.048,0.242-0.07
	c0.036-0.014,0.036-0.014,0.069-0.021c0.067-0.022,0.13-0.038,0.195-0.06c0.025-0.009,0.046-0.013,0.071-0.02
	c0.025-0.006,0.048-0.014,0.07-0.022c0.022-0.004,0.044-0.008,0.063-0.016c0.112-0.026,0.226-0.026,0.342-0.026
	c0.037,0,0.037,0,0.069,0c0.355,0.009,0.613,0.136,0.854,0.383c0.12,0.134,0.211,0.288,0.308,0.438
	c0.025,0.033,0.051,0.07,0.071,0.108c0.062,0.087,0.12,0.18,0.178,0.266c0.05,0.076,0.101,0.155,0.15,0.229
	c0.154,0.238,0.308,0.476,0.462,0.713c0.008,0.021,0.021,0.038,0.033,0.059c0.125,0.195,0.213,0.357,0.171,0.599
	c-0.037,0.088-0.074,0.12-0.153,0.171c-0.171,0.059-0.334,0.033-0.5-0.037c-0.079-0.046-0.149-0.1-0.225-0.162
	c-0.225-0.183-0.433-0.221-0.721-0.237c-0.271-0.021-0.503-0.087-0.703-0.278c-0.101-0.13-0.146-0.293-0.204-0.445
	c-0.012-0.029-0.012-0.029-0.023-0.063c-0.01-0.021-0.018-0.043-0.025-0.063c-0.018-0.05-0.018-0.05-0.067-0.066
	c-0.208-0.021-0.383,0.014-0.575,0.075c-0.041,0.012-0.041,0.012-0.082,0.025c-0.063,0.02-0.126,0.041-0.188,0.059
	c-0.107,0.038-0.22,0.069-0.327,0.103c-0.237,0.071-0.47,0.147-0.709,0.216c-0.087,0.03-0.175,0.056-0.261,0.085
	c-0.483,0.149-0.966,0.3-1.448,0.453C16.3,22,16.107,22.063,15.917,22.116c-0.392,0.116-0.753,0.267-1.114,0.453
	c-0.055,0.03-0.113,0.06-0.172,0.088c-0.045,0.024-0.087,0.046-0.133,0.071c-0.233,0.104-0.463,0.115-0.704,0.037
	c-0.208-0.092-0.373-0.27-0.465-0.479c-0.164-0.475-0.004-0.998,0.2-1.431c0.038-0.076,0.074-0.146,0.111-0.222
	c0.014-0.024,0.021-0.045,0.034-0.071c0.194-0.391,0.416-0.765,0.645-1.139c0.028-0.051,0.06-0.101,0.089-0.146
	c0.179-0.3,0.365-0.596,0.557-0.891c0.034-0.059,0.071-0.117,0.104-0.175c-0.345,0.125-0.682,0.266-1.016,0.411
	c-0.029,0.014-0.054,0.022-0.083,0.032c-0.339,0.152-0.625,0.318-0.908,0.556c-0.086,0.07-0.174,0.137-0.261,0.203
	c-0.167,0.129-0.333,0.259-0.5,0.387c-0.042,0.033-0.082,0.063-0.12,0.097c-0.213,0.166-0.42,0.332-0.625,0.502
	c-0.029,0.026-0.058,0.052-0.087,0.071c-0.141,0.117-0.225,0.204-0.274,0.38c-0.175,0.483-0.442,0.756-0.899,0.974
	c-0.475,0.224-0.757,0.653-1.053,1.069c-0.083,0.117-0.167,0.229-0.25,0.342c-0.113,0.148-0.221,0.3-0.329,0.448
	c-0.121,0.171-0.246,0.338-0.37,0.504c-0.096,0.134-0.188,0.263-0.283,0.392c-0.121,0.17-0.246,0.337-0.371,0.509
	c-0.096,0.128-0.188,0.257-0.283,0.387c-0.179,0.249-0.358,0.493-0.537,0.735c-0.046,0.059-0.087,0.118-0.129,0.175
	c-0.017,0.021-0.03,0.037-0.045,0.059c-0.08,0.109-0.159,0.221-0.242,0.333c-0.159,0.221-0.325,0.441-0.491,0.657
	c-0.071,0.096-0.142,0.188-0.208,0.283c-0.192,0.254-0.396,0.496-0.616,0.729c-0.133,0.142-0.262,0.287-0.383,0.444
	c-0.009,0.015-0.021,0.025-0.029,0.038c-0.171,0.225-0.3,0.463-0.412,0.717c-0.075,0.163-0.137,0.258-0.287,0.358
	c-0.125,0.016-0.246,0.022-0.362-0.039c-0.225-0.278-0.171-0.753-0.137-1.09c0.054-0.375,0.242-0.725,0.399-1.062
	c0.1-0.219,0.059-0.448,0.004-0.678c-0.054-0.237-0.104-0.492,0.026-0.717c0.133-0.195,0.295-0.29,0.528-0.336
	c0.088-0.017,0.175-0.034,0.262-0.051c0.495-0.087,0.8-0.237,1.095-0.653c0.049-0.07,0.1-0.146,0.15-0.216
	c0.021-0.035,0.041-0.067,0.066-0.097c0.028-0.045,0.063-0.095,0.096-0.142c0.087-0.128,0.174-0.252,0.267-0.382
	c0.233-0.333,0.466-0.671,0.699-1.007c0.142-0.204,0.283-0.409,0.424-0.613c0.088-0.118,0.171-0.241,0.258-0.365
	c0.071-0.102,0.142-0.199,0.212-0.306c0.07-0.099,0.142-0.198,0.212-0.299c0.024-0.041,0.054-0.082,0.083-0.125
	c0.042-0.057,0.087-0.119,0.128-0.182c0.013-0.018,0.025-0.035,0.038-0.054c0.121-0.172,0.221-0.352,0.275-0.555
	c0.008-0.025,0.017-0.054,0.024-0.079c0.017-0.054,0.029-0.107,0.046-0.162c0.054-0.184,0.121-0.342,0.221-0.503
	C9,20.282,9.009,20.265,9.021,20.248c0.075-0.117,0.175-0.204,0.283-0.291c0.025-0.022,0.025-0.022,0.047-0.043
	c0.12-0.099,0.25-0.17,0.391-0.236c0.229-0.117,0.416-0.267,0.611-0.434c0.058-0.055,0.122-0.103,0.183-0.154
	c0.133-0.107,0.267-0.221,0.399-0.333c0.03-0.024,0.054-0.049,0.083-0.074c0.17-0.142,0.341-0.291,0.503-0.441
	c0.05-0.046,0.105-0.092,0.154-0.137c0.549-0.429,0.549-0.429,0.919-0.986c-0.033-0.109-0.1-0.154-0.191-0.213
	c-0.157-0.074-0.324-0.125-0.495-0.17c-0.045-0.013-0.096-0.029-0.146-0.041c-0.036-0.01-0.036-0.01-0.075-0.021
	c-2.031-0.565-2.031-0.565-2.892-1.149c-0.586-0.395-1.229-0.367-1.902-0.233c-0.537,0.117-1.007,0.357-1.457,0.666
	c-0.27,0.184-0.574,0.309-0.903,0.271c-0.191-0.056-0.366-0.146-0.542-0.243c-0.025-0.017-0.05-0.028-0.079-0.041
	c-0.479-0.266-0.969-0.54-1.365-0.928c-0.016-0.017-0.037-0.038-0.059-0.055c-0.245-0.236-0.349-0.457-0.361-0.799
	c-0.009-0.728,0.278-1.436,0.761-1.981c0.013-0.016,0.025-0.033,0.037-0.05c0.212-0.262,0.513-0.453,0.808-0.604
	c0.017-0.008,0.033-0.017,0.05-0.025c1.186-0.596,2.622-0.604,3.92-0.695c1.582-0.113,2.946-0.429,4.345-1.198
	c1.465-0.804,3.029-1.311,4.69-1.519c0.021-0.004,0.041-0.004,0.066-0.009c0.321-0.041,0.646-0.054,0.973-0.063
	c0.022-0.004,0.043-0.004,0.063-0.004c1.407-0.033,2.739,0.537,4.037,1.016c0.678,0.253,0.678,0.253,1.373,0.449
	c0.021,0.008,0.048,0.012,0.07,0.017c0.264,0.067,0.513,0.075,0.783,0.075c0.018,0,0.038,0,0.054,0c0.667,0,1.266-0.108,1.757-0.586
	c0.03-0.021,0.059-0.046,0.092-0.071c0.383-0.333,0.541-1.069,0.587-1.553c0.033-0.62-0.079-1.048-0.499-1.519
	c-0.042-0.046-0.084-0.091-0.126-0.138c-0.046-0.049-0.091-0.104-0.137-0.158c-0.162-0.187-0.354-0.34-0.546-0.495
	c-0.137-0.112-0.266-0.229-0.399-0.341c-0.029-0.029-0.062-0.055-0.096-0.083c-0.153-0.133-0.304-0.27-0.448-0.412
	c-0.022-0.017-0.022-0.017-0.042-0.038c-0.608-0.57-1.028-1.339-1.057-2.184c-0.009-0.563,0.07-1.133,0.439-1.578
	c0.018-0.018,0.03-0.038,0.048-0.055C24.244-0.213,25.152-0.055,25.714,0.336z"/>
</svg>
