<?xml version="1.0" encoding="utf-8"?>
<svg version="1.1" xmlns="http://www.w3.org/2000/svg" xmlns:xlink="http://www.w3.org/1999/xlink" x="0px" y="0px"
	 width="30px" height="30px" viewBox="0 0 30 30" enable-background="new 0 0 30 30" xml:space="preserve">
<path d="M8.577,25.143c0.065,0.733,0.674,1.309,1.415,1.309h12.587c0.784,0,1.421-0.645,1.421-1.439V7.045
	c0-0.751-0.567-1.368-1.291-1.434c0.004,0.043,0.006,0.087,0.006,0.131v17.966c0,0.795-0.637,1.439-1.422,1.439H8.707
	C8.663,25.148,8.62,25.146,8.577,25.143z"/>
<path d="M20.008,3H7.421C6.636,3,6,3.645,6,4.44v17.966c0,0.795,0.636,1.439,1.421,1.439h12.587
	c0.785,0,1.421-0.645,1.421-1.439V4.44C21.429,3.645,20.793,3,20.008,3z M13.711,7.55c1.461,0,2.646,1.502,2.646,3.354
	s-1.185,3.354-2.646,3.354s-2.646-1.501-2.646-3.354S12.25,7.55,13.711,7.55z M17.135,18.123c-0.948,0.734-2.134,1.172-3.42,1.172
	c-1.287,0-2.472-0.438-3.42-1.172c-0.553-0.43-0.553-1.254,0-1.684c0.948-0.735,2.134-1.172,3.42-1.172
	c1.286,0,2.472,0.437,3.42,1.172C17.688,16.869,17.688,17.693,17.135,18.123z"/>
</svg>
