<svg width="30" height="30" viewBox="0 0 30 30" fill="none" xmlns="http://www.w3.org/2000/svg">
<path d="M25.1365 19.2825C24.4366 20.9379 23.3418 22.3965 21.9478 23.531C20.5539 24.6655 18.9033 25.4412 17.1403 25.7904C15.3773 26.1395 13.5556 26.0515 11.8345 25.534C10.1134 25.0165 8.54522 24.0853 7.26715 22.8217C5.98908 21.5581 5.03999 20.0007 4.50286 18.2856C3.96574 16.5705 3.85693 14.75 4.18595 12.9831C4.51496 11.2163 5.27179 9.55689 6.39027 8.1501C7.50874 6.7433 8.9548 5.63191 10.602 4.91309" stroke="#000" stroke-width="2" stroke-linecap="round" stroke-linejoin="round"/>
<path d="M26.0046 15.0026C26.0046 13.5578 25.72 12.127 25.1671 10.7921C24.6141 9.45721 23.8037 8.24429 22.782 7.2226C21.7603 6.20091 20.5474 5.39046 19.2125 4.83753C17.8776 4.28459 16.4468 4 15.002 4V15.0026H26.0046Z" stroke="#000" stroke-width="2" stroke-linecap="round" stroke-linejoin="round"/>
</svg>
