<?xml version="1.0" encoding="UTF-8" standalone="no"?>
<svg
   width="23"
   height="30"
   viewBox="0 0 23 30"
   fill="none"
   stroke="none"
   data-darkreader-inline-fill="none"
   version="1.1"
   xmlns="http://www.w3.org/2000/svg"
   xmlns:svg="http://www.w3.org/2000/svg">
  <path
     fill-rule="evenodd"
     d="m 0.91176425,3.5294118 c 0,-1.4619303 1.18512865,-2.64705891 2.64705895,-2.64705885 H 19.441177 c 1.46193,-1.1e-7 2.647059,1.18512855 2.647059,2.64705885 V 26.470588 c 0,1.46193 -1.185129,2.647059 -2.647059,2.647059 H 3.5588232 c -1.4619303,0 -2.64705905,-1.185129 -2.64705895,-2.647059 z M 4.4411761,5.2941176 c 0,-0.4873102 0.3950431,-0.8823531 0.8823533,-0.8823529 H 17.676471 c 0.48731,0 0.882353,0.3950428 0.882353,0.8823529 v 7.9411764 c 0,0.48731 -0.395043,0.882353 -0.882353,0.882353 H 5.3235294 c -0.4873102,0 -0.8823533,-0.395043 -0.8823533,-0.882353 z M 5.3235294,24.024 c -1.1764701,3.54e-4 -1.1764701,1.564589 0,1.564235 l 1.5644704,-4.71e-4 c 1.17647,-3.53e-4 1.17647,-1.564588 0,-1.564234 z m 9.9062946,0.681882 c -1e-6,-0.48731 0.395042,-0.681882 0.882353,-0.681882 h 1.564294 c 1.17647,0 1.17647,1.564235 0,1.564235 h -1.564294 c -0.487311,0 -0.882354,-0.395043 -0.882353,-0.882353 z M 10.717177,24.02353 c -1.1764712,-3.54e-4 -1.1764712,1.563881 0,1.564234 l 1.564823,4.71e-4 c 1.17647,3.54e-4 1.17647,-1.563881 0,-1.564235 z M 4.4411761,21.176471 c 0,-0.48731 0.3950431,-0.782324 0.8823533,-0.782471 l 1.5644704,-4.71e-4 c 1.17647,-3.53e-4 1.17647,1.564647 0,1.565 L 5.3235294,21.959 C 4.8362192,21.959147 4.4411761,21.663781 4.4411761,21.176471 Z M 16.112177,20.394 c -1.176471,0 -1.176471,1.565 0,1.565 h 1.564294 c 1.17647,0 1.17647,-1.565 0,-1.565 z m -6.2773542,0.782 c 0,-0.48731 0.3950432,-0.782617 0.8823532,-0.782471 L 12.282,20.394 c 1.17647,3.54e-4 1.17647,1.565354 0,1.565 l -1.564824,-4.71e-4 C 10.229866,21.958383 9.8348228,21.663311 9.8348228,21.176 Z M 5.3235294,16.764706 c -1.17647,3.54e-4 -1.17647,1.564648 0,1.564294 l 1.5644704,-4.71e-4 c 1.17647,-3.53e-4 1.17647,-1.564647 0,-1.564294 z m 9.9062946,0.882353 c -1e-6,-0.48731 0.395042,-0.882353 0.882353,-0.882353 h 1.564294 c 1.17647,0 1.17647,1.564294 0,1.564294 h -1.564294 c -0.487311,0 -0.882354,-0.194631 -0.882353,-0.681941 z m -4.512647,-0.882824 c -1.1764712,-3.53e-4 -1.1764712,1.563941 0,1.564294 L 12.282,18.329 c 1.17647,3.54e-4 1.17647,-1.56394 0,-1.564294 z"
     clip-rule="evenodd"
     id="path490"
     style="display:inline;fill:none;fill-opacity:1;stroke-width:1.76471;stroke-dasharray:none;stroke-opacity:1" />
</svg>
