<?xml version="1.0" encoding="utf-8"?>
<!-- Generator: Adobe Illustrator 16.0.2, SVG Export Plug-In . SVG Version: 6.00 Build 0)  -->
<!DOCTYPE svg PUBLIC "-//W3C//DTD SVG 1.1//EN" "http://www.w3.org/Graphics/SVG/1.1/DTD/svg11.dtd">
<svg version="1.1" id="Ebene_1" xmlns="http://www.w3.org/2000/svg" xmlns:xlink="http://www.w3.org/1999/xlink" x="0px" y="0px"
	 width="30px" height="30px" viewBox="0 0 30 30" enable-background="new 0 0 30 30" xml:space="preserve">
<g>
	<path d="M19,11h5.334V5.667H19V11z M20.334,7H23v2.667h-2.666V7z"/>
	<path d="M11,19H5.667v5.334H11V19z M9.666,23H6.999v-2.666h2.667V23z"/>
	<path d="M11,5.667H5.667V11H11V5.667z M9.666,9.667H6.999V7h2.667V9.667z"/>
	<rect x="19" y="21.667" width="2.664" height="2.667"/>
	<path d="M0,0v30h30V0H0z M16.334,3H27v10.667H16.334V3z M13.667,27H3V16.334h10.667V27z M13.667,13.667H3V3h10.667
		V13.667z M24.33,19h-2.664v2.666h2.664v2.668h-2.664V27H19v-2.666h-2.666v-2.668H19V19h-2.666v-2.666H19V19h2.664v-2.666h2.666V19z
		 M27.002,27h-2.667v-2.666h2.667V27z M27.002,21.667h-2.667V19h2.667V21.667z"/>
	<rect x="21.664" y="21.666" width="0.002" height="0.001"/>
</g>
</svg>
