<?xml version="1.0" encoding="iso-8859-1"?>
<!-- Uploaded to: SVG Repo, www.svgrepo.com, Generator: SVG Repo Mixer Tools -->
<svg fill="#000000" height="800px" width="800px" version="1.1" id="Capa_1" xmlns="http://www.w3.org/2000/svg" xmlns:xlink="http://www.w3.org/1999/xlink" 
	 viewBox="0 0 489 489" xml:space="preserve">
<g>
	<g>
		<path d="M423.8,411.4h-33.9c-6.8,0-12.3,5.5-12.3,12.3s5.5,12.3,12.3,12.3h33.9c28.1,0,51-22.9,51-51V104.1c0-28.1-22.9-51-51-51
			H191.3l32.2-32.2c4.8-4.8,4.8-12.5,0-17.3s-12.5-4.8-17.3,0l-53.1,53.1c-4.8,4.8-4.8,12.5,0,17.3l53.1,53.1
			c2.4,2.4,5.5,3.6,8.7,3.6s6.3-1.2,8.7-3.6c4.8-4.8,4.8-12.5,0-17.3l-32.2-32.2h232.5c14.6,0,26.5,11.9,26.5,26.5v280.8
			C450.3,399.5,438.4,411.4,423.8,411.4z"/>
		<path d="M265.4,485.4c2.4,2.4,5.5,3.6,8.7,3.6s6.3-1.2,8.7-3.6l53.1-53.1c4.8-4.8,4.8-12.5,0-17.3l-53.1-53.1
			c-4.8-4.8-12.5-4.8-17.3,0s-4.8,12.5,0,17.3l32.2,32.2H65.2c-14.6,0-26.5-11.9-26.5-26.5V104.1c0-14.6,11.9-26.5,26.5-26.5h33.9
			c6.8,0,12.3-5.5,12.3-12.3S105.9,53,99.1,53H65.2c-28.1,0-51,22.9-51,51v280.8c0,28.1,22.9,51,51,51h232.5L265.5,468
			C260.7,472.9,260.7,480.7,265.4,485.4z"/>
	</g>
</g>
</svg>