<svg width="30" height="30" viewBox="0 0 30 30" fill="#000" xmlns="http://www.w3.org/2000/svg">
<path fill-rule="evenodd" clip-rule="evenodd" d="M12.676 7.4209C12.8971 7.97869 13.3132 8.43796 13.8402 8.71468L8.71566 13.8392C8.43894 13.3122 7.97966 12.8961 7.42188 12.675L12.676 7.4209ZM16.1622 21.2854L18.7246 18.723L21.2864 16.1612C21.5633 16.6881 22.0227 17.1041 22.5806 17.325L19.9536 19.952L17.326 22.5796C17.105 22.0217 16.6891 21.5623 16.1622 21.2854Z" fill="#000"/>
<circle cx="15" cy="6.5" r="2.5" fill="#000" stroke="#000" stroke-width="2"/>
<circle cx="15" cy="23.5" r="2.5" fill="#000" stroke="#000" stroke-width="2"/>
<circle cx="6.5" cy="15" r="2.5" fill="#000" stroke="#000" stroke-width="2"/>
<circle cx="23.5" cy="15" r="2.5" fill="#000" stroke="#000" stroke-width="2"/>
<path fill-rule="evenodd" clip-rule="evenodd" d="M20.2348 14.0839L14.9386 14.0847L9.6425 14.0855C9.74947 14.6618 9.71988 15.2585 9.55374 15.8236L14.9383 15.8228L20.323 15.822C20.1571 15.2569 20.1276 14.6602 20.2348 14.0839Z" fill="#000"/>
</svg>
