<?xml version="1.0" encoding="utf-8"?>
<!DOCTYPE svg PUBLIC "-//W3C//DTD SVG 1.1//EN" "http://www.w3.org/Graphics/SVG/1.1/DTD/svg11.dtd">
<svg version="1.1"
	 id="svg1" xmlns:inkscape="http://www.inkscape.org/namespaces/inkscape" xmlns:sodipodi="http://sodipodi.sourceforge.net/DTD/sodipodi-0.dtd" xmlns:svg="http://www.w3.org/2000/svg" inkscape:version="1.3 (0e150ed6c4, 2023-07-21)" sodipodi:docname="Share2.svg"
	 xmlns="http://www.w3.org/2000/svg" xmlns:xlink="http://www.w3.org/1999/xlink" x="0px" y="0px" width="30px" height="30px"
	 viewBox="0 0 30 30" enable-background="new 0 0 30 30" xml:space="preserve">
<path id="path1" d="M29.192,0.032L0.418,9.626c-0.32,0.106-0.494,0.453-0.387,0.773
	c0.055,0.166,0.179,0.301,0.34,0.37l10.574,4.531c0.112,0.048,0.243,0.035,0.342-0.037l10.366-7.406
	c0.321-0.228,0.717,0.168,0.49,0.489l-7.407,10.365c-0.072,0.101-0.084,0.229-0.036,0.341l4.53,10.574
	c0.132,0.312,0.492,0.455,0.803,0.323c0.16-0.069,0.285-0.203,0.341-0.369l9.594-28.774c0.106-0.32-0.066-0.667-0.386-0.774
	C29.456-0.01,29.319-0.01,29.192,0.032L29.192,0.032z"/>
</svg>
