<?xml version="1.0" encoding="UTF-8"?>
<svg xmlns="http://www.w3.org/2000/svg" xmlns:xlink="http://www.w3.org/1999/xlink" width="24px" height="24px" viewBox="0 0 24 23" version="1.1">
<g id="surface1">
<path style="fill-rule:nonzero;fill:rgb(100%,100%,100%);fill-opacity:1;stroke-width:12.5;stroke-linecap:butt;stroke-linejoin:round;stroke:rgb(0%,0%,0%);stroke-opacity:1;stroke-miterlimit:4;" d="M 335.43457 412.272418 L 398.686523 445.144361 C 413.62793 458.209918 409.892578 467.03125 420.351562 475.103601 C 430.561523 484.590693 437.119141 486.088655 443.261719 477.184103 C 448.076172 467.11447 447.080078 457.044837 448.657227 445.976562 C 455.712891 439.235734 461.523438 435.823709 467.333984 428.99966 C 473.725586 421.925951 473.476562 414.935462 463.598633 409.942255 C 455.380859 406.613451 447.661133 404.949049 437.783203 407.778533 C 431.557617 409.775815 424.916992 410.940897 416.616211 407.445652 L 348.300781 375.738791 L 154.311523 308.413723 C 128.164062 295.681046 106.499023 286.193954 80.683594 271.880095 C 66.655273 260.811821 71.220703 248.079144 54.204102 237.843071 C 46.733398 234.098166 41.337891 232.433764 35.361328 242.586617 C 31.542969 251.574389 31.875 261.227921 31.293945 270.548573 C 24.570312 277.705503 17.016602 281.949728 11.538086 290.77106 C 3.569336 303.586957 15.605469 307.831182 22.163086 309.412364 C 40.59082 313.98947 47.231445 305.750679 64.248047 309.079484 C 97.285156 324.475204 130.654297 340.536685 162.529297 356.182065 Z M 335.43457 412.272418 " transform="matrix(0.0470588,0,0,0.0469388,0,0)"/>
<path style="fill-rule:nonzero;fill:rgb(100%,100%,100%);fill-opacity:1;stroke-width:12.5;stroke-linecap:butt;stroke-linejoin:round;stroke:rgb(0%,0%,0%);stroke-opacity:1;stroke-miterlimit:4;" d="M 349.545898 354.850543 L 444.091797 310.244565 C 461.938477 303.170856 464.428711 313.157269 480.283203 310.244565 C 492.319336 310.161345 502.363281 305.417799 501.533203 294.016644 C 495.390625 285.028872 489.663086 279.369905 479.038086 269.466712 C 479.619141 258.980978 477.626953 248.828125 473.642578 238.675272 C 469.40918 232.683424 461.938477 230.103601 450.732422 240.755774 C 439.360352 249.327446 442.929688 260.895041 428.652344 272.795516 C 405.327148 284.446332 384.077148 294.599185 358.261719 307.415082 L 161.782227 375.32269 C 139.038086 387.389606 118.369141 398.624321 92.304688 408.610734 C 71.054688 413.936821 71.884766 400.871264 46.069336 409.526155 C 38.764648 415.351562 38.847656 423.673573 44.824219 429.915082 C 51.796875 436.73913 56.611328 440.983356 62.753906 446.975204 C 64.663086 455.630095 64.995117 463.036685 66.074219 473.272758 C 70.224609 485.922215 79.438477 485.173234 87.324219 479.098166 C 90.810547 474.77072 95.043945 470.942595 97.700195 466.199049 C 101.269531 460.040761 105.336914 452.883832 110.234375 447.141644 L 173.071289 413.77038 Z M 349.545898 354.850543 " transform="matrix(0.0470588,0,0,0.0469388,0,0)"/>
<path style="fill-rule:nonzero;fill:rgb(100%,100%,100%);fill-opacity:1;stroke-width:12.5;stroke-linecap:butt;stroke-linejoin:miter;stroke:rgb(0%,0%,0%);stroke-opacity:1;stroke-miterlimit:4;" d="M 128.496094 221.531929 C 109.321289 202.973845 96.040039 170.684443 94.130859 135.815217 C 92.138672 97.450747 112.30957 59.335938 142.69043 37.532269 C 176.640625 13.564878 233.417969 6.990489 268.779297 8.821332 C 292.685547 8.821332 345.976562 21.221128 364.736328 35.202106 C 397.773438 59.252717 415.454102 93.289742 416.699219 132.070312 C 418.525391 171.100543 402.089844 200.726902 382.001953 219.284986 " transform="matrix(0.0470588,0,0,0.0469388,0,0)"/>
<path style=" stroke:none;fill-rule:nonzero;fill:rgb(100%,100%,100%);fill-opacity:1;" d="M 6.136719 10.09375 C 6.136719 10.09375 5.046875 13.378906 7.144531 13.9375 L 7.910156 18.335938 C 8.714844 21.796875 15.175781 21.796875 16.125 18.335938 L 16.890625 13.9375 C 19.039062 13.367188 17.949219 10.089844 17.949219 10.089844 Z M 6.136719 10.09375 "/>
<path style="fill:none;stroke-width:12.5;stroke-linecap:butt;stroke-linejoin:miter;stroke:rgb(0%,0%,0%);stroke-opacity:1;stroke-miterlimit:4;" d="M 129.658203 112.263927 C 121.938477 119.087976 122.851562 129.240829 124.262695 144.470109 C 125.341797 156.037704 132.729492 167.438859 133.144531 178.007812 C 135.883789 200.227582 129.243164 222.530571 126.171875 240.755774 C 124.013672 261.644022 130.073242 279.702785 137.792969 286.693274 C 145.512695 293.517323 155.556641 296.430027 166.098633 299.592391 C 175.644531 302.088995 180.541992 306.49966 187.763672 311.908967 C 196.396484 321.146399 198.47168 328.636209 198.222656 337.873641 M 382.084961 111.847826 C 389.804688 118.588655 388.808594 128.824728 387.480469 143.970788 C 386.318359 155.621603 378.930664 167.022758 378.598633 177.508492 C 375.859375 199.811481 382.416992 222.11447 385.571289 240.339674 C 387.646484 261.311141 381.669922 279.286685 373.950195 286.277174 C 366.147461 293.184443 351.953125 296.929348 345.644531 299.176291 C 338.256836 301.839334 330.703125 306.49966 323.896484 311.908967 C 315.761719 319.814878 313.271484 328.220109 313.4375 337.540761 " transform="matrix(0.0470588,0,0,0.0469388,0,0)"/>
<path style="fill:none;stroke-width:12.5;stroke-linecap:butt;stroke-linejoin:miter;stroke:rgb(0%,0%,0%);stroke-opacity:1;stroke-miterlimit:4;" d="M 151.821289 296.929348 C 158.793945 313.73981 166.098633 330.134171 166.845703 347.360734 C 163.608398 361.175272 164.604492 377.569633 168.09082 390.63519 C 172.490234 408.527514 189.838867 429.748641 207.1875 436.822351 C 224.868164 443.313519 235.991211 444.977921 255.913086 444.977921 " transform="matrix(0.0470588,0,0,0.0469388,0,0)"/>
<path style="fill:none;stroke-width:12.5;stroke-linecap:butt;stroke-linejoin:miter;stroke:rgb(0%,0%,0%);stroke-opacity:1;stroke-miterlimit:4;" d="M 358.925781 296.929348 C 351.953125 313.73981 344.648438 330.134171 343.901367 347.360734 C 347.138672 361.175272 346.142578 377.569633 342.65625 390.63519 C 338.173828 408.527514 320.65918 429.166101 303.310547 436.23981 C 285.878906 443.313519 274.755859 444.977921 255 444.977921 " transform="matrix(0.0470588,0,0,0.0469388,0,0)"/>
<path style="fill-rule:nonzero;fill:rgb(0%,0%,0%);fill-opacity:1;stroke-width:1.25;stroke-linecap:butt;stroke-linejoin:miter;stroke:rgb(0%,0%,0%);stroke-opacity:1;stroke-miterlimit:4;" d="M 251.928711 245.665761 C 242.216797 253.072351 240.058594 255.568954 234.663086 263.724524 C 232.753906 266.886889 229.101562 274.210258 228.105469 279.120245 C 227.109375 284.113451 226.362305 291.27038 226.445312 295.098505 C 226.52832 307.914402 230.512695 315.986753 234.995117 315.653872 C 238.979492 315.154552 244.125977 310.993546 251.845703 301.589674 M 258.901367 245.915421 C 268.613281 253.155571 270.771484 255.652174 276.083984 263.890965 C 278.076172 266.970109 281.728516 274.376698 282.724609 279.286685 C 283.720703 284.196671 284.550781 291.353601 284.384766 295.181726 C 284.384766 307.997622 280.317383 316.069973 275.917969 315.820312 C 271.933594 315.320992 266.787109 311.076766 259.150391 301.672894 M 169.584961 189.408967 C 183.115234 186.995584 196.147461 185.497622 209.594727 183.99966 C 227.192383 179.505774 236.074219 199.561821 231.342773 214.791101 C 225.200195 228.189538 216.650391 240.006793 206.772461 251.407948 C 199.21875 259.97962 190.087891 261.311141 181.37207 258.398438 C 174.399414 256.401155 168.007812 252.073709 161.035156 242.087296 C 158.046875 233.515625 155.390625 229.021739 151.489258 218.369565 C 148.500977 208.466372 153.232422 193.819633 169.833984 189.159307 Z M 341.743164 189.408967 C 328.295898 186.995584 315.180664 185.497622 301.816406 183.99966 C 284.21875 179.505774 275.336914 199.561821 280.234375 214.791101 C 286.293945 228.189538 294.926758 240.006793 304.804688 251.407948 C 312.524414 259.97962 321.572266 261.311141 330.205078 258.398438 C 337.177734 256.401155 343.735352 252.073709 350.625 242.087296 C 353.696289 233.515625 356.269531 229.021739 360.170898 218.369565 C 363.325195 208.466372 358.510742 193.819633 341.90918 189.159307 Z M 341.743164 189.408967 " transform="matrix(0.0470588,0,0,0.0469388,0,0)"/>
<path style="fill:none;stroke-width:6.25;stroke-linecap:butt;stroke-linejoin:miter;stroke:rgb(0%,0%,0%);stroke-opacity:1;stroke-miterlimit:4;" d="M 169.25293 304.502378 C 174.897461 317.900815 176.640625 322.894022 180.791016 336.209239 C 184.277344 348.525815 185.605469 356.015625 187.763672 373.491848 M 341.079102 303.836617 C 335.43457 317.235054 333.608398 322.228261 329.541016 335.543478 C 326.054688 347.776834 324.726562 355.349864 322.568359 372.826087 " transform="matrix(0.0470588,0,0,0.0469388,0,0)"/>
<path style="fill:none;stroke-width:5;stroke-linecap:butt;stroke-linejoin:miter;stroke:rgb(0%,0%,0%);stroke-opacity:1;stroke-miterlimit:4;" d="M 193.491211 335.709918 C 208.183594 344.78091 233.666992 346.112432 256.494141 345.696332 C 281.894531 345.613111 303.55957 343.782269 317.836914 335.127378 M 198.637695 359.261209 C 214.907227 369.497283 233.999023 372.992527 255.996094 372.160326 C 278.823242 371.577785 296.254883 369.663723 312.026367 359.011549 " transform="matrix(0.0470588,0,0,0.0469388,0,0)"/>
<path style="fill:none;stroke-width:6.25;stroke-linecap:butt;stroke-linejoin:miter;stroke:rgb(0%,0%,0%);stroke-opacity:1;stroke-miterlimit:4;" d="M 186.933594 371.661005 C 204.282227 392.549253 228.520508 396.210938 256.079102 396.959918 C 285.546875 398.04178 315.263672 386.307745 322.900391 371.661005 " transform="matrix(0.0470588,0,0,0.0469388,0,0)"/>
<path style="fill-rule:nonzero;fill:rgb(0%,0%,0%);fill-opacity:1;stroke-width:5;stroke-linecap:butt;stroke-linejoin:miter;stroke:rgb(0%,0%,0%);stroke-opacity:1;stroke-miterlimit:4;" d="M 198.47168 340.287024 L 198.056641 381.480978 M 212.001953 344.61447 L 211.75293 388.721128 M 226.943359 346.528533 L 226.52832 392.715693 M 240.473633 347.527174 L 240.307617 394.380095 M 255.664062 347.943274 L 255.664062 394.796196 M 270.273438 347.693614 L 270.439453 394.463315 M 283.388672 346.362092 L 283.803711 392.382812 M 298.579102 343.865489 L 298.745117 387.972147 M 312.275391 338.372962 L 312.69043 379.983016 " transform="matrix(0.0470588,0,0,0.0469388,0,0)"/>
</g>
</svg>
