<svg xmlns="http://www.w3.org/2000/svg" x="0px" y="0px" width="30px" height="30px" viewBox="0 0 30 30" enable-background="new 0 0 30 30" xml:space="preserve">
<path fill-rule="evenodd" d="M28.641,13.7H4.525L15.932,2.295c0.508-0.508,0.508-1.331,0-1.839c-0.509-0.507-1.332-0.507-1.84,0 L0.467,14.081c-0.12,0.12-0.215,0.264-0.281,0.423c-0.053,0.128-0.071,0.265-0.081,0.401C0.103,14.938,0.086,14.966,0.086,15 s0.017,0.062,0.019,0.095c0.01,0.136,0.028,0.272,0.081,0.4c0.066,0.16,0.161,0.303,0.281,0.424l13.64,13.639 c0.253,0.254,0.586,0.381,0.919,0.381c0.332,0,0.666-0.127,0.919-0.379c0.509-0.509,0.509-1.33,0-1.838L4.524,16.3h24.116 c0.717,0,1.299-0.582,1.299-1.3S29.357,13.7,28.641,13.7z"/>
</svg>