<?xml version="1.0" encoding="UTF-8" standalone="no"?>
<svg
   width="14.8"
   height="20"
   viewBox="0 0 14.8 20"
   version="1.1"
   fill="none"
   xmlns:sodipodi="http://sodipodi.sourceforge.net/DTD/sodipodi-0.dtd"
   xmlns="http://www.w3.org/2000/svg"
   xmlns:svg="http://www.w3.org/2000/svg">
  <g
     id="surface1">
    <path
       style="fill-opacity:1;fill-rule:nonzero;stroke:none;stroke-width:0.765894"
       d="M 12.065841,9.256541 C 13.160831,8.7120382 13.842953,7.7516799 13.68439,6.1540735 13.468982,3.9700809 11.53929,3.237097 9.1039883,3.030665 V 0 h -1.884816 l -0.00298,2.949887 c -0.4936419,0 -1.0022428,0.00897 -1.5048604,0.020943 V 0 H 3.8265031 V 3.030665 C 3.4166305,3.036655 3.0157329,3.045624 2.6238114,3.045624 V 3.036654 H 0.02097 l 0.0029818,1.9685851 c 0,0 1.3911735,-0.026926 1.3702316,-0.00299 0.7629012,0.00299 1.0112184,0.4367989 1.083021,0.8107701 v 8.2991718 c -0.03291,0.233358 -0.1735224,0.610321 -0.7090497,0.610321 0.023934,0.02095 -1.37023085,0 -1.37023085,0 L 0.02395182,16.924455 H 2.4772066 c 0.4577416,0 0.906507,0.006 1.349289,0.012 V 20 h 1.8848163 v -3.033656 c 0.5175764,0.01201 1.0172015,0.01495 1.507853,0.01495 l -0.00299,3.018698 H 9.1039855 V 16.939408 C 12.275264,16.762896 14.495159,15.982043 14.773393,13.071048 14.994782,10.7255 13.866887,9.67838 12.06584,9.2565401 Z M 5.7561955,5.1368721 c 1.0650705,0 4.4098715,-0.3320868 4.4098715,1.8429311 0,2.0822729 -3.344801,1.8399389 -4.4098715,1.8399389 z m 0,9.6005959 v -4.059836 c 1.2774866,0 5.2894515,-0.359013 5.2894515,2.028422 0,2.291696 -4.0119649,2.031414 -5.2894515,2.031414 z m 0,0"
       id="path1" />
  </g>
</svg>
