<svg version="1.1" id="Layer_1" xmlns="http://www.w3.org/2000/svg" xmlns:xlink="http://www.w3.org/1999/xlink" x="0px" y="0px" viewBox="0 0 100 100" style="enable-background:new 0 0 100 100" xml:space="preserve">
<style type="text/css">
    <![CDATA[
    .st0{fill:#F7931A;}
    .st1{fill:#FFFFFF;}
    ]]>
</style>
<circle class="st0" cx="50" cy="50" r="50"/>
<g>
    <path class="st1" d="M75.07,37.53c1.11-7.94-4.63-11.83-12.56-14.59l2.57-10.1l-6.22-1.65L57.6,24.06l-5.16-1.29l2.57-9.86 l-6.38-1.65l-2.36,10.14l-3.97-0.9l-8.39-2.15l-1.43,6.43L40,26.05c2.21,0.63,2.68,2.21,2.36,3.32l-1.43,5.97l0.29,0.1 l-1.43,5.97l-3.97,16.13c-0.36,0.9-1.09,1.98-2.9,1.43l-4.36-1.09l-3.08,7.06l12.32,3.08l-1.87,8.17l4.76,1.16l2.57-10.1 l4.78,1.1l-2.36,10.1l6.22,1.65l2.57-10.14c10.64,2.01,18.65,1.1,21.89-7.94c2.57-7.67-0.19-12.07-6.12-15.02 C71.15,47.25,74.24,43.79,75.07,37.53L75.07,37.53L75.07,37.53z M61.93,59.67c-1.91,7.14-14.25,3.48-18.25,2.44l3.3-13.17 C48.15,50.63,63.09,52.78,61.93,59.67L61.93,59.67L61.93,59.67z M64.42,36.98c-1.65,7.14-12.29,3.67-15.91,2.76l3.08-12.35 C52.06,29.98,66.14,31.5,64.42,36.98L64.42,36.98z"/>
</g>
</svg>
