<?xml version="1.0" encoding="UTF-8"?>
<svg xmlns="http://www.w3.org/2000/svg" xmlns:xlink="http://www.w3.org/1999/xlink" width="21px" height="27px" viewBox="0 0 21 27" version="1.1" fill="none">
<g id="surface1">
<path style=" stroke:none;fill-rule:nonzero;fill-opacity:1;" d="M 16.632812 12.527344 C 18.0625 11.816406 18.953125 10.5625 18.746094 8.476562 C 18.464844 5.625 15.945312 4.667969 12.765625 4.398438 L 12.765625 0.441406 L 10.304688 0.441406 L 10.300781 4.292969 C 9.65625 4.292969 8.992188 4.304688 8.335938 4.320312 L 8.335938 0.441406 L 5.875 0.441406 L 5.875 4.398438 C 5.339844 4.40625 4.816406 4.417969 4.304688 4.417969 L 4.304688 4.40625 L 0.90625 4.40625 L 0.910156 6.976562 C 0.910156 6.976562 2.726562 6.941406 2.699219 6.972656 C 3.695312 6.976562 4.019531 7.542969 4.113281 8.03125 L 4.113281 18.867188 C 4.070312 19.171875 3.886719 19.664062 3.1875 19.664062 C 3.21875 19.691406 1.398438 19.664062 1.398438 19.664062 L 0.910156 22.539062 L 4.113281 22.539062 C 4.710938 22.539062 5.296875 22.546875 5.875 22.554688 L 5.875 26.554688 L 8.335938 26.554688 L 8.335938 22.59375 C 9.011719 22.609375 9.664062 22.613281 10.304688 22.613281 L 10.300781 26.554688 L 12.765625 26.554688 L 12.765625 22.558594 C 16.90625 22.328125 19.804688 21.308594 20.167969 17.507812 C 20.457031 14.445312 18.984375 13.078125 16.632812 12.527344 Z M 8.394531 7.148438 C 9.785156 7.148438 14.152344 6.714844 14.152344 9.554688 C 14.152344 12.273438 9.785156 11.957031 8.394531 11.957031 Z M 8.394531 19.683594 L 8.394531 14.382812 C 10.0625 14.382812 15.300781 13.914062 15.300781 17.03125 C 15.300781 20.023438 10.0625 19.683594 8.394531 19.683594 Z M 8.394531 19.683594 "/>
</g>
</svg>
