<?xml version="1.0" encoding="utf-8"?>
<svg version="1.1" xmlns:svg="http://www.w3.org/2000/svg" xmlns="http://www.w3.org/2000/svg" xmlns:xlink="http://www.w3.org/1999/xlink" x="0px" y="0px" width="24px" height="30px" viewBox="3 0.02 24 30" enable-background="new 3 0.02 24 30" xml:space="preserve">
<g id="g18" transform="matrix(0.06694934,0,0,0.06694934,-2.139031,-2.1356839)">
	<g id="g6">
		<path id="path2" d="M159.999,160.292h192.012c-1.707-19.991-9.715-35.198-27.919-40.099c-0.394-0.102-0.904-0.292-1.284-0.401
			c-12.005-3.399-20.801-7.498-20.801-20.698V78.49c0-25.497-20.509-46.298-46.006-46.298S210.002,52.89,210.002,78.49v20.604
			c0,13.099-8.803,17.198-20.801,20.596c-0.401,0.102-0.897,0.401-1.4,0.503C169.604,125.094,161.903,140.301,159.999,160.292z
			 M256.001,64.691c7.6,0,13.799,6.199,13.799,13.799c0,7.702-6.199,13.799-13.799,13.799c-7.6,0-13.799-6.199-13.799-13.799
			C242.202,70.89,248.402,64.691,256.001,64.691L256.001,64.691z"/>
		<path id="path4" d="M404.61,63.298h-73.604V77.79c0,10.604,8.694,18.503,18.992,18.503h37.196c6.71,0,12.092,5.696,12.399,12.508
			l0.117,327.179c-0.306,6.418-5.31,11.611-11.509,12.107l-264.398,0.117c-6.199-0.496-11.1-5.718-11.502-12.107l-0.102-327.296
			c0.299-6.812,5.893-12.508,12.501-12.508h37.298c10.305,0,19.006-7.899,19.006-18.503V63.298H107.4
			c-15.097,0-27.401,13.092-27.401,28.597v360.393c0,15.506,12.304,28.006,27.401,28.006h148.602H404.61
			c15.083,0,27.394-12.501,27.394-28.006V91.895C432.004,76.389,419.693,63.298,404.61,63.298z"/>
	</g>
	<rect id="rect8" x="143.998" y="192.295" width="112.004" height="16.002"/>
	<rect id="rect10" x="143.998" y="288.29" width="159.994" height="16.002"/>
	<rect id="rect12" x="143.998" y="384.285" width="129.012" height="16.016"/>
	<rect id="rect14" x="143.998" y="336.294" width="176.01" height="16.002"/>
	<rect id="rect16" x="143.998" y="240.292" width="208.013" height="16.002"/>
</g>
</svg>
