<?xml version="1.0" encoding="utf-8"?>
<!DOCTYPE svg PUBLIC "-//W3C//DTD SVG 1.1//EN" "http://www.w3.org/Graphics/SVG/1.1/DTD/svg11.dtd">
<svg version="1.1" id="Ebene_1_Kopie" xmlns="http://www.w3.org/2000/svg" xmlns:xlink="http://www.w3.org/1999/xlink" x="0px"
	 y="0px" width="30px" height="30px" viewBox="0 0 40 40" enable-background="new 0 0 30 30" xml:space="preserve">
<g>
	<path fill="#000" d="M11.106,0c3.283,0,6.04,2.257,6.8,5.303c0.761-0.403,1.628-0.63,2.547-0.63
		c2.771,0,5.059,2.067,5.406,4.743c1.803,0.342,3.161,1.925,3.161,3.825c0,2.152-1.743,3.895-3.894,3.895H6.433
		c-3.012,0-5.453-2.441-5.453-5.453c0-2.178,1.276-4.056,3.121-4.93C4.235,3.001,7.32,0,11.106,0z"/>
	<path fill="#000" d="M22.217,20.033l-9.594,9.862c-0.265,0.273-0.708-0.042-0.536-0.383l3.414-6.737
		c0.114-0.222-0.048-0.483-0.297-0.483H8.021c-0.295,0-0.445-0.359-0.236-0.569l8.896-9.014c0.258-0.262,0.688,0.025,0.544,0.364
		l-2.552,6.016c-0.094,0.221,0.07,0.467,0.311,0.464l6.989-0.087C22.271,19.462,22.424,19.82,22.217,20.033z"/>
</g>
</svg>
