<?xml version="1.0" encoding="utf-8"?>
<!-- Uploaded to: SVG Repo, www.svgrepo.com, Generator: SVG Repo Mixer Tools -->
<svg fill="#000000" width="800px" height="800px" viewBox="0 0 32 32" version="1.1" xmlns="http://www.w3.org/2000/svg">
<title>perspective-dice-three</title>
<path d="M27.52 10.138l-10.576 6.052c-0.307 0.334-0.564 0.747-0.735 1.175v11.766c0.284 0.38 0.8 0.446 1.39 0.105l9.168-5.294c0.895-0.517 1.621-1.774 1.621-2.808v-9.84c0-0.72-0.352-1.141-0.868-1.156zM23.587 18.988c0.002 0.861-0.626 1.923-1.401 2.372s-1.405 0.116-1.407-0.745c0-0.002 0-0.004 0-0.006-0.002-0.861 0.626-1.923 1.401-2.372s1.405-0.116 1.407 0.745c0 0.002 0 0.004 0 0.006zM27.111 8.247l-9.531-5.514c-0.895-0.518-2.346-0.518-3.241 0l-9.531 5.514c-0.637 0.368-0.82 0.899-0.551 1.362l11.17 6.378c0.336 0.046 0.686 0.048 1.023 0.006l11.238-6.431c0.231-0.451 0.038-0.959-0.577-1.315zM9.961 9.966c-0.779 0.462-2.041 0.462-2.82 0s-0.779-1.211 0-1.673c0.779-0.462 2.041-0.462 2.82 0s0.779 1.211 0 1.673zM17.397 9.982c-0.779 0.462-2.041 0.462-2.82 0s-0.779-1.211 0-1.673 2.041-0.462 2.82 0c0.779 0.462 0.779 1.211 0 1.673zM24.806 9.982c-0.779 0.462-2.041 0.462-2.82 0s-0.779-1.211 0-1.673c0.779-0.462 2.041-0.462 2.82 0s0.779 1.211 0 1.673zM15.656 17.159c-0.151-0.32-0.347-0.625-0.574-0.888l-10.73-6.127c-0.47 0.056-0.785 0.47-0.785 1.151v9.84c0 1.034 0.726 2.291 1.621 2.808l9.168 5.294c0.532 0.307 1.004 0.284 1.3-0.003v-12.076zM7.682 22.448c-0.002 0.861-0.631 1.194-1.407 0.745s-1.403-1.511-1.401-2.372c0-0.002 0-0.004 0-0.006 0.002-0.861 0.631-1.194 1.407-0.745s1.403 1.511 1.401 2.372c0 0.002 0 0.004 0 0.006zM14.671 18.826c-0.002 0.861-0.631 1.194-1.407 0.745s-1.403-1.511-1.401-2.372c0-0.002 0-0.004 0-0.006 0.002-0.861 0.631-1.194 1.407-0.745s1.403 1.511 1.401 2.372c0 0.002 0 0.004 0 0.006z"></path>
</svg>