<svg width="12" height="21" viewBox="0 0 12 21" fill="#000" xmlns="http://www.w3.org/2000/svg">
<path d="M2 3.5C2.55228 3.5 3 3.05228 3 2.5C3 1.94772 2.55228 1.5 2 1.5C1.44772 1.5 1 1.94772 1 2.5C1 3.05228 1.44772 3.5 2 3.5Z" stroke="#000" stroke-width="2" stroke-linecap="round" stroke-linejoin="round"/>
<path d="M10 3.5C10.5523 3.5 11 3.05228 11 2.5C11 1.94772 10.5523 1.5 10 1.5C9.44772 1.5 9 1.94772 9 2.5C9 3.05228 9.44772 3.5 10 3.5Z" stroke="#000" stroke-width="2" stroke-linecap="round" stroke-linejoin="round"/>
<path d="M2 11.5C2.55228 11.5 3 11.0523 3 10.5C3 9.94772 2.55228 9.5 2 9.5C1.44772 9.5 1 9.94772 1 10.5C1 11.0523 1.44772 11.5 2 11.5Z" stroke="#000" stroke-width="2" stroke-linecap="round" stroke-linejoin="round"/>
<path d="M10 11.5C10.5523 11.5 11 11.0523 11 10.5C11 9.94772 10.5523 9.5 10 9.5C9.44772 9.5 9 9.94772 9 10.5C9 11.0523 9.44772 11.5 10 11.5Z" stroke="#000" stroke-width="2" stroke-linecap="round" stroke-linejoin="round"/>
<path d="M2 19.5C2.55228 19.5 3 19.0523 3 18.5C3 17.9477 2.55228 17.5 2 17.5C1.44772 17.5 1 17.9477 1 18.5C1 19.0523 1.44772 19.5 2 19.5Z" stroke="#000" stroke-width="2" stroke-linecap="round" stroke-linejoin="round"/>
<path d="M10 19.5C10.5523 19.5 11 19.0523 11 18.5C11 17.9477 10.5523 17.5 10 17.5C9.44772 17.5 9 17.9477 9 18.5C9 19.0523 9.44772 19.5 10 19.5Z" stroke="#000" stroke-width="2" stroke-linecap="round" stroke-linejoin="round"/>
</svg>
