<?xml version="1.0" encoding="utf-8"?>
<svg version="1.1" id="Ebene_1" xmlns="http://www.w3.org/2000/svg" xmlns:xlink="http://www.w3.org/1999/xlink" x="0px" y="0px"
	 width="30px" height="30px" viewBox="0 0 30 30" enable-background="new 0 0 30 30" xml:space="preserve">
<path d="M29.988,5.016c0.016-0.216,0.016-0.434,0-0.651c-0.182-2.584-2.42-4.532-5.006-4.353C24.93,0.003,24.876,0,24.82,0h-8.406
	c-0.311,0-0.607,0.123-0.828,0.342L0.344,15.586c-0.001,0-0.001,0.001-0.002,0.001c-0.457,0.461-0.456,1.202,0.002,1.659
	l12.409,12.411h0.003c0.457,0.456,1.2,0.456,1.658,0l15.24-15.243c0.221-0.22,0.344-0.517,0.344-0.828v-8.41
	C29.998,5.122,29.995,5.069,29.988,5.016z M11.441,16.904c-0.917,0.914-2.402,0.914-3.318,0c-0.001,0-0.001,0-0.001,0
	c-0.916-0.92-0.915-2.404,0.002-3.319s2.4-0.914,3.316,0.001v-0.003C12.356,14.5,12.357,15.984,11.441,16.904z M15.93,21.875
	c0,0.648-0.526,1.172-1.174,1.172s-1.172-0.525-1.172-1.172V8.611c0-0.647,0.524-1.173,1.172-1.173s1.174,0.526,1.174,1.173V21.875z
	 M21.391,16.902c-0.916,0.916-2.402,0.916-3.316,0c-0.917-0.916-0.917-2.401-0.002-3.317c0.02-0.02,0.037-0.039,0.058-0.058
	c0.931-0.899,2.415-0.874,3.315,0.058s0.875,2.417-0.057,3.317H21.391z"/>
</svg>
