<?xml version="1.0" encoding="utf-8"?>
<!DOCTYPE svg PUBLIC "-//W3C//DTD SVG 1.1//EN" "http://www.w3.org/Graphics/SVG/1.1/DTD/svg11.dtd">
<svg version="1.1" id="Ebene_1" xmlns="http://www.w3.org/2000/svg" xmlns:xlink="http://www.w3.org/1999/xlink" x="0px" y="0px"
	 width="30px" height="30px" viewBox="0 0 30 30" enable-background="new 0 0 30 30" xml:space="preserve">
<path id="path1" d="M12.753,29.657L0.344,17.246c-0.458-0.457-0.459-1.198-0.002-1.659
	c0.001,0,0.001-0.001,0.002-0.001L15.586,0.342C15.806,0.123,16.104,0,16.414,0h8.406c0.056,0,0.11,0.003,0.163,0.012
	c2.585-0.179,4.824,1.769,5.005,4.353c0.016,0.217,0.016,0.435,0,0.651c0.007,0.053,0.01,0.106,0.01,0.16v8.41
	c0,0.311-0.123,0.608-0.343,0.828L14.414,29.657c-0.458,0.457-1.201,0.457-1.658,0H12.753z M15.929,8.611
	c0-0.647-0.525-1.173-1.173-1.173s-1.172,0.526-1.172,1.173v13.264c0,0.647,0.524,1.172,1.172,1.172s1.173-0.524,1.173-1.172V8.611z
	 M11.44,13.583c0.916,0.917,0.917,2.402,0.001,3.321c-0.917,0.915-2.402,0.915-3.318,0c-0.001,0-0.001,0-0.001,0
	c-0.916-0.919-0.915-2.404,0.002-3.319c0.917-0.915,2.4-0.914,3.316,0.001V13.583z M21.388,16.903
	c0.932-0.901,0.957-2.386,0.058-3.318c-0.901-0.932-2.385-0.957-3.316-0.058c-0.02,0.019-0.038,0.038-0.058,0.058
	c-0.915,0.916-0.915,2.402,0.002,3.318c0.915,0.915,2.4,0.915,3.317,0H21.388z"/>
</svg>
