<svg version="1.1" xmlns="http://www.w3.org/2000/svg" xmlns:xlink="http://www.w3.org/1999/xlink" x="0px" y="0px"
	 width="24px" height="24px" viewBox="0 0 24 24" enable-background="new 0 0 24 24" xml:space="preserve">
<path d="M22.529,9.243c-0.191,0.192-0.268,0.471-0.215,0.738c0.127,0.658,0.195,1.338,0.195,2.034
	c0,5.797-4.699,10.495-10.495,10.495c-3.068,0-5.828-1.316-7.748-3.414c-0.301-0.332-0.823-0.365-1.139-0.049
	c-0.268,0.268-0.294,0.697-0.04,0.979c2.195,2.445,5.381,3.982,8.926,3.982c6.625,0,11.994-5.369,11.994-11.994
	c0-0.836-0.084-1.652-0.249-2.44C23.645,9.002,22.943,8.83,22.529,9.243z"/>
<path d="M20.693,4.761c0.272-0.274,0.293-0.714,0.027-0.995c-2.185-2.306-5.277-3.745-8.706-3.745
	c-6.625,0-11.994,5.37-11.994,11.994c0,0.901,0.1,1.78,0.288,2.625c0.126,0.564,0.82,0.729,1.228,0.32
	c0.196-0.195,0.271-0.479,0.214-0.75c-0.151-0.708-0.23-1.443-0.23-2.196C1.521,6.219,6.22,1.52,12.016,1.52
	c2.966,0,5.644,1.23,7.552,3.209C19.873,5.046,20.385,5.072,20.693,4.761z"/>
<path d="M21.197,1.521c0.414,0,0.752,0.336,0.752,0.75V5.27c0,0.414-0.338,0.75-0.752,0.75h-2.996c-0.415,0-0.751-0.335-0.751-0.75
	s0.336-0.75,0.751-0.75h2.249V2.271C20.45,1.856,20.785,1.521,21.197,1.521z"/>
<path d="M2.303,18.232c0.14-0.142,0.331-0.221,0.53-0.221h2.999c0.413,0,0.75,0.336,0.75,0.75s-0.336,0.749-0.75,0.749H3.583v2.249
	c0,0.415-0.336,0.75-0.75,0.75c-0.415,0-0.75-0.335-0.75-0.75v-2.998C2.083,18.563,2.162,18.373,2.303,18.232z"/>
<g>
	<g>
		<g>
			<path d="M12.016,4.52c-4.139,0-7.496,3.356-7.496,7.496c0,4.141,3.357,7.496,7.496,7.496c4.141,0,7.496-3.354,7.496-7.496
				S16.156,4.52,12.016,4.52z M16.27,13.646c-0.147,1.535-1.332,1.934-3.021,2.019v1.581h-0.994l-0.004-1.581
				c-0.107-0.002-0.223,0-0.338,0.003c-0.157,0.003-0.319,0.003-0.481-0.003l0.006,1.584l-0.994,0.004l-0.005-1.585l-1.991-0.042
				l0.169-1.151c0,0,0.752,0.015,0.738,0.008c0.278-0.002,0.358-0.195,0.379-0.318l-0.004-2.538l0.005-1.807
				c-0.03-0.19-0.162-0.415-0.569-0.423c0.02-0.019-0.731,0.001-0.731,0.001L8.433,8.336l2.041-0.002l-0.003-1.55L11.5,6.782
				l0.005,1.551c0.199-0.005,0.392-0.003,0.591-0.002c0.066,0,0.13,0.001,0.195,0.001l-0.004-1.55L13.29,6.78v1.592
				c1.299,0.124,2.317,0.509,2.428,1.654c0.079,0.836-0.286,1.333-0.888,1.612C15.803,11.871,16.389,12.425,16.27,13.646z"/>
		</g>
	</g>
	<path d="M11.38,11.289l0.05,0.002c0.606,0.026,2.401,0.102,2.405-0.954c-0.004-1.002-1.531-0.969-2.243-0.954
		c-0.083,0-0.152,0.004-0.212,0.002V11.289z"/>
	<path d="M11.462,14.396c-0.026,0-0.061,0-0.083-0.004v-1.9c0.06,0,0.138-0.002,0.232-0.002c0.841-0.009,2.714-0.033,2.706,0.979
		C14.326,14.514,12.212,14.43,11.462,14.396z"/>
</g>
</svg>