<?xml version="1.0" encoding="utf-8"?>
<!DOCTYPE svg PUBLIC "-//W3C//DTD SVG 1.1//EN" "http://www.w3.org/Graphics/SVG/1.1/DTD/svg11.dtd">
<svg version="1.1" id="Ebene_1" xmlns="http://www.w3.org/2000/svg" xmlns:xlink="http://www.w3.org/1999/xlink" x="0px" y="0px"
	 width="20px" height="18px" viewBox="0 0 20 18" enable-background="new 0 0 20 18" xml:space="preserve">
<path d="M7.544,18L5.76,17.52l0.728-2.715c-1.089-0.4-2.1-0.986-2.991-1.729l-1.989,1.99L0.2,13.758l1.99-1.988
	C1.066,10.424,0.312,8.811,0,7.086l1.818-0.333c0.701,3.884,4.097,6.831,8.182,6.831c4.084,0,7.48-2.947,8.182-6.831L20,7.085
	c-0.313,1.725-1.064,3.339-2.189,4.685l1.99,1.988l-1.308,1.309l-1.988-1.989c-0.892,0.741-1.903,1.327-2.991,1.729l0.728,2.717
	L12.456,18l-0.729-2.717c-1.143,0.197-2.313,0.197-3.455,0L7.544,18z"/>
</svg>
