<?xml version="1.0" encoding="utf-8"?>
<!DOCTYPE svg PUBLIC "-//W3C//DTD SVG 1.1//EN" "http://www.w3.org/Graphics/SVG/1.1/DTD/svg11.dtd">
<svg version="1.1" id="Ebene_1" xmlns="http://www.w3.org/2000/svg" xmlns:xlink="http://www.w3.org/1999/xlink" x="0px" y="0px"
	 width="20px" height="18px" viewBox="-5 -4 20 18" enable-background="new -5 -4 20 18" xml:space="preserve">
<path d="M-5,5c0.869-4.733,5.017-8.319,10-8.319c4.982,0,9.129,3.586,10,8.319c-0.869,4.73-5.018,8.318-10,8.318
	C0.017,13.318-4.13,9.73-5,5z M5,9.623c2.552,0,4.623-2.07,4.623-4.623c0-2.553-2.071-4.623-4.623-4.623S0.378,2.448,0.378,5
	C0.378,7.553,2.448,9.623,5,9.623z M5,7.773C3.469,7.773,2.227,6.531,2.227,5c0-1.532,1.242-2.773,2.773-2.773S7.773,3.468,7.773,5
	C7.773,6.531,6.531,7.773,5,7.773z"/>
</svg>
