<?xml version="1.0" encoding="utf-8"?>
<!DOCTYPE svg PUBLIC "-//W3C//DTD SVG 1.1//EN" "http://www.w3.org/Graphics/SVG/1.1/DTD/svg11.dtd">
<svg version="1.1" id="Ebene_1" xmlns="http://www.w3.org/2000/svg" xmlns:xlink="http://www.w3.org/1999/xlink" x="0px" y="0px"
	 width="20px" height="18px" viewBox="-5 -4 20 18" enable-background="new -5 -4 20 18" xml:space="preserve">
<path d="M2.544,14L0.76,13.52l0.728-2.715c-1.089-0.4-2.1-0.986-2.991-1.729l-1.989,1.99L-4.8,9.758l1.99-1.988
	C-3.934,6.424-4.688,4.811-5,3.086l1.818-0.333C-2.481,6.637,0.915,9.584,5,9.584c4.084,0,7.481-2.947,8.181-6.831L15,3.085
	c-0.312,1.725-1.065,3.339-2.189,4.685l1.99,1.988l-1.308,1.309l-1.988-1.99c-0.892,0.742-1.903,1.328-2.992,1.729l0.728,2.717
	L7.456,14l-0.729-2.717c-1.143,0.197-2.313,0.197-3.455,0L2.544,14z"/>
</svg>
