<?xml version="1.0" encoding="utf-8"?>
<!DOCTYPE svg PUBLIC "-//W3C//DTD SVG 1.1//EN" "http://www.w3.org/Graphics/SVG/1.1/DTD/svg11.dtd">
<svg version="1.1" id="Ebene_1" xmlns="http://www.w3.org/2000/svg" xmlns:xlink="http://www.w3.org/1999/xlink" x="0px" y="0px"
	 width="20px" height="18px" viewBox="0 0 20 18" enable-background="new 0 0 20 18" xml:space="preserve">
<path d="M0,9c0.869-4.732,5.017-8.318,10-8.318c4.982,0,9.129,3.586,10,8.318c-0.869,4.73-5.018,8.318-10,8.318
	C5.017,17.318,0.87,13.73,0,9z M10,13.623c2.553,0,4.623-2.07,4.623-4.623S12.553,4.377,10,4.377C7.448,4.377,5.378,6.448,5.378,9
	C5.378,11.553,7.448,13.623,10,13.623z M10,11.773c-1.531,0-2.773-1.242-2.773-2.773c0-1.532,1.242-2.772,2.773-2.772
	c1.531,0,2.773,1.24,2.773,2.772C12.773,10.531,11.531,11.773,10,11.773z"/>
</svg>
