<svg width="26px" height="26px" viewBox="0 0 24 24" fill="none" xmlns="http://www.w3.org/2000/svg">
<path fill-rule="evenodd" clip-rule="evenodd" d="M6 5C5.44772 5 5 5.44772 5 6V18C5 18.5523 5.44772 19 6 19H18C18.5523 19 19 18.5523 19 18V6C19 5.44772 18.5523 5 18 5H6ZM9.5 11C10.3284 11 11 10.3284 11 9.5C11 8.67157 10.3284 8 9.5 8C8.67157 8 8 8.67157 8 9.5C8 10.3284 8.67157 11 9.5 11ZM7.47812 15.735L9.076 13.1784C9.27183 12.8651 9.72817 12.8651 9.924 13.1784L11.229 15.2664L13.3195 11.7285C13.5131 11.401 13.9869 11.401 14.1805 11.7285L16.5542 15.7456C16.7512 16.0789 16.5109 16.5 16.1238 16.5H11.3762C11.3273 16.5 11.2807 16.4933 11.2371 16.4809C11.1935 16.4933 11.1469 16.5 11.0979 16.5H7.90212C7.50941 16.5 7.26998 16.068 7.47812 15.735Z" fill="white"/>
</svg>
