<?xml version="1.0" encoding="iso-8859-1"?>
<!-- Uploaded to: SVG Repo, www.svgrepo.com, Generator: SVG Repo Mixer Tools -->
<svg fill="#000000" height="800px" width="800px" version="1.1" id="Layer_1" xmlns="http://www.w3.org/2000/svg" xmlns:xlink="http://www.w3.org/1999/xlink" 
	 viewBox="0 0 512 512" xml:space="preserve">
<g>
	<g>
		<path d="M33.408,233.76v228.157c0,27.617,22.466,50.083,50.083,50.083h139.12V233.76H33.408z"/>
	</g>
</g>
<g>
	<g>
		<path d="M289.389,233.76V512h139.12c27.617,0,50.083-22.466,50.083-50.083V233.76H289.389z"/>
	</g>
</g>
<g>
	<g>
		<path d="M478.592,100.205H370.015c12.655-8.15,24.542-17.707,35.448-28.612c6.521-6.515,6.521-17.086,0-23.607
			c-6.511-6.521-17.086-6.521-23.607,0c-15.832,15.827-34.098,28.31-53.941,37.099c7.368-8.884,11.558-20.151,11.558-31.963V50.15
			c0-16.293-7.581-31.101-20.798-40.633c-13.211-9.516-29.656-12.042-45.122-6.88c-6.639,2.21-12.565,5.717-17.552,10.174
			c-4.987-4.457-10.915-7.963-17.552-10.174c-15.477-5.179-31.911-2.647-45.122,6.88c-13.216,9.531-20.798,24.34-20.798,40.633
			v2.973c0,11.812,4.189,23.078,11.558,31.964c-19.843-8.789-38.109-21.272-53.941-37.099c-6.521-6.521-17.096-6.521-23.607,0
			c-6.521,6.521-6.521,17.091,0,23.607c10.906,10.905,22.792,20.462,35.448,28.612H33.408c-18.441,0-33.389,14.948-33.389,33.389
			v50.083c0,9.22,7.475,16.694,16.694,16.694h478.572c9.22,0,16.694-7.475,16.694-16.694v-50.083
			C511.98,115.153,497.032,100.205,478.592,100.205z M239.305,85.009l-26.205-18.167c-4.5-3.12-7.184-8.249-7.184-13.722v-2.972h0
			c0-5.435,2.528-10.368,6.934-13.542c2.901-2.092,6.271-3.174,9.706-3.174c1.783,0,3.576,0.294,5.337,0.875
			c6.826,2.277,11.412,8.641,11.412,15.841V85.009z M306.083,53.122c0,5.472-2.684,10.602-7.179,13.716l-26.21,18.172V50.149
			c0-7.2,4.588-13.564,11.412-15.841c1.761-0.581,3.554-0.875,5.337-0.875c3.435,0,6.804,1.082,9.706,3.174
			c4.407,3.174,6.934,8.108,6.934,13.542V53.122z"/>
	</g>
</g>
</svg>