<svg width="24" height="24" viewBox="0 0 24 24" fill="#000" xmlns="http://www.w3.org/2000/svg">
<path fill-rule="evenodd" clip-rule="evenodd" d="M10.5109 6.61716C9.99193 7.95823 9.65491 9.8618 9.65491 12.002C9.65491 14.1421 9.99193 16.0457 10.5109 17.3867C10.7713 18.0597 11.063 18.553 11.3486 18.8652C11.6338 19.1769 11.8549 19.25 12 19.25C12.1452 19.25 12.3663 19.1769 12.6515 18.8652C12.9371 18.553 13.2287 18.0597 13.4892 17.3867C14.0082 16.0457 14.3452 14.1421 14.3452 12.002C14.3452 9.8618 14.0082 7.95823 13.4892 6.61716C13.2287 5.94419 12.9371 5.45088 12.6515 5.13871C12.3663 4.82699 12.1452 4.75391 12 4.75391C11.8549 4.75391 11.6338 4.82699 11.3486 5.13871C11.063 5.45088 10.7713 5.94419 10.5109 6.61716ZM10.2419 4.12616C10.6973 3.62843 11.2905 3.25391 12 3.25391C12.7096 3.25391 13.3028 3.62843 13.7581 4.12616C14.2131 4.62344 14.5884 5.30141 14.8881 6.0758C15.4893 7.62945 15.8452 9.72491 15.8452 12.002C15.8452 14.279 15.4893 16.3745 14.8881 17.9281C14.5884 18.7025 14.2131 19.3805 13.7581 19.8777C13.3028 20.3755 12.7096 20.75 12 20.75C11.2905 20.75 10.6973 20.3755 10.2419 19.8777C9.78696 19.3805 9.41168 18.7025 9.112 17.9281C8.51076 16.3745 8.15491 14.279 8.15491 12.002C8.15491 9.72491 8.51076 7.62945 9.112 6.0758C9.41168 5.30141 9.78696 4.62344 10.2419 4.12616Z" />
<path fill-rule="evenodd" clip-rule="evenodd" d="M12 4.74609C7.99594 4.74609 4.75 7.99203 4.75 11.9961C4.75 16.0002 7.99594 19.2461 12 19.2461C16.0041 19.2461 19.25 16.0002 19.25 11.9961C19.25 7.99203 16.0041 4.74609 12 4.74609ZM3.25 11.9961C3.25 7.1636 7.16751 3.24609 12 3.24609C16.8325 3.24609 20.75 7.1636 20.75 11.9961C20.75 16.8286 16.8325 20.7461 12 20.7461C7.16751 20.7461 3.25 16.8286 3.25 11.9961Z" />
<path fill-rule="evenodd" clip-rule="evenodd" d="M3.25 11.9902C3.25029 11.576 3.58631 11.2404 4.00053 11.2407L20.0005 11.252C20.4147 11.2522 20.7503 11.5883 20.75 12.0025C20.7497 12.4167 20.4137 12.7522 19.9995 12.752L3.99947 12.7407C3.58526 12.7404 3.24971 12.4044 3.25 11.9902Z" />
</svg>
