<?xml version="1.0" encoding="utf-8"?>
<svg version="1.1" xmlns="http://www.w3.org/2000/svg" xmlns:xlink="http://www.w3.org/1999/xlink" x="0px" y="0px"
	 width="30px" height="30px" viewBox="0 0 30 30" enable-background="new 0 0 30 30" xml:space="preserve">
<path d="M21,11.5h-1v-2c0-2.76-2.24-5-5-5s-5,2.24-5,5v2H9c-1.1,0-2,0.9-2,2v10c0,1.1,0.9,2,2,2h12c1.1,0,2-0.9,2-2
	v-10C23,12.4,22.1,11.5,21,11.5z M15,20.5c-1.1,0-2-0.9-2-2s0.9-2,2-2c1.1,0,2,0.9,2,2S16.1,20.5,15,20.5z M18.1,11.5h-6.2v-2
	c0-1.71,1.39-3.1,3.1-3.1s3.1,1.39,3.1,3.1V11.5z"/>
</svg>
