<svg width="30" height="30" viewBox="0 0 30 30" fill="none" xmlns="http://www.w3.org/2000/svg">
  <path d="M21 11.5H20V9.5C20 6.74 17.76 4.5 15 4.5C12.24 4.5 10 6.74 10 9.5V11.5H9C7.9 11.5 7 12.4 7 13.5V23.5C7 24.6 7.9 25.5 9 25.5H21C22.1 25.5 23 24.6 23 23.5V13.5C23 12.4 22.1 11.5 21 11.5ZM15 20.5C13.9 20.5 13 19.6 13 18.5C13 17.4 13.9 16.5 15 16.5C16.1 16.5 17 17.4 17 18.5C17 19.6 16.1 20.5 15 20.5ZM18.1 11.5H11.9V9.5C11.9 7.79 13.29 6.4 15 6.4C16.71 6.4 18.1 7.79 18.1 9.5V11.5Z" fill="currentColor"/>
</svg>

