<?xml version="1.0" encoding="utf-8"?>
<!DOCTYPE svg PUBLIC "-//W3C//DTD SVG 1.1//EN" "http://www.w3.org/Graphics/SVG/1.1/DTD/svg11.dtd">
<svg version="1.1" id="Ebene_1" xmlns="http://www.w3.org/2000/svg" xmlns:xlink="http://www.w3.org/1999/xlink" x="0px" y="0px"
	 width="34.29px" height="30px" viewBox="0 0 34.29 30" enable-background="new 0 0 34.29 30" xml:space="preserve">
<g>
	<path d="M22.5,18.214V7.944l1.829-1.828c0.201-0.202,0.313-0.474,0.313-0.759V1.071C24.643,0.479,24.163,0,23.571,0
		h-3.214c-0.593,0-1.071,0.479-1.071,1.071v17.143H22.5z"/>
	<path d="M8.571,6.429h8.571v2.143h-2.901c1.847,1.625,2.904,3.968,2.901,6.429v12.857h15V15
		c0-3.551-2.878-6.429-6.429-6.429V6.429c4.733,0,8.572,3.837,8.572,8.571v12.857c0,1.184-0.959,2.143-2.144,2.143h-30
		C0.959,30,0,29.041,0,27.857V15C0,10.266,3.837,6.429,8.571,6.429z M9.825,15.336c0.538,0.229,0.89,0.379,0.89-0.336
		c0-1.184-0.959-2.143-2.143-2.143c-1.183,0-2.143,0.959-2.143,2.143c0,0.715,0.352,0.565,0.89,0.336
		C7.671,15.187,8.104,15,8.571,15S9.472,15.185,9.825,15.336z"/>
</g>
</svg>
