<?xml version="1.0" encoding="utf-8"?>
<!DOCTYPE svg PUBLIC "-//W3C//DTD SVG 1.1//EN" "http://www.w3.org/Graphics/SVG/1.1/DTD/svg11.dtd">
<svg version="1.1" id="Ebene_1" xmlns="http://www.w3.org/2000/svg" xmlns:xlink="http://www.w3.org/1999/xlink" x="0px" y="0px"
	 width="34.29px" height="30px" viewBox="0 0 34.29 30" enable-background="new 0 0 34.29 30" xml:space="preserve">
<g>
	<path d="M18.083,18.035h6.634l2.027,2.027c0.224,0.225,0.524,0.348,0.84,0.348h2.375c0.655,0,1.188-0.531,1.188-1.187v-2.377
		c0-0.655-0.533-1.188-1.188-1.188H18.083V18.035z"/>
	<path d="M25.715,6.429H8.571C3.837,6.429,0,10.266,0,15v12.857C0,29.042,0.959,30,2.143,30h30c1.184,0,2.143-0.958,2.143-2.143V15
		C34.286,10.266,30.447,6.429,25.715,6.429z M17.143,15c0.004-2.461-1.055-4.803-2.901-6.428h11.473c3.552,0,6.43,2.878,6.43,6.428
		v12.857H17.143V15z M9.825,15.337C9.472,15.187,9.039,15,8.571,15c-0.467,0-0.9,0.185-1.253,0.337
		C6.78,15.564,6.429,15.716,6.429,15c0-1.183,0.959-2.143,2.143-2.143c1.184,0,2.143,0.96,2.143,2.143
		C10.714,15.716,10.363,15.564,9.825,15.337z"/>
</g>
</svg>
