<svg viewBox="2.5 2.5 19 19" fill="none" xmlns="http://www.w3.org/2000/svg">
<path d="M7.77463 9.98962C7.92211 10.636 8 11.3089 8 12C8 12.6911 7.92211 13.364 7.77463 14.0104M10.75 8.42029C11.075 9.55739 11.249 10.7582 11.249 11.9997C11.249 13.2411 11.075 14.4419 10.75 15.579M13.999 6.85925C14.5129 8.48101 14.7901 10.2081 14.7901 11.9999C14.7901 13.7916 14.5129 15.5187 13.999 17.1405M21 11.9999C21 16.9704 16.9706 20.9999 12 20.9999C7.02944 20.9999 3 16.9704 3 11.9999C3 7.02931 7.02944 2.99988 12 2.99988C16.9706 2.99988 21 7.02931 21 11.9999Z" stroke-width="2" stroke-linecap="round" stroke-linejoin="round"/>
</svg>
