<svg width="30" height="30" viewBox="0 0 30 30" fill="none" xmlns="http://www.w3.org/2000/svg">
<mask id="path-1-inside-1" fill="white">
<path fill-rule="evenodd" clip-rule="evenodd" d="M18.502 6.5C18.502 8.433 16.9349 10 15.002 10C13.069 10 11.502 8.433 11.502 6.5C11.502 4.567 13.069 3 15.002 3C16.9349 3 18.502 4.567 18.502 6.5ZM17.0029 6.5C17.0029 7.60457 16.1075 8.5 15.0029 8.5C13.8984 8.5 13.0029 7.60457 13.0029 6.5C13.0029 5.39543 13.8984 4.5 15.0029 4.5C16.1075 4.5 17.0029 5.39543 17.0029 6.5Z"/>
</mask>
<path fill-rule="evenodd" clip-rule="evenodd" d="M18.502 6.5C18.502 8.433 16.9349 10 15.002 10C13.069 10 11.502 8.433 11.502 6.5C11.502 4.567 13.069 3 15.002 3C16.9349 3 18.502 4.567 18.502 6.5ZM17.0029 6.5C17.0029 7.60457 16.1075 8.5 15.0029 8.5C13.8984 8.5 13.0029 7.60457 13.0029 6.5C13.0029 5.39543 13.8984 4.5 15.0029 4.5C16.1075 4.5 17.0029 5.39543 17.0029 6.5Z" fill="white"/>
<path d="M15.002 11C17.4872 11 19.502 8.98528 19.502 6.5H17.502C17.502 7.88071 16.3827 9 15.002 9V11ZM10.502 6.5C10.502 8.98528 12.5167 11 15.002 11V9C13.6212 9 12.502 7.88071 12.502 6.5H10.502ZM15.002 2C12.5167 2 10.502 4.01472 10.502 6.5H12.502C12.502 5.11929 13.6212 4 15.002 4V2ZM19.502 6.5C19.502 4.01472 17.4872 2 15.002 2V4C16.3827 4 17.502 5.11929 17.502 6.5H19.502ZM15.0029 9.5C16.6598 9.5 18.0029 8.15685 18.0029 6.5H16.0029C16.0029 7.05228 15.5552 7.5 15.0029 7.5V9.5ZM12.0029 6.5C12.0029 8.15685 13.3461 9.5 15.0029 9.5V7.5C14.4506 7.5 14.0029 7.05228 14.0029 6.5H12.0029ZM15.0029 3.5C13.3461 3.5 12.0029 4.84315 12.0029 6.5H14.0029C14.0029 5.94772 14.4506 5.5 15.0029 5.5V3.5ZM18.0029 6.5C18.0029 4.84315 16.6598 3.5 15.0029 3.5V5.5C15.5552 5.5 16.0029 5.94772 16.0029 6.5H18.0029Z" fill="white" mask="url(#path-1-inside-1)"/>
<mask id="path-3-inside-2" fill="white">
<path fill-rule="evenodd" clip-rule="evenodd" d="M10 15C10 16.933 8.433 18.5 6.5 18.5C4.567 18.5 3 16.933 3 15C3 13.067 4.567 11.5 6.5 11.5C8.433 11.5 10 13.067 10 15ZM8.50098 15C8.50098 16.1046 7.60555 17 6.50098 17C5.39641 17 4.50098 16.1046 4.50098 15C4.50098 13.8954 5.39641 13 6.50098 13C7.60555 13 8.50098 13.8954 8.50098 15Z"/>
</mask>
<path fill-rule="evenodd" clip-rule="evenodd" d="M10 15C10 16.933 8.433 18.5 6.5 18.5C4.567 18.5 3 16.933 3 15C3 13.067 4.567 11.5 6.5 11.5C8.433 11.5 10 13.067 10 15ZM8.50098 15C8.50098 16.1046 7.60555 17 6.50098 17C5.39641 17 4.50098 16.1046 4.50098 15C4.50098 13.8954 5.39641 13 6.50098 13C7.60555 13 8.50098 13.8954 8.50098 15Z" fill="white"/>
<path d="M6.5 19.5C8.98528 19.5 11 17.4853 11 15H9C9 16.3807 7.88071 17.5 6.5 17.5V19.5ZM2 15C2 17.4853 4.01472 19.5 6.5 19.5V17.5C5.11929 17.5 4 16.3807 4 15H2ZM6.5 10.5C4.01472 10.5 2 12.5147 2 15H4C4 13.6193 5.11929 12.5 6.5 12.5V10.5ZM11 15C11 12.5147 8.98528 10.5 6.5 10.5V12.5C7.88071 12.5 9 13.6193 9 15H11ZM6.50098 18C8.15783 18 9.50098 16.6569 9.50098 15H7.50098C7.50098 15.5523 7.05326 16 6.50098 16V18ZM3.50098 15C3.50098 16.6569 4.84412 18 6.50098 18V16C5.94869 16 5.50098 15.5523 5.50098 15H3.50098ZM6.50098 12C4.84412 12 3.50098 13.3431 3.50098 15H5.50098C5.50098 14.4477 5.94869 14 6.50098 14V12ZM9.50098 15C9.50098 13.3431 8.15783 12 6.50098 12V14C7.05326 14 7.50098 14.4477 7.50098 15H9.50098Z" fill="white" mask="url(#path-3-inside-2)"/>
<mask id="path-5-inside-3" fill="white">
<path fill-rule="evenodd" clip-rule="evenodd" d="M18.502 23.5007C18.502 25.4337 16.9349 27.0007 15.002 27.0007C13.069 27.0007 11.502 25.4337 11.502 23.5007C11.502 21.5677 13.069 20.0007 15.002 20.0007C16.9349 20.0007 18.502 21.5677 18.502 23.5007ZM17.0029 23.5007C17.0029 24.6053 16.1075 25.5007 15.0029 25.5007C13.8984 25.5007 13.0029 24.6053 13.0029 23.5007C13.0029 22.3961 13.8984 21.5007 15.0029 21.5007C16.1075 21.5007 17.0029 22.3961 17.0029 23.5007Z"/>
</mask>
<path fill-rule="evenodd" clip-rule="evenodd" d="M18.502 23.5007C18.502 25.4337 16.9349 27.0007 15.002 27.0007C13.069 27.0007 11.502 25.4337 11.502 23.5007C11.502 21.5677 13.069 20.0007 15.002 20.0007C16.9349 20.0007 18.502 21.5677 18.502 23.5007ZM17.0029 23.5007C17.0029 24.6053 16.1075 25.5007 15.0029 25.5007C13.8984 25.5007 13.0029 24.6053 13.0029 23.5007C13.0029 22.3961 13.8984 21.5007 15.0029 21.5007C16.1075 21.5007 17.0029 22.3961 17.0029 23.5007Z" fill="white"/>
<path d="M15.002 28.0007C17.4872 28.0007 19.502 25.986 19.502 23.5007H17.502C17.502 24.8814 16.3827 26.0007 15.002 26.0007V28.0007ZM10.502 23.5007C10.502 25.986 12.5167 28.0007 15.002 28.0007V26.0007C13.6212 26.0007 12.502 24.8814 12.502 23.5007H10.502ZM15.002 19.0007C12.5167 19.0007 10.502 21.0154 10.502 23.5007H12.502C12.502 22.12 13.6212 21.0007 15.002 21.0007V19.0007ZM19.502 23.5007C19.502 21.0154 17.4872 19.0007 15.002 19.0007V21.0007C16.3827 21.0007 17.502 22.12 17.502 23.5007H19.502ZM15.0029 26.5007C16.6598 26.5007 18.0029 25.1576 18.0029 23.5007H16.0029C16.0029 24.053 15.5552 24.5007 15.0029 24.5007V26.5007ZM12.0029 23.5007C12.0029 25.1576 13.3461 26.5007 15.0029 26.5007V24.5007C14.4506 24.5007 14.0029 24.053 14.0029 23.5007H12.0029ZM15.0029 20.5007C13.3461 20.5007 12.0029 21.8438 12.0029 23.5007H14.0029C14.0029 22.9484 14.4506 22.5007 15.0029 22.5007V20.5007ZM18.0029 23.5007C18.0029 21.8438 16.6598 20.5007 15.0029 20.5007V22.5007C15.5552 22.5007 16.0029 22.9484 16.0029 23.5007H18.0029Z" fill="white" mask="url(#path-5-inside-3)"/>
<mask id="path-7-inside-4" fill="white">
<path fill-rule="evenodd" clip-rule="evenodd" d="M27 15C27 16.933 25.433 18.5 23.5 18.5C21.567 18.5 20 16.933 20 15C20 13.067 21.567 11.5 23.5 11.5C25.433 11.5 27 13.067 27 15ZM25.501 15C25.501 16.1046 24.6055 17 23.501 17C22.3964 17 21.501 16.1046 21.501 15C21.501 13.8954 22.3964 13 23.501 13C24.6055 13 25.501 13.8954 25.501 15Z"/>
</mask>
<path fill-rule="evenodd" clip-rule="evenodd" d="M27 15C27 16.933 25.433 18.5 23.5 18.5C21.567 18.5 20 16.933 20 15C20 13.067 21.567 11.5 23.5 11.5C25.433 11.5 27 13.067 27 15ZM25.501 15C25.501 16.1046 24.6055 17 23.501 17C22.3964 17 21.501 16.1046 21.501 15C21.501 13.8954 22.3964 13 23.501 13C24.6055 13 25.501 13.8954 25.501 15Z" fill="white"/>
<path d="M23.5 19.5C25.9853 19.5 28 17.4853 28 15H26C26 16.3807 24.8807 17.5 23.5 17.5V19.5ZM19 15C19 17.4853 21.0147 19.5 23.5 19.5V17.5C22.1193 17.5 21 16.3807 21 15H19ZM23.5 10.5C21.0147 10.5 19 12.5147 19 15H21C21 13.6193 22.1193 12.5 23.5 12.5V10.5ZM28 15C28 12.5147 25.9853 10.5 23.5 10.5V12.5C24.8807 12.5 26 13.6193 26 15H28ZM23.501 18C25.1578 18 26.501 16.6569 26.501 15H24.501C24.501 15.5523 24.0533 16 23.501 16V18ZM20.501 15C20.501 16.6569 21.8441 18 23.501 18V16C22.9487 16 22.501 15.5523 22.501 15H20.501ZM23.501 12C21.8441 12 20.501 13.3431 20.501 15H22.501C22.501 14.4477 22.9487 14 23.501 14V12ZM26.501 15C26.501 13.3431 25.1578 12 23.501 12V14C24.0533 14 24.501 14.4477 24.501 15H26.501Z" fill="white" mask="url(#path-7-inside-4)"/>
<path fill-rule="evenodd" clip-rule="evenodd" d="M15.7875 8.33961L21.6619 14.2139C21.9 13.6575 22.3832 13.2308 22.9758 13.0698L16.9317 7.02573C16.7707 7.61831 16.344 8.10152 15.7875 8.33961ZM13.0713 22.9742C13.2324 22.3816 13.6591 21.8984 14.2156 21.6603L8.34116 15.7859C8.1031 16.3424 7.61991 16.7691 7.02734 16.9301L13.0713 22.9742ZM7.02737 13.0698C7.61994 13.2309 8.10312 13.6576 8.34117 14.2141L14.2154 8.33982C13.6589 8.10186 13.2321 7.61876 13.071 7.02624L7.02737 13.0698ZM16.9317 22.9743C16.7707 22.3817 16.3441 21.8985 15.7876 21.6604L21.6619 15.7861C21.9 16.3425 22.3832 16.7692 22.9758 16.9302L16.9317 22.9743Z" fill="white"/>
</svg>
