<?xml version="1.0" encoding="UTF-8"?>
<svg xmlns="http://www.w3.org/2000/svg" xmlns:xlink="http://www.w3.org/1999/xlink" width="30px" height="30px" viewBox="0 0 30 30" version="1.1">
<g id="surface1">
<path d="M 25.21875 1.222656 C 25.277344 1.269531 25.332031 1.316406 25.386719 1.363281 C 25.796875 1.714844 26.15625 1.894531 26.675781 2.039062 C 26.875 2.097656 27.042969 2.1875 27.160156 2.363281 C 27.183594 2.445312 27.183594 2.445312 27.183594 2.523438 C 27.0625 2.683594 26.894531 2.722656 26.703125 2.75 C 26.621094 2.753906 26.535156 2.753906 26.449219 2.753906 C 26.425781 2.753906 26.402344 2.753906 26.378906 2.753906 C 26.277344 2.75 26.175781 2.75 26.074219 2.75 C 25.3125 2.722656 25.3125 2.722656 24.613281 2.976562 C 24.597656 2.976562 24.582031 2.976562 24.566406 2.976562 C 24.554688 3.007812 24.539062 3.039062 24.523438 3.066406 C 24.515625 3.085938 24.507812 3.101562 24.5 3.117188 C 24.417969 3.289062 24.398438 3.464844 24.449219 3.648438 C 24.566406 3.921875 24.820312 4.15625 25.046875 4.339844 C 25.074219 4.363281 25.074219 4.363281 25.101562 4.386719 C 25.152344 4.429688 25.207031 4.472656 25.257812 4.515625 C 25.300781 4.550781 25.34375 4.585938 25.386719 4.621094 C 25.59375 4.792969 25.59375 4.792969 25.804688 4.957031 C 26.601562 5.570312 27.058594 6.324219 27.21875 7.3125 C 27.265625 7.71875 27.246094 8.164062 27.160156 8.566406 C 27.15625 8.589844 27.152344 8.609375 27.148438 8.628906 C 26.976562 9.425781 26.558594 10.140625 26.023438 10.75 C 26.003906 10.769531 25.988281 10.789062 25.96875 10.808594 C 25.789062 11.015625 25.597656 11.210938 25.386719 11.386719 C 25.355469 11.414062 25.355469 11.414062 25.324219 11.441406 C 24.878906 11.828125 24.386719 12.160156 23.875 12.453125 C 23.734375 12.535156 23.605469 12.613281 23.527344 12.761719 C 23.519531 12.78125 23.507812 12.796875 23.5 12.8125 C 23.453125 12.914062 23.449219 13.015625 23.445312 13.125 C 23.441406 13.160156 23.441406 13.195312 23.441406 13.230469 C 23.4375 13.246094 23.4375 13.265625 23.4375 13.285156 C 23.386719 14.355469 23.164062 15.425781 22.339844 16.183594 C 21.4375 16.957031 19.699219 17.121094 18.566406 17.335938 C 17.585938 17.523438 17.066406 18.027344 16.460938 18.800781 C 16.433594 18.839844 16.40625 18.875 16.375 18.914062 C 16.226562 19.101562 16.085938 19.296875 15.949219 19.492188 C 15.910156 19.546875 15.871094 19.597656 15.832031 19.652344 C 15.640625 19.914062 15.457031 20.175781 15.296875 20.453125 C 15.460938 20.410156 15.625 20.363281 15.785156 20.3125 C 15.832031 20.296875 15.882812 20.28125 15.929688 20.269531 C 15.953125 20.261719 15.980469 20.253906 16.003906 20.246094 C 16.144531 20.203125 16.28125 20.160156 16.421875 20.117188 C 16.4375 20.109375 16.453125 20.105469 16.46875 20.101562 C 17.367188 19.824219 18.265625 19.546875 19.167969 19.28125 C 19.191406 19.273438 19.21875 19.261719 19.25 19.253906 C 19.324219 19.234375 19.402344 19.210938 19.476562 19.1875 C 19.511719 19.175781 19.511719 19.175781 19.542969 19.167969 C 19.605469 19.148438 19.664062 19.132812 19.726562 19.113281 C 19.75 19.105469 19.769531 19.101562 19.792969 19.09375 C 19.816406 19.089844 19.835938 19.082031 19.859375 19.074219 C 19.878906 19.070312 19.898438 19.066406 19.917969 19.058594 C 20.023438 19.035156 20.128906 19.035156 20.238281 19.035156 C 20.273438 19.035156 20.273438 19.035156 20.304688 19.035156 C 20.636719 19.042969 20.878906 19.160156 21.105469 19.394531 C 21.21875 19.519531 21.304688 19.664062 21.394531 19.804688 C 21.417969 19.835938 21.441406 19.871094 21.460938 19.90625 C 21.519531 19.988281 21.574219 20.074219 21.628906 20.15625 C 21.675781 20.226562 21.722656 20.300781 21.769531 20.371094 C 21.914062 20.59375 22.058594 20.816406 22.203125 21.039062 C 22.210938 21.058594 22.222656 21.074219 22.234375 21.09375 C 22.351562 21.277344 22.433594 21.429688 22.394531 21.65625 C 22.359375 21.738281 22.324219 21.769531 22.25 21.816406 C 22.089844 21.871094 21.9375 21.847656 21.78125 21.78125 C 21.707031 21.738281 21.640625 21.6875 21.570312 21.628906 C 21.359375 21.457031 21.164062 21.421875 20.894531 21.40625 C 20.640625 21.386719 20.421875 21.324219 20.234375 21.144531 C 20.140625 21.023438 20.097656 20.871094 20.042969 20.726562 C 20.03125 20.699219 20.03125 20.699219 20.019531 20.667969 C 20.011719 20.648438 20.003906 20.628906 19.996094 20.609375 C 19.980469 20.5625 19.980469 20.5625 19.933594 20.546875 C 19.738281 20.527344 19.574219 20.558594 19.394531 20.617188 C 19.355469 20.628906 19.355469 20.628906 19.316406 20.640625 C 19.257812 20.660156 19.199219 20.679688 19.140625 20.695312 C 19.039062 20.730469 18.933594 20.761719 18.832031 20.792969 C 18.609375 20.859375 18.390625 20.929688 18.167969 20.996094 C 18.085938 21.023438 18.003906 21.046875 17.921875 21.074219 C 17.46875 21.214844 17.015625 21.355469 16.5625 21.5 C 16.382812 21.554688 16.203125 21.613281 16.023438 21.664062 C 15.65625 21.773438 15.316406 21.914062 14.976562 22.089844 C 14.925781 22.117188 14.871094 22.144531 14.816406 22.171875 C 14.773438 22.195312 14.734375 22.214844 14.691406 22.238281 C 14.472656 22.335938 14.257812 22.347656 14.03125 22.273438 C 13.835938 22.1875 13.679688 22.019531 13.59375 21.824219 C 13.441406 21.378906 13.589844 20.886719 13.78125 20.480469 C 13.816406 20.410156 13.851562 20.34375 13.886719 20.273438 C 13.898438 20.25 13.90625 20.230469 13.917969 20.207031 C 14.101562 19.839844 14.308594 19.488281 14.523438 19.136719 C 14.550781 19.089844 14.578125 19.042969 14.605469 19 C 14.773438 18.71875 14.949219 18.441406 15.128906 18.164062 C 15.160156 18.109375 15.195312 18.054688 15.226562 18 C 14.902344 18.117188 14.585938 18.25 14.273438 18.386719 C 14.246094 18.398438 14.222656 18.40625 14.195312 18.417969 C 13.878906 18.558594 13.609375 18.714844 13.34375 18.9375 C 13.261719 19.003906 13.179688 19.066406 13.097656 19.128906 C 12.941406 19.25 12.785156 19.371094 12.628906 19.492188 C 12.589844 19.523438 12.550781 19.550781 12.515625 19.582031 C 12.316406 19.738281 12.121094 19.894531 11.929688 20.054688 C 11.902344 20.078125 11.875 20.101562 11.847656 20.121094 C 11.714844 20.230469 11.636719 20.3125 11.589844 20.476562 C 11.425781 20.929688 11.175781 21.1875 10.746094 21.390625 C 10.300781 21.601562 10.035156 22.003906 9.757812 22.394531 C 9.679688 22.503906 9.601562 22.609375 9.523438 22.714844 C 9.417969 22.855469 9.316406 22.996094 9.214844 23.136719 C 9.101562 23.296875 8.984375 23.453125 8.867188 23.609375 C 8.777344 23.734375 8.691406 23.855469 8.601562 23.976562 C 8.488281 24.136719 8.371094 24.292969 8.253906 24.453125 C 8.164062 24.574219 8.078125 24.695312 7.988281 24.816406 C 7.820312 25.050781 7.652344 25.28125 7.484375 25.507812 C 7.441406 25.5625 7.402344 25.617188 7.363281 25.671875 C 7.347656 25.691406 7.335938 25.707031 7.320312 25.726562 C 7.246094 25.828125 7.171875 25.933594 7.09375 26.039062 C 6.945312 26.246094 6.789062 26.453125 6.632812 26.65625 C 6.566406 26.746094 6.5 26.832031 6.4375 26.921875 C 6.257812 27.160156 6.066406 27.386719 5.859375 27.605469 C 5.734375 27.738281 5.613281 27.875 5.5 28.023438 C 5.492188 28.035156 5.480469 28.046875 5.472656 28.058594 C 5.3125 28.269531 5.191406 28.492188 5.085938 28.730469 C 5.015625 28.882812 4.957031 28.972656 4.816406 29.066406 C 4.699219 29.082031 4.585938 29.089844 4.476562 29.03125 C 4.265625 28.769531 4.316406 28.324219 4.347656 28.007812 C 4.398438 27.65625 4.574219 27.328125 4.722656 27.011719 C 4.816406 26.804688 4.777344 26.589844 4.726562 26.375 C 4.675781 26.152344 4.628906 25.914062 4.75 25.703125 C 4.875 25.519531 5.027344 25.429688 5.246094 25.386719 C 5.328125 25.371094 5.410156 25.355469 5.492188 25.339844 C 5.957031 25.257812 6.242188 25.117188 6.519531 24.726562 C 6.566406 24.660156 6.613281 24.589844 6.660156 24.523438 C 6.679688 24.492188 6.699219 24.460938 6.722656 24.433594 C 6.75 24.390625 6.78125 24.34375 6.8125 24.300781 C 6.894531 24.179688 6.976562 24.0625 7.0625 23.941406 C 7.28125 23.628906 7.5 23.3125 7.71875 22.996094 C 7.851562 22.804688 7.984375 22.613281 8.117188 22.421875 C 8.199219 22.308594 8.277344 22.195312 8.359375 22.078125 C 8.425781 21.984375 8.492188 21.890625 8.558594 21.792969 C 8.625 21.699219 8.691406 21.605469 8.757812 21.511719 C 8.78125 21.472656 8.808594 21.433594 8.835938 21.394531 C 8.875 21.339844 8.917969 21.28125 8.957031 21.222656 C 8.96875 21.207031 8.980469 21.191406 8.992188 21.171875 C 9.105469 21.011719 9.199219 20.84375 9.25 20.652344 C 9.257812 20.628906 9.265625 20.601562 9.273438 20.578125 C 9.289062 20.527344 9.300781 20.476562 9.316406 20.425781 C 9.367188 20.253906 9.429688 20.105469 9.523438 19.953125 C 9.53125 19.941406 9.539062 19.925781 9.550781 19.910156 C 9.621094 19.800781 9.714844 19.71875 9.816406 19.636719 C 9.839844 19.617188 9.839844 19.617188 9.859375 19.597656 C 9.972656 19.503906 10.09375 19.4375 10.226562 19.375 C 10.441406 19.265625 10.617188 19.125 10.800781 18.96875 C 10.855469 18.917969 10.914062 18.871094 10.972656 18.824219 C 11.097656 18.722656 11.222656 18.617188 11.347656 18.511719 C 11.375 18.488281 11.398438 18.464844 11.425781 18.441406 C 11.585938 18.308594 11.746094 18.167969 11.898438 18.027344 C 11.945312 17.984375 11.996094 17.941406 12.042969 17.898438 C 12.558594 17.496094 12.558594 17.496094 12.90625 16.972656 C 12.875 16.871094 12.8125 16.828125 12.726562 16.773438 C 12.578125 16.703125 12.421875 16.65625 12.261719 16.613281 C 12.21875 16.601562 12.171875 16.585938 12.125 16.574219 C 12.089844 16.566406 12.089844 16.566406 12.054688 16.554688 C 10.148438 16.023438 10.148438 16.023438 9.339844 15.476562 C 8.789062 15.105469 8.1875 15.132812 7.554688 15.257812 C 7.050781 15.367188 6.609375 15.59375 6.1875 15.882812 C 5.933594 16.054688 5.648438 16.171875 5.339844 16.136719 C 5.160156 16.085938 4.996094 16 4.832031 15.910156 C 4.808594 15.894531 4.785156 15.882812 4.757812 15.871094 C 4.308594 15.621094 3.847656 15.363281 3.476562 15 C 3.460938 14.984375 3.441406 14.964844 3.421875 14.949219 C 3.191406 14.726562 3.09375 14.519531 3.082031 14.199219 C 3.074219 13.515625 3.34375 12.851562 3.796875 12.339844 C 3.808594 12.324219 3.820312 12.308594 3.832031 12.292969 C 4.03125 12.046875 4.3125 11.867188 4.589844 11.726562 C 4.605469 11.71875 4.621094 11.710938 4.636719 11.703125 C 5.75 11.144531 7.097656 11.136719 8.316406 11.050781 C 9.800781 10.945312 11.082031 10.648438 12.394531 9.925781 C 13.769531 9.171875 15.238281 8.695312 16.796875 8.5 C 16.816406 8.496094 16.835938 8.496094 16.859375 8.492188 C 17.160156 8.453125 17.464844 8.441406 17.773438 8.433594 C 17.792969 8.429688 17.8125 8.429688 17.832031 8.429688 C 19.152344 8.398438 20.402344 8.933594 21.621094 9.382812 C 22.257812 9.621094 22.257812 9.621094 22.910156 9.804688 C 22.929688 9.8125 22.953125 9.816406 22.976562 9.820312 C 23.222656 9.882812 23.457031 9.890625 23.710938 9.890625 C 23.726562 9.890625 23.746094 9.890625 23.761719 9.890625 C 24.386719 9.890625 24.949219 9.789062 25.410156 9.339844 C 25.4375 9.320312 25.464844 9.296875 25.496094 9.273438 C 25.855469 8.960938 26.003906 8.269531 26.046875 7.816406 C 26.078125 7.234375 25.972656 6.832031 25.578125 6.390625 C 25.539062 6.347656 25.5 6.304688 25.460938 6.261719 C 25.417969 6.214844 25.375 6.164062 25.332031 6.113281 C 25.179688 5.9375 25 5.792969 24.820312 5.648438 C 24.691406 5.542969 24.570312 5.433594 24.445312 5.328125 C 24.417969 5.300781 24.386719 5.277344 24.355469 5.25 C 24.210938 5.125 24.070312 4.996094 23.933594 4.863281 C 23.914062 4.847656 23.914062 4.847656 23.894531 4.828125 C 23.324219 4.292969 22.929688 3.570312 22.902344 2.777344 C 22.894531 2.25 22.96875 1.714844 23.316406 1.296875 C 23.332031 1.28125 23.34375 1.261719 23.359375 1.246094 C 23.839844 0.707031 24.691406 0.855469 25.21875 1.222656 Z M 25.21875 1.222656 " fill="#000" stroke="#000" />
</g>
</svg>
