<?xml version="1.0" encoding="utf-8"?>
<svg version="1.1" id="Ebene_1" xmlns="http://www.w3.org/2000/svg" xmlns:xlink="http://www.w3.org/1999/xlink" x="0px" y="0px"
	 width="30px" height="30px" viewBox="0 0 30 30" enable-background="new 0 0 30 30" xml:space="preserve">
<path d="M27.843,0.351c0.064,0.05,0.121,0.1,0.18,0.15c0.437,0.375,0.819,0.566,1.373,0.72c0.212,0.063,0.392,0.158,0.516,0.345
	c0.025,0.088,0.025,0.088,0.025,0.171c-0.13,0.171-0.308,0.212-0.511,0.242c-0.09,0.004-0.18,0.004-0.271,0.004
	c-0.025,0-0.051,0-0.076,0c-0.107-0.004-0.215-0.004-0.323-0.004c-0.811-0.029-0.811-0.029-1.559,0.242c-0.014,0-0.031,0-0.048,0
	c-0.013,0.033-0.028,0.065-0.045,0.096c-0.009,0.021-0.018,0.036-0.026,0.053c-0.088,0.184-0.107,0.372-0.055,0.566
	c0.126,0.292,0.396,0.541,0.638,0.737c0.029,0.025,0.029,0.025,0.058,0.05c0.055,0.046,0.112,0.092,0.167,0.137
	c0.045,0.039,0.092,0.075,0.138,0.112c0.22,0.184,0.22,0.184,0.445,0.358c0.85,0.653,1.336,1.457,1.506,2.51
	c0.051,0.433,0.029,0.908-0.063,1.336c-0.005,0.025-0.008,0.045-0.014,0.066c-0.182,0.849-0.628,1.611-1.197,2.26
	c-0.021,0.021-0.038,0.042-0.058,0.063c-0.192,0.221-0.396,0.429-0.62,0.616c-0.033,0.029-0.033,0.029-0.067,0.058
	c-0.475,0.412-0.998,0.766-1.544,1.078c-0.149,0.086-0.287,0.17-0.37,0.329c-0.008,0.02-0.021,0.037-0.03,0.053
	c-0.05,0.108-0.055,0.217-0.058,0.333c-0.005,0.038-0.005,0.075-0.005,0.113c-0.003,0.016-0.003,0.038-0.003,0.058
	c-0.054,1.14-0.291,2.281-1.17,3.089c-0.962,0.824-2.813,0.998-4.02,1.229c-1.046,0.2-1.599,0.735-2.244,1.56
	c-0.029,0.042-0.058,0.079-0.091,0.121c-0.158,0.199-0.309,0.408-0.454,0.615c-0.041,0.059-0.084,0.112-0.125,0.171
	c-0.203,0.279-0.4,0.558-0.57,0.854c0.175-0.047,0.351-0.096,0.521-0.15c0.049-0.016,0.104-0.033,0.153-0.045
	c0.025-0.009,0.056-0.018,0.078-0.025c0.15-0.046,0.297-0.091,0.446-0.137c0.016-0.008,0.033-0.014,0.049-0.017
	c0.957-0.297,1.916-0.592,2.876-0.875c0.025-0.009,0.055-0.021,0.088-0.028c0.079-0.022,0.162-0.048,0.242-0.07
	c0.036-0.014,0.036-0.014,0.069-0.021c0.067-0.022,0.13-0.038,0.195-0.06c0.025-0.009,0.046-0.013,0.071-0.02
	c0.025-0.006,0.048-0.014,0.07-0.022c0.022-0.004,0.044-0.008,0.063-0.016c0.112-0.026,0.226-0.026,0.342-0.026
	c0.037,0,0.037,0,0.069,0c0.355,0.009,0.613,0.136,0.854,0.383c0.12,0.134,0.211,0.288,0.308,0.438
	c0.025,0.033,0.051,0.07,0.071,0.108c0.062,0.087,0.12,0.18,0.178,0.266c0.05,0.076,0.101,0.155,0.15,0.229
	c0.154,0.238,0.308,0.476,0.462,0.713c0.008,0.021,0.021,0.038,0.033,0.059c0.125,0.195,0.213,0.357,0.171,0.599
	c-0.037,0.088-0.074,0.12-0.153,0.171c-0.171,0.059-0.334,0.033-0.5-0.037c-0.079-0.046-0.149-0.1-0.225-0.162
	c-0.225-0.183-0.433-0.221-0.721-0.237c-0.271-0.021-0.503-0.087-0.703-0.278c-0.101-0.13-0.146-0.293-0.204-0.445
	c-0.012-0.029-0.012-0.029-0.023-0.063c-0.01-0.021-0.018-0.043-0.025-0.063c-0.018-0.05-0.018-0.05-0.067-0.066
	c-0.208-0.021-0.383,0.014-0.575,0.075c-0.041,0.012-0.041,0.012-0.082,0.025c-0.063,0.02-0.126,0.041-0.188,0.059
	c-0.107,0.038-0.22,0.069-0.327,0.103c-0.237,0.071-0.47,0.147-0.709,0.216c-0.087,0.03-0.175,0.056-0.261,0.085
	c-0.483,0.149-0.966,0.3-1.448,0.453c-0.192,0.059-0.385,0.121-0.575,0.175c-0.392,0.116-0.753,0.267-1.114,0.453
	c-0.055,0.03-0.113,0.06-0.172,0.088c-0.045,0.024-0.087,0.046-0.133,0.071c-0.233,0.104-0.463,0.115-0.704,0.037
	c-0.208-0.092-0.373-0.27-0.465-0.479c-0.164-0.475-0.004-0.998,0.2-1.431c0.038-0.076,0.074-0.146,0.111-0.222
	c0.014-0.024,0.021-0.045,0.034-0.071c0.194-0.391,0.416-0.765,0.645-1.139c0.028-0.051,0.06-0.101,0.089-0.146
	c0.179-0.3,0.365-0.596,0.557-0.891c0.034-0.059,0.071-0.117,0.104-0.175c-0.345,0.125-0.682,0.266-1.016,0.411
	c-0.029,0.014-0.054,0.022-0.083,0.032c-0.339,0.152-0.625,0.318-0.908,0.556c-0.086,0.07-0.174,0.137-0.261,0.203
	c-0.167,0.129-0.333,0.259-0.5,0.387c-0.042,0.033-0.082,0.063-0.12,0.097c-0.213,0.166-0.42,0.332-0.625,0.502
	c-0.029,0.026-0.058,0.052-0.087,0.071c-0.141,0.117-0.225,0.204-0.274,0.38c-0.175,0.483-0.442,0.756-0.899,0.974
	c-0.475,0.224-0.757,0.653-1.053,1.069c-0.083,0.117-0.167,0.229-0.25,0.342c-0.113,0.148-0.221,0.3-0.329,0.448
	c-0.121,0.171-0.246,0.338-0.37,0.504c-0.096,0.134-0.188,0.263-0.283,0.392c-0.121,0.17-0.246,0.337-0.371,0.509
	c-0.096,0.128-0.188,0.257-0.283,0.387c-0.179,0.249-0.358,0.493-0.537,0.735c-0.046,0.059-0.087,0.118-0.129,0.175
	c-0.017,0.021-0.03,0.037-0.045,0.059c-0.08,0.109-0.159,0.221-0.242,0.333c-0.159,0.221-0.325,0.441-0.491,0.657
	c-0.071,0.096-0.142,0.188-0.208,0.283c-0.192,0.254-0.396,0.496-0.616,0.729c-0.133,0.142-0.262,0.287-0.383,0.444
	c-0.009,0.015-0.021,0.025-0.029,0.038c-0.171,0.225-0.3,0.463-0.412,0.717c-0.075,0.163-0.137,0.258-0.287,0.358
	c-0.125,0.016-0.246,0.022-0.362-0.039c-0.225-0.278-0.171-0.753-0.137-1.09c0.054-0.375,0.242-0.725,0.399-1.062
	c0.1-0.219,0.059-0.448,0.004-0.678c-0.054-0.237-0.104-0.492,0.026-0.717c0.133-0.195,0.295-0.29,0.528-0.336
	c0.088-0.017,0.175-0.034,0.262-0.051c0.495-0.087,0.8-0.237,1.095-0.653c0.049-0.07,0.1-0.146,0.15-0.216
	c0.021-0.035,0.041-0.067,0.066-0.097c0.028-0.045,0.063-0.095,0.096-0.142c0.087-0.128,0.174-0.252,0.267-0.382
	c0.233-0.333,0.466-0.671,0.699-1.007c0.142-0.204,0.283-0.409,0.424-0.613c0.088-0.118,0.171-0.241,0.258-0.365
	c0.071-0.102,0.142-0.199,0.212-0.306c0.07-0.099,0.142-0.198,0.212-0.299c0.024-0.041,0.054-0.082,0.083-0.125
	c0.042-0.057,0.087-0.119,0.128-0.182c0.013-0.018,0.025-0.035,0.038-0.054c0.121-0.172,0.221-0.352,0.275-0.555
	c0.008-0.025,0.017-0.054,0.024-0.079c0.017-0.054,0.029-0.107,0.046-0.162c0.054-0.184,0.121-0.342,0.221-0.503
	c0.009-0.012,0.017-0.029,0.029-0.046c0.075-0.117,0.175-0.204,0.283-0.291c0.025-0.022,0.025-0.022,0.047-0.043
	c0.12-0.099,0.25-0.17,0.391-0.236c0.229-0.117,0.416-0.267,0.611-0.434c0.058-0.055,0.122-0.103,0.183-0.154
	c0.133-0.107,0.267-0.221,0.399-0.333c0.03-0.024,0.054-0.049,0.083-0.074c0.17-0.142,0.341-0.291,0.503-0.441
	c0.05-0.046,0.105-0.092,0.154-0.137c0.549-0.429,0.549-0.429,0.919-0.986c-0.033-0.109-0.1-0.154-0.191-0.213
	c-0.157-0.074-0.324-0.125-0.495-0.17c-0.045-0.013-0.096-0.029-0.146-0.041c-0.036-0.01-0.036-0.01-0.075-0.021
	c-2.031-0.565-2.031-0.565-2.892-1.149c-0.586-0.395-1.229-0.367-1.902-0.233c-0.537,0.117-1.007,0.357-1.457,0.666
	c-0.27,0.184-0.574,0.309-0.903,0.271c-0.191-0.056-0.366-0.146-0.542-0.243c-0.025-0.017-0.05-0.028-0.079-0.041
	c-0.479-0.266-0.969-0.54-1.365-0.928c-0.016-0.017-0.037-0.038-0.059-0.055c-0.245-0.236-0.349-0.457-0.361-0.799
	c-0.009-0.728,0.278-1.436,0.761-1.981c0.013-0.016,0.025-0.033,0.037-0.05c0.212-0.262,0.513-0.453,0.808-0.604
	c0.017-0.008,0.033-0.017,0.05-0.025c1.186-0.596,2.622-0.604,3.92-0.695c1.582-0.113,2.946-0.429,4.345-1.198
	c1.465-0.804,3.029-1.311,4.69-1.519c0.021-0.004,0.041-0.004,0.066-0.009c0.321-0.041,0.646-0.054,0.973-0.063
	c0.022-0.004,0.043-0.004,0.063-0.004c1.407-0.033,2.739,0.537,4.037,1.016c0.678,0.253,0.678,0.253,1.373,0.449
	c0.021,0.008,0.048,0.012,0.07,0.017c0.264,0.067,0.513,0.075,0.783,0.075c0.018,0,0.038,0,0.054,0c0.667,0,1.266-0.108,1.757-0.586
	c0.03-0.021,0.059-0.046,0.092-0.071c0.383-0.333,0.541-1.069,0.587-1.553c0.033-0.62-0.079-1.048-0.499-1.519
	c-0.042-0.046-0.084-0.091-0.126-0.138c-0.046-0.049-0.091-0.104-0.137-0.158c-0.162-0.187-0.354-0.34-0.546-0.495
	c-0.137-0.112-0.266-0.229-0.399-0.341c-0.029-0.029-0.062-0.055-0.096-0.083c-0.153-0.133-0.304-0.27-0.448-0.412
	c-0.022-0.017-0.022-0.017-0.042-0.038c-0.608-0.57-1.028-1.339-1.057-2.184c-0.009-0.563,0.07-1.133,0.439-1.578
	c0.018-0.018,0.03-0.038,0.048-0.055C26.373-0.198,27.281-0.04,27.843,0.351z"/>
<g display="none">
	<path display="inline" d="M0.449,1.53c0.143-0.126,0.3-0.246,0.471-0.36s0.355-0.213,0.553-0.297
		c0.198-0.084,0.413-0.15,0.645-0.199C2.349,0.626,2.6,0.602,2.869,0.602c0.367,0,0.701,0.05,1.002,0.152
		C4.172,0.854,4.43,0.999,4.645,1.186S5.026,1.6,5.144,1.865c0.118,0.266,0.177,0.563,0.177,0.891c0,0.32-0.047,0.597-0.139,0.831
		C5.089,3.821,4.974,4.024,4.834,4.197C4.695,4.37,4.543,4.519,4.376,4.646S4.053,4.891,3.906,5.002
		C3.758,5.114,3.631,5.224,3.523,5.331S3.352,5.56,3.331,5.695L3.185,6.617H2.117L2.01,5.587C1.985,5.389,2.013,5.215,2.095,5.066
		s0.192-0.287,0.329-0.411c0.137-0.125,0.29-0.245,0.458-0.36s0.327-0.242,0.474-0.379c0.147-0.137,0.271-0.291,0.37-0.461
		c0.099-0.171,0.148-0.374,0.148-0.61c0-0.152-0.028-0.288-0.085-0.408c-0.057-0.12-0.136-0.223-0.237-0.31S3.33,1.975,3.188,1.929
		s-0.294-0.07-0.458-0.07c-0.24,0-0.443,0.026-0.61,0.079S1.813,2.05,1.697,2.115C1.581,2.18,1.483,2.239,1.403,2.292
		S1.251,2.371,1.188,2.371c-0.152,0-0.261-0.063-0.329-0.189L0.449,1.53z M1.644,8.98c0-0.13,0.024-0.255,0.073-0.373
		C1.765,8.49,1.831,8.389,1.915,8.304C2,8.22,2.101,8.153,2.218,8.102c0.118-0.05,0.245-0.076,0.379-0.076s0.26,0.025,0.376,0.076
		C3.089,8.153,3.19,8.22,3.277,8.304C3.363,8.389,3.432,8.49,3.482,8.607C3.533,8.726,3.558,8.85,3.558,8.98
		c0,0.135-0.025,0.26-0.076,0.376c-0.051,0.116-0.119,0.216-0.206,0.3C3.19,9.741,3.089,9.807,2.974,9.855
		C2.857,9.904,2.732,9.928,2.598,9.928S2.336,9.904,2.218,9.855C2.101,9.807,2,9.741,1.915,9.657c-0.084-0.084-0.15-0.185-0.199-0.3
		C1.667,9.241,1.644,9.115,1.644,8.98z"/>
</g>
<g display="none">
	<path display="inline" d="M8.724,9.652H7.03c-0.118,0-0.211-0.029-0.281-0.088C6.68,9.505,6.624,9.438,6.582,9.362L4.465,5.854
		C4.431,5.96,4.391,6.05,4.345,6.126L2.316,9.362C2.266,9.434,2.208,9.5,2.143,9.561c-0.065,0.062-0.15,0.092-0.256,0.092H0.301
		l3.033-4.701L0.421,0.515h1.693c0.118,0,0.203,0.016,0.256,0.047s0.102,0.083,0.148,0.155l2.079,3.349
		C4.64,3.961,4.69,3.856,4.749,3.75l1.909-3.001c0.046-0.08,0.097-0.139,0.151-0.177c0.055-0.038,0.125-0.057,0.208-0.057h1.624
		L5.704,4.881L8.724,9.652z"/>
</g>
<g>
	<path d="M6.395,0.615v6.854H5.741c-0.101,0-0.186-0.017-0.254-0.05S5.354,7.329,5.291,7.25L1.712,2.681
		C1.731,2.89,1.74,3.083,1.74,3.259v4.209H0.617V0.615h0.668c0.054,0,0.101,0.002,0.14,0.007C1.465,0.626,1.5,0.636,1.529,0.65
		c0.03,0.014,0.06,0.035,0.088,0.062s0.06,0.063,0.095,0.107l3.593,4.588c-0.01-0.111-0.018-0.22-0.024-0.327
		S5.271,4.873,5.271,4.781V0.615H6.395z"/>
	<path d="M8.551,7.482C8.498,7.628,8.411,7.737,8.293,7.81C8.174,7.882,8.054,7.918,7.93,7.918H7.433l2.768-7.081
		c0.05-0.132,0.128-0.234,0.232-0.306c0.104-0.071,0.226-0.106,0.365-0.106H11.3L8.551,7.482z"/>
	<path d="M17.651,7.468h-0.986c-0.11,0-0.2-0.028-0.27-0.083c-0.07-0.055-0.122-0.124-0.157-0.206l-0.512-1.398h-2.839l-0.512,1.398
		c-0.025,0.073-0.074,0.139-0.147,0.199s-0.163,0.09-0.27,0.09h-0.996l2.697-6.854h1.299L17.651,7.468z M15.4,4.88l-0.834-2.28
		c-0.041-0.101-0.083-0.221-0.128-0.36c-0.044-0.139-0.088-0.29-0.133-0.451c-0.041,0.161-0.083,0.313-0.128,0.453
		c-0.044,0.141-0.087,0.263-0.128,0.368L13.22,4.88H15.4z"/>
</g>
<path display="none" d="M11.667,0.445c-0.185,0.006-0.358,0.083-0.486,0.214L3.896,7.943l-2.331-2.33
	C1.294,5.332,0.846,5.323,0.564,5.593C0.282,5.864,0.273,6.312,0.543,6.594c0.007,0.007,0.014,0.014,0.021,0.02l2.831,2.831
	c0.277,0.277,0.725,0.277,1.001,0l7.785-7.785c0.28-0.272,0.287-0.721,0.015-1.001C12.056,0.517,11.865,0.439,11.667,0.445z"/>
</svg>
