<svg width="1025" height="1024" viewBox="0 0 1025 1024" fill="none" xmlns="http://www.w3.org/2000/svg">
<path d="M442.919 124.261C401.986 83.4822 335.506 83.9186 294.717 124.842L30.8216 389.662C-9.97271 430.591 -9.45367 495.902 31.4701 536.687L464.151 969.367C505.085 1010.14 571.432 1009.8 612.221 968.879L740.83 840.271C703.32 877.78 672.455 850.809 635.878 814.388L564.146 742.655C509.686 764.211 446.041 753.501 401.921 709.466L347.256 654.802C345.417 652.979 343.998 651.074 343.001 648.684C342.004 646.294 341.489 643.731 341.487 641.141C341.485 638.552 341.995 635.988 342.988 633.596C343.981 631.205 345.537 629.178 347.373 627.352L378.307 596.418L310.967 529.078C300.426 518.558 298.704 501.571 308.131 490.095C318.906 476.918 338.443 476.22 350.264 488.015L418.516 556.21L464.742 509.984L397.243 442.65C386.697 432.125 384.98 415.142 394.487 403.586C397.009 400.517 400.145 398.008 403.693 396.223C407.242 394.437 411.125 393.413 415.093 393.217C419.061 393.021 423.026 393.657 426.733 395.085C430.441 396.512 433.809 398.699 436.621 401.506L505.149 469.576L534.19 440.536C536.014 438.697 537.81 437.044 540.199 436.047C542.589 435.05 545.153 434.535 547.742 434.532C550.332 434.53 552.896 435.039 555.288 436.031C557.68 437.023 559.853 438.478 561.68 440.313L616.431 494.956C660.002 538.441 671.391 601.729 651.023 655.778L722.771 727.525C759.348 763.946 789.953 791.147 827.462 753.638L989.749 591.351C950.741 630.359 918.694 600.306 880.143 561.79L442.919 124.261Z"/>
<path d="M749.723 52.1091L611.773 189.949L918.286 496.462C947.625 525.676 973.122 548.957 1001.42 537.67C1017.78 531.146 1029.01 513.404 1022.73 496.95C876.067 112.101 876.008 112.095 856.552 70.0279C837.095 27.9606 782.376 19.0406 749.723 52.1091Z"/>
</svg>
