<?xml version="1.0" encoding="UTF-8"?>
<svg id="Layer_2" data-name="Layer 2" xmlns="http://www.w3.org/2000/svg" viewBox="0 0 123.28 100">
  <defs>
    <style>
      .cls-1 {
        stroke-width: 0px;
      }
    </style>
  </defs>
  <g id="Layer_1-2" data-name="Layer 1">
    <path class="cls-1" d="m71.52,0c-16.99,4.39-26.61,16.16-32.64,27.59L25.06,0h46.47Zm12.86,72.4c-6.02,11.43-15.65,23.21-32.64,27.59h46.47l-13.83-27.59ZM75.17.01h-.01S25.06,100,25.06,100h23.05L98.22.01h-23.05Zm25.81,5.51l-13.82,27.55,8.48,16.94-8.48,16.92,13.82,27.56,22.3-44.48L100.98,5.52Zm-64.87,27.55L22.3,5.52,0,50.02l22.29,44.48,13.82-27.56-8.48-16.92,8.48-16.95Z"/>
  </g>
</svg>