<svg width="934" height="328" viewBox="0 0 934 328" fill="#000" xmlns="http://www.w3.org/2000/svg">
<path d="M597.449 10.6638L518.929 89.4657C513.097 95.3191 513.097 104.787 518.929 110.641L543.767 135.568C549.629 141.451 559.156 141.451 565.018 135.568L597.449 103.021C603.311 97.1374 612.838 97.1374 618.7 103.021L837.577 322.685C840.392 325.509 844.215 327.097 848.203 327.097H897.878C911.229 327.097 917.927 310.967 908.504 301.51L618.7 10.6638C612.838 4.78055 603.311 4.78054 597.449 10.6638Z" fill="#000"/>
<path d="M369.552 323.155H320.332C306.916 323.155 300.248 306.89 309.802 297.472L365.172 242.893C371.012 237.137 380.392 237.137 386.232 242.893L410.842 267.152C416.802 273.027 416.802 282.642 410.842 288.517L380.082 318.838C377.275 321.604 373.493 323.155 369.552 323.155Z" fill="#000"/>
<path d="M312.55 10.6066L25.6066 297.55C16.1571 306.999 22.8496 323.156 36.2132 323.156H82.27C86.2483 323.156 90.0636 321.576 92.8766 318.763L312.55 99.0898C318.407 93.232 327.905 93.232 333.763 99.0898L553.436 318.763C556.249 321.576 560.064 323.156 564.042 323.156H610.099C623.463 323.156 630.155 306.999 620.706 297.55L333.763 10.6066C327.905 4.74874 318.407 4.74873 312.55 10.6066Z" fill="#000"/>
</svg>
