<?xml version="1.0" encoding="utf-8"?>
<!DOCTYPE svg PUBLIC "-//W3C//DTD SVG 1.1//EN" "http://www.w3.org/Graphics/SVG/1.1/DTD/svg11.dtd">
<svg version="1.1" xmlns="http://www.w3.org/2000/svg" xmlns:xlink="http://www.w3.org/1999/xlink" x="0px" y="0px"
	 width="37px" height="30px" viewBox="287.5 381 37 30" enable-background="new 287.5 381 37 30" xml:space="preserve">
<path d="M308.964,381c-5.097,1.316-7.983,4.848-9.792,8.277L295.026,381h13.941H308.964z M312.823,402.72 c-1.807,3.429-4.695,6.964-9.792,8.277h13.941L312.823,402.72L312.823,402.72z M310.06,381.003h-0.004l-15.03,29.998h6.915 l15.033-29.998H310.06z M317.802,382.656l-4.146,8.265l2.544,5.082l-2.544,5.076l4.146,8.269l6.69-13.345L317.802,382.656 L317.802,382.656z M298.341,390.921l-4.143-8.265l-6.69,13.35l6.687,13.344l4.146-8.267l-2.544-5.077L298.341,390.921 L298.341,390.921z"/>
</svg>