<?xml version="1.0" encoding="utf-8"?>
<!DOCTYPE svg PUBLIC "-//W3C//DTD SVG 1.1//EN" "http://www.w3.org/Graphics/SVG/1.1/DTD/svg11.dtd">
<svg version="1.1" id="Ebene_1" xmlns="http://www.w3.org/2000/svg" xmlns:xlink="http://www.w3.org/1999/xlink" x="0px" y="0px"
	 width="30px" height="30px" viewBox="0 0 30 30" enable-background="new 0 0 30 30" xml:space="preserve">
<g>
	<path fill="transparent" stroke="currentColor" stroke-width="0.5" stroke-miterlimit="10" d="M6.048,14.416
		c5.081-5.08,12.86-12.859,12.86-12.859s0.887-0.887,1.772,0l8.675,8.673c0,0,0.888,0.886,0,1.775
		c-1.085,1.084-2.762,2.761-4.629,4.627"/>
	<rect fill="currentColor" stroke="transparent" x="8.978" y="8.195" transform="matrix(-0.7071 0.7071 -0.7071 -0.7071 36.1039 4.4983)" width="16.285" height="3.063"/>
	<path fill="currentColor" stroke="transparent" d="M22.443,18.758c0.397,0,0.578-0.203,0.578-0.391c0-0.113-0.061-0.225-0.167-0.309c-0.101-0.082-0.295-0.175-0.629-0.175
		v-0.002h-1.097v0.876H22.443z"/>
	<path fill="currentColor" stroke="transparent" d="M22.226,17.441v0.003c0.323,0,0.438-0.236,0.438-0.438s-0.114-0.44-0.438-0.44h-1.097v0.875H22.226z"/>
	<path fill="currentColor" stroke="transparent" d="M23.736,13.995c0,0-16.844,0-22.458,0c-1.253,0-1.253,1.254-1.253,1.254v12.268c0,1.254,1.253,1.254,1.253,1.254
		s16.845,0,22.458,0c1.253,0,1.253-1.254,1.253-1.254V15.249C24.989,13.995,23.736,13.995,23.736,13.995z M20.91,15.47h0.437v0.658
		H20.91V15.47z M2.651,17.993h3.684v3.722H2.651V17.993z M21.855,24.773H3.435v-0.745h18.421V24.773z M22.006,16.13v-0.66h0.438
		v0.704c0.426,0.1,0.658,0.46,0.658,0.833c0,0.205-0.067,0.411-0.198,0.571c0.084,0.037,0.156,0.084,0.226,0.136
		c0.213,0.168,0.334,0.407,0.334,0.653c0,0.412-0.35,0.832-1.017,0.832l-0.003-0.002v0.657h-0.438v-0.657h-0.659v0.657H20.91v-0.657
		h-0.658v-0.439h0.438v-2.191h-0.438V16.13"/>
</g>
</svg>
