<svg class="svg-icon" style="width: 1em; height: 1em;vertical-align: middle;fill: currentColor;overflow: hidden;" viewBox="0 0 1024 1024" version="1.1" xmlns="http://www.w3.org/2000/svg"><path d="M619.085 285.768H400.596c-22.056 0-40-17.944-40-40v-81.995c0-22.056 17.944-40 40-40h218.488c22.056 0 40 17.944 40 40v81.995c0.001 22.056-17.944 40-39.999 40z m-198.489-60h178.488v-41.995H420.596v41.995z"  /><path d="M773.485 900.228h-522.97c-38.599 0-70-31.401-70-70V257.267c0-38.598 31.401-70 70-70h41.486c16.568 0 30 13.431 30 30 0 16.568-13.432 30-30 30h-41.486c-5.514 0-10 4.486-10 10v572.961c0 5.514 4.486 10 10 10h522.97c5.514 0 10-4.486 10-10V257.267c0-5.514-4.486-10-10-10h-45.806c-16.568 0-30-13.432-30-30 0-16.569 13.432-30 30-30h45.806c38.598 0 70 31.402 70 70v572.961c0 38.598-31.402 70-70 70z"  /><path d="M660.515 442.511h-297.03c-16.568 0-30-13.432-30-30s13.432-30 30-30h297.03c16.568 0 30 13.432 30 30s-13.431 30-30 30zM563.485 592.031h-200c-16.568 0-30-13.432-30-30s13.432-30 30-30h200c16.568 0 30 13.432 30 30s-13.432 30-30 30zM563.485 741.552h-200c-16.568 0-30-13.432-30-30s13.432-30 30-30h200c16.568 0 30 13.432 30 30s-13.432 30-30 30z"  /></svg>