<svg width="30" height="30" viewBox="0 0 30 30" fill="none" xmlns="http://www.w3.org/2000/svg">
<g clip-path="url(#clip0)">
<path fill-rule="evenodd" clip-rule="evenodd" d="M8.57715 25.1423C8.64255 25.8762 9.2512 26.4511 9.99237 26.4511H22.5789C23.3637 26.4511 23.9999 25.8065 23.9999 25.0111V7.04542C23.9999 6.29439 23.4325 5.67764 22.7084 5.61133C22.7123 5.65454 22.7142 5.6983 22.7142 5.74253V23.7083C22.7142 24.5036 22.078 25.1483 21.2931 25.1483H8.70669C8.66303 25.1483 8.61982 25.1463 8.57715 25.1423Z" fill="currentColor"/>
<path fill-rule="evenodd" clip-rule="evenodd" d="M6 4.44C6 3.64471 6.63623 3 7.42105 3H20.0075C20.7924 3 21.4286 3.64471 21.4286 4.44V22.4057C21.4286 23.201 20.7924 23.8457 20.0075 23.8457H7.42105C6.63623 23.8457 6 23.201 6 22.4057V4.44ZM10.2938 18.1223C9.74108 17.6935 9.74108 16.8687 10.2938 16.4399C11.242 15.7042 12.4278 15.2671 13.7143 15.2671C15.0007 15.2671 16.1865 15.7042 17.1347 16.4399C17.6874 16.8687 17.6874 17.6935 17.1347 18.1223C16.1865 18.858 15.0007 19.2951 13.7143 19.2951C12.4278 19.2951 11.242 18.858 10.2938 18.1223ZM13.7116 14.2587C15.1729 14.2587 16.3577 12.7571 16.3577 10.9046C16.3577 9.05222 15.1729 7.55055 13.7116 7.55055C12.2502 7.55055 11.0655 9.05222 11.0655 10.9046C11.0655 12.7571 12.2502 14.2587 13.7116 14.2587Z" fill="currentColor"/>
</g>
<defs>
<clipPath id="clip0">
<rect width="18" height="24" fill="white" transform="translate(6 3)"/>
</clipPath>
</defs>
</svg>

