<?xml version="1.0" encoding="UTF-8" standalone="no"?>
<svg
   width="30"
   height="30"
   viewBox="0 0 30 30"
   fill="none"
   data-darkreader-inline-fill="none"
   version="1.1"
   id="svg492"
   sodipodi:docname="POS.svg"
   inkscape:version="1.2 (dc2aedaf03, 2022-05-15)"
   xmlns:inkscape="http://www.inkscape.org/namespaces/inkscape"
   xmlns:sodipodi="http://sodipodi.sourceforge.net/DTD/sodipodi-0.dtd"
   xmlns="http://www.w3.org/2000/svg"
   xmlns:svg="http://www.w3.org/2000/svg">
  <defs
     id="defs496" />
  <sodipodi:namedview
     id="namedview494"
     pagecolor="#ffffff"
     bordercolor="#666666"
     borderopacity="1.0"
     inkscape:showpageshadow="2"
     inkscape:pageopacity="0.0"
     inkscape:pagecheckerboard="0"
     inkscape:deskcolor="#d1d1d1"
     showgrid="false"
     inkscape:zoom="27.812867"
     inkscape:cx="23.442388"
     inkscape:cy="18.768292"
     inkscape:window-width="2560"
     inkscape:window-height="1377"
     inkscape:window-x="-8"
     inkscape:window-y="-8"
     inkscape:window-maximized="1"
     inkscape:current-layer="svg492" />
  <path
     fill-rule="evenodd"
     d="m 4.4117645,3.5294118 c 0,-1.4619303 1.1851286,-2.64705891 2.6470589,-2.64705885 H 22.941177 c 1.46193,-1.1e-7 2.647059,1.18512855 2.647059,2.64705885 V 26.470588 c 0,1.46193 -1.185129,2.647059 -2.647059,2.647059 H 7.0588234 c -1.4619303,0 -2.647059,-1.185129 -2.6470589,-2.647059 z m 3.5294118,1.7647058 c 0,-0.4873102 0.3950431,-0.8823531 0.8823533,-0.8823529 H 21.176471 c 0.48731,0 0.882353,0.3950428 0.882353,0.8823529 v 7.9411764 c 0,0.48731 -0.395043,0.882353 -0.882353,0.882353 H 8.8235296 c -0.4873102,0 -0.8823533,-0.395043 -0.8823533,-0.882353 z M 8.8235296,24.024 c -1.1764701,3.54e-4 -1.1764701,1.564589 0,1.564235 L 10.388,25.587764 c 1.17647,-3.53e-4 1.17647,-1.564588 0,-1.564234 z m 9.9062944,0.681882 c -1e-6,-0.48731 0.395042,-0.681882 0.882353,-0.681882 h 1.564294 c 1.17647,0 1.17647,1.564235 0,1.564235 h -1.564294 c -0.487311,0 -0.882354,-0.395043 -0.882353,-0.882353 z M 14.217177,24.02353 c -1.176471,-3.54e-4 -1.176471,1.563881 0,1.564234 l 1.564823,4.71e-4 c 1.17647,3.54e-4 1.17647,-1.563881 0,-1.564235 z M 7.9411763,21.176471 c 0,-0.48731 0.3950431,-0.782324 0.8823533,-0.782471 L 10.388,20.393529 c 1.17647,-3.53e-4 1.17647,1.564647 0,1.565 L 8.8235296,21.959 C 8.3362194,21.959147 7.9411763,21.663781 7.9411763,21.176471 Z M 19.612177,20.394 c -1.176471,0 -1.176471,1.565 0,1.565 h 1.564294 c 1.17647,0 1.17647,-1.565 0,-1.565 z m -6.277354,0.782 c 0,-0.48731 0.395043,-0.782617 0.882353,-0.782471 L 15.782,20.394 c 1.17647,3.54e-4 1.17647,1.565354 0,1.565 l -1.564824,-4.71e-4 C 13.729866,21.958383 13.334823,21.663311 13.334823,21.176 Z M 8.8235296,16.764706 c -1.17647,3.54e-4 -1.17647,1.564648 0,1.564294 L 10.388,18.328529 c 1.17647,-3.53e-4 1.17647,-1.564647 0,-1.564294 z m 9.9062944,0.882353 c -1e-6,-0.48731 0.395042,-0.882353 0.882353,-0.882353 h 1.564294 c 1.17647,0 1.17647,1.564294 0,1.564294 h -1.564294 c -0.487311,0 -0.882354,-0.194631 -0.882353,-0.681941 z m -4.512647,-0.882824 c -1.176471,-3.53e-4 -1.176471,1.563941 0,1.564294 L 15.782,18.329 c 1.17647,3.54e-4 1.17647,-1.56394 0,-1.564294 z"
     clip-rule="evenodd"
     id="path490"
     style="display:inline;fill:none;fill-opacity:1;stroke:#ffffff;stroke-width:1.76471;stroke-dasharray:none;stroke-opacity:1"
     sodipodi:nodetypes="sssssssssscsssscsssssssssssssssssssssssssssssssssssssssssssssssssss" />
</svg>
