<svg xmlns="http://www.w3.org/2000/svg" width="24" height="24" viewBox="0 0 24 24" fill="none" data-darkreader-inline-fill="none"><path fill-rule="evenodd" d="M6 5.5A1.5 1.5 0 017.5 4h9A1.5 1.5 0 0118 5.5v13a1.5 1.5 0 01-1.5 1.5h-9A1.5 1.5 0 016 18.5v-13zm2 1a.5.5 0 01.5-.5h7a.5.5 0 01.5.5V11a.5.5 0 01-.5.5h-7A.5.5 0 018 11V6.5zM8.5 17a.5.5 0 000 1h1a.5.5 0 000-1h-1zm5.5.5a.5.5 0 01.5-.5h1a.5.5 0 010 1h-1a.5.5 0 01-.5-.5zm-2.5-.5a.5.5 0 000 1h1a.5.5 0 000-1h-1zM8 15.5a.5.5 0 01.5-.5h1a.5.5 0 010 1h-1a.5.5 0 01-.5-.5zm6.5-.5a.5.5 0 000 1h1a.5.5 0 000-1h-1zm-3.5.5a.5.5 0 01.5-.5h1a.5.5 0 010 1h-1a.5.5 0 01-.5-.5zM8.5 13a.5.5 0 000 1h1a.5.5 0 000-1h-1zm5.5.5a.5.5 0 01.5-.5h1a.5.5 0 010 1h-1a.5.5 0 01-.5-.5zm-2.5-.5a.5.5 0 000 1h1a.5.5 0 000-1h-1z" clip-rule="evenodd"></path></svg>