<?xml version="1.0" encoding="utf-8"?>
<!-- Uploaded to: SVG Repo, www.svgrepo.com, Generator: SVG Repo Mixer Tools -->
<svg fill="#000000" height="800px" width="800px" version="1.2" baseProfile="tiny" id="Layer_1" xmlns="http://www.w3.org/2000/svg" xmlns:xlink="http://www.w3.org/1999/xlink"
	  viewBox="0 0 256 214.5" xml:space="preserve">
  <g transform="translate(256.0, 0) scale(-1, 1)">
<path d="M233.7,140.3c0-0.5,0-1,0-1.6c0-35.3-29.3-63.6-65.4-63.6c-0.8,0-13,0-28.6-0.3c-1.6,1-3.1,1.8-4.7,2.6
	c-13,7.5-26.5,13.5-38.7,17.4c-0.8-1.6-1.6-2.9-2.3-4.2c11.7-3.4,25.2-9.3,38.7-17.1c35-20,57.9-45.7,50.9-57.6
	c-6.7-11.7-40.5-5.2-75.3,15.1C84.5,44.8,66.3,61.4,59.5,74.2c-2.9,0.3-5.7,1-8.6,1.8c-5.5,1.3-11.2,3.4-16.6,6.2
	C7.6,96.5-5.4,124,5.3,144c8,15.3,27.8,21.5,48.3,17.4l0.5,1c-1.3,1.8-2.3,3.9-3.1,6c-16.9,1.8-30.1,16.1-30.1,33.5l1.8-1.8
	l-2.1,2.6l26.5-0.3H105c0-19.7,16.4-36.1,36.1-36.1v4.7c-17.4,0-31.4,14-31.4,31.1h5.7h55l0,0c19.2-0.8,36.3-9.3,47.8-22.8
	c3.6,2.9,8.3,4.7,13.5,4.7c12.2,0,22.1-9.9,22.1-22.1C254,150.5,245.1,141.1,233.7,140.3z M52.8,113.1c-5.5,0-9.9-4.4-9.9-9.9
	c0-5.5,4.4-9.9,9.9-9.9s9.9,4.4,9.9,9.9C62.7,108.7,58.2,113.1,52.8,113.1z"/>
  </g>
</svg>