<svg width="38" height="38" viewBox="0 0 38 38" fill="none" xmlns="http://www.w3.org/2000/svg">
<path d="M1.72016 13.38H10.0402C10.7202 13.38 11.2702 13.93 11.2702 14.61V22.77C11.2702 23.45 10.7202 24 10.0402 24H1.72016C1.04016 24 0.490158 23.45 0.490158 22.77V14.61C0.490158 13.93 1.04016 13.38 1.72016 13.38ZM14.7302 13.38H23.2102C23.8902 13.38 24.4402 13.93 24.4402 14.61V22.77C24.4402 23.45 23.8902 24 23.2102 24H14.7302C14.0502 24 13.5002 23.45 13.5002 22.77V14.61C13.5002 13.93 14.0502 13.38 14.7302 13.38ZM27.7602 13.38H36.2302C36.9102 13.38 37.4602 13.93 37.4602 14.61V22.77C37.4602 23.45 36.9102 24 36.2302 24H27.7602C27.0802 24 26.5302 23.45 26.5302 22.77V14.61C26.5302 13.93 27.0802 13.38 27.7602 13.38ZM27.7602 0.410034H36.2302C36.9102 0.410034 37.4602 0.960034 37.4602 1.64003V9.80003C37.4602 10.48 36.9102 11.03 36.2302 11.03H27.7602C27.0802 11.03 26.5302 10.48 26.5302 9.80003V1.64003C26.5302 0.960034 27.0802 0.410034 27.7602 0.410034ZM27.7602 26.36H36.2302C36.9102 26.36 37.4602 26.91 37.4602 27.59V35.75C37.4602 36.43 36.9102 36.98 36.2302 36.98H27.7602C27.0802 36.98 26.5302 36.43 26.5302 35.75V27.59C26.5302 26.9 27.0802 26.36 27.7602 26.36ZM14.7402 0.410034H23.2002C23.8802 0.410034 24.4302 0.960034 24.4302 1.64003V9.80003C24.4302 10.48 23.8802 11.03 23.2002 11.03H14.7302C14.0502 11.03 13.5002 10.48 13.5002 9.80003V1.64003C13.5102 0.960034 14.0602 0.410034 14.7402 0.410034ZM14.7402 26.36H23.2002C23.8802 26.36 24.4302 26.91 24.4302 27.59V35.74C24.4302 36.42 23.8802 36.97 23.2002 36.97H14.7402C14.0602 36.97 13.5102 36.42 13.5102 35.74V27.59C13.5102 26.91 14.0602 26.36 14.7402 26.36ZM1.64016 0.410034H10.1102C10.7902 0.410034 11.3402 0.960034 11.3402 1.64003V9.80003C11.3402 10.48 10.7902 11.03 10.1102 11.03H1.64016C0.960156 11.03 0.410156 10.48 0.410156 9.80003V1.64003C0.410156 0.960034 0.960156 0.410034 1.64016 0.410034Z" fill="#000"/>
<path d="M37.86 1.64V9.8C37.86 10.7 37.13 11.44 36.22 11.44H27.75C26.85 11.44 26.11 10.71 26.11 9.8V1.64C26.11 0.739999 26.84 0 27.75 0H36.22C37.13 0 37.86 0.729999 37.86 1.64ZM26.94 9.8C26.94 10.25 27.31 10.62 27.76 10.62H36.23C36.68 10.62 37.05 10.25 37.05 9.8V1.64C37.05 1.19 36.68 0.82 36.23 0.82H27.76C27.31 0.82 26.94 1.19 26.94 1.64V9.8ZM37.86 14.61V22.77C37.86 23.67 37.13 24.41 36.22 24.41H27.75C26.85 24.41 26.11 23.68 26.11 22.77V14.61C26.11 13.71 26.84 12.97 27.75 12.97H36.22C37.13 12.97 37.86 13.71 37.86 14.61ZM26.94 22.77C26.94 23.22 27.31 23.59 27.76 23.59H36.23C36.68 23.59 37.05 23.22 37.05 22.77V14.61C37.05 14.16 36.68 13.79 36.23 13.79H27.76C27.31 13.79 26.94 14.16 26.94 14.61V22.77ZM37.86 27.58V35.73C37.86 36.63 37.13 37.37 36.22 37.37H27.75C26.85 37.37 26.11 36.64 26.11 35.73V27.58C26.11 26.68 26.84 25.94 27.75 25.94H36.22C37.13 25.94 37.86 26.68 37.86 27.58ZM26.94 35.74C26.94 36.19 27.31 36.56 27.76 36.56H36.23C36.68 36.56 37.05 36.19 37.05 35.74V27.59C37.05 27.14 36.68 26.77 36.23 26.77H27.76C27.31 26.77 26.94 27.14 26.94 27.59V35.74ZM24.85 14.61V22.77C24.85 23.67 24.12 24.41 23.21 24.41H14.73C13.83 24.41 13.09 23.68 13.09 22.77V14.61C13.09 13.71 13.82 12.97 14.73 12.97H23.21C24.11 12.97 24.85 13.71 24.85 14.61ZM13.92 22.77C13.92 23.22 14.29 23.59 14.74 23.59H23.22C23.67 23.59 24.04 23.22 24.04 22.77V14.61C24.04 14.16 23.67 13.79 23.22 13.79H14.74C14.29 13.79 13.92 14.16 13.92 14.61V22.77ZM24.84 1.64V9.8C24.84 10.7 24.11 11.44 23.2 11.44H14.73C13.83 11.44 13.09 10.71 13.09 9.8V1.64C13.09 0.739999 13.82 0 14.73 0H23.2C24.11 0 24.84 0.729999 24.84 1.64ZM13.92 9.8C13.92 10.25 14.29 10.62 14.74 10.62H23.2C23.65 10.62 24.02 10.25 24.02 9.8V1.64C24.02 1.19 23.65 0.82 23.2 0.82H14.73C14.28 0.82 13.91 1.19 13.91 1.64V9.8H13.92ZM24.84 27.59V35.74C24.84 36.64 24.11 37.38 23.2 37.38H14.74C13.84 37.38 13.1 36.65 13.1 35.74V27.59C13.1 26.69 13.83 25.95 14.74 25.95H23.2C24.11 25.95 24.84 26.68 24.84 27.59ZM13.92 35.74C13.92 36.19 14.29 36.56 14.74 36.56H23.2C23.65 36.56 24.02 36.19 24.02 35.74V27.59C24.02 27.14 23.65 26.77 23.2 26.77H14.74C14.29 26.77 13.92 27.14 13.92 27.59V35.74ZM11.75 1.64V9.8C11.75 10.7 11.02 11.44 10.11 11.44H1.64C0.739999 11.44 0 10.71 0 9.8V1.64C0 0.739999 0.729999 0 1.64 0H10.11C11.01 0 11.75 0.729999 11.75 1.64ZM0.830002 9.8C0.830002 10.25 1.2 10.62 1.65 10.62H10.12C10.57 10.62 10.94 10.25 10.94 9.8V1.64C10.94 1.19 10.57 0.82 10.12 0.82H1.65C1.2 0.82 0.830002 1.19 0.830002 1.64V9.8ZM11.67 14.61V22.77C11.67 23.67 10.94 24.41 10.03 24.41H1.71C0.809999 24.41 0.0699997 23.68 0.0699997 22.77V14.61C0.0699997 13.71 0.799999 12.97 1.71 12.97H10.03C10.94 12.97 11.67 13.71 11.67 14.61ZM0.900002 22.77C0.900002 23.22 1.27 23.59 1.72 23.59H10.04C10.49 23.59 10.86 23.22 10.86 22.77V14.61C10.86 14.16 10.49 13.79 10.04 13.79H1.72C1.27 13.79 0.900002 14.16 0.900002 14.61V22.77Z" fill="#000"/>
</svg>
