<?xml version="1.0" encoding="UTF-8" standalone="no"?>
<svg
   width="30"
   height="30"
   viewBox="0 0 30 30"
   version="1.1"
   id="svg314"
   sodipodi:docname="Scan.svg"
   inkscape:version="1.2 (dc2aedaf03, 2022-05-15)"
   xmlns:inkscape="http://www.inkscape.org/namespaces/inkscape"
   xmlns:sodipodi="http://sodipodi.sourceforge.net/DTD/sodipodi-0.dtd"
   xmlns="http://www.w3.org/2000/svg"
   xmlns:svg="http://www.w3.org/2000/svg">
  <defs
     id="defs318" />
  <sodipodi:namedview
     id="namedview316"
     pagecolor="#ffffff"
     bordercolor="#666666"
     borderopacity="1.0"
     inkscape:showpageshadow="2"
     inkscape:pageopacity="0.0"
     inkscape:pagecheckerboard="0"
     inkscape:deskcolor="#d1d1d1"
     showgrid="false"
     inkscape:lockguides="false"
     inkscape:zoom="32.017795"
     inkscape:cx="25.860619"
     inkscape:cy="13.024007"
     inkscape:window-width="2560"
     inkscape:window-height="1377"
     inkscape:window-x="-8"
     inkscape:window-y="-8"
     inkscape:window-maximized="1"
     inkscape:current-layer="svg314" />
  <g
     id="surface1"
     transform="matrix(1.1998113,0,0,1.1994378,0,0.00937061)">
    <path
       d="m 24.042969,16.347656 c -0.535157,0 -0.964844,0.429688 -0.964844,0.964844 v 3.363281 c 0,0.332031 -0.0625,0.644531 -0.1875,0.9375 -0.183594,0.429688 -0.488281,0.796875 -0.871094,1.054688 -0.195312,0.132812 -0.40625,0.234375 -0.632812,0.304687 -0.226563,0.06641 -0.460938,0.105469 -0.710938,0.105469 H 17.3125 c -0.535156,0 -0.964844,0.429687 -0.964844,0.964844 0,0.53125 0.429688,0.957031 0.964844,0.957031 h 3.363281 c 0.59375,0 1.164063,-0.125 1.679688,-0.339844 0.78125,-0.332031 1.4375,-0.882812 1.910156,-1.570312 0.234375,-0.34375 0.414063,-0.726563 0.542969,-1.132813 0.125,-0.40625 0.195312,-0.839843 0.195312,-1.28125 v -3.367187 c 0.0039,-0.53125 -0.425781,-0.960938 -0.960937,-0.960938 z m 0,0"
       id="path305" />
    <path
       d="m 17.3125,1.921875 h 3.363281 c 0.332031,0 0.644531,0.0625 0.9375,0.1875 0.429688,0.183594 0.796875,0.488281 1.054688,0.871094 0.132812,0.195312 0.234375,0.40625 0.304687,0.632812 0.06641,0.226563 0.105469,0.460938 0.105469,0.710938 V 7.6875 c 0,0.535156 0.429687,0.964844 0.964844,0.964844 C 24.574219,8.652344 25,8.222656 25,7.6875 V 4.324219 C 25,3.730469 24.875,3.15625 24.660156,2.640625 24.328125,1.863281 23.777344,1.203125 23.089844,0.734375 22.746094,0.5 22.363281,0.316406 21.957031,0.1875 c -0.40625,-0.125 -0.839843,-0.1953125 -1.28125,-0.1953125 h -3.367187 c -0.53125,0 -0.960938,0.4296875 -0.960938,0.9648435 0,0.535157 0.429688,0.964844 0.964844,0.964844 z m 0,0"
       id="path307" />
    <path
       d="M 7.6875,23.074219 H 4.324219 c -0.335938,0 -0.644531,-0.06641 -0.9375,-0.1875 C 2.957031,22.707031 2.589844,22.398438 2.328125,22.011719 2.199219,21.824219 2.09375,21.609375 2.023438,21.382812 1.957031,21.160156 1.917969,20.917969 1.917969,20.671875 v -3.367187 c 0,-0.53125 -0.429688,-0.960938 -0.960938,-0.960938 C 0.421875,16.339844 0,16.777344 0,17.3125 v 3.363281 c 0,0.59375 0.125,1.164063 0.339844,1.679688 0.332031,0.78125 0.882812,1.4375 1.566406,1.910156 0.347656,0.234375 0.730469,0.414063 1.132812,0.542969 0.410157,0.125 0.839844,0.195312 1.285157,0.195312 H 7.6875 c 0.535156,0 0.964844,-0.429687 0.964844,-0.960937 0,-0.539063 -0.429688,-0.96875 -0.964844,-0.96875 z m 0,0"
       id="path309" />
    <path
       d="M 7.6875,0 H 4.324219 C 3.730469,0 3.15625,0.125 2.644531,0.339844 1.863281,0.671875 1.207031,1.222656 0.738281,1.90625 0.507812,2.253906 0.324219,2.632812 0.195312,3.039062 0.0664062,3.449219 0,3.878906 0,4.324219 V 7.6875 c 0,0.535156 0.429688,0.964844 0.964844,0.964844 0.53125,0 0.960937,-0.429688 0.960937,-0.964844 V 4.324219 c 0,-0.335938 0.066407,-0.644531 0.191407,-0.9375 C 2.292969,2.957031 2.605469,2.589844 2.988281,2.328125 3.175781,2.199219 3.386719,2.097656 3.613281,2.03125 3.839844,1.964844 4.074219,1.925781 4.324219,1.925781 H 7.6875 c 0.535156,0 0.964844,-0.429687 0.964844,-0.960937 C 8.652344,0.429688 8.222656,0 7.6875,0 Z m 0,0"
       id="path311" />
  </g>
</svg>
