<svg width="30" height="30" viewBox="0 0 24 24" fill="#000" xmlns="http://www.w3.org/2000/svg">
<g clip-path="url(#clip0_408_13811)">
<path d="M21.848 0.000896693V0L20.6267 0.00179339H20.3343L13.3419 0.0125537L15.9925 3.6343L20.3487 3.65761L20.3657 8.00837L23.9875 10.659L24 2.15206V0L21.848 0.000896693Z" fill="#000"/>
<path d="M0.000896693 2.15206H0L0.00179339 3.37336V3.66568L0.0125537 10.659L3.6343 8.00837L3.65761 3.65134L8.00837 3.6343L10.659 0.0125537L2.15206 0H0L0.000896693 2.15206Z" fill="#000"/>
<path d="M21.848 23.9991V24L20.6267 23.9982H20.3343L13.3419 23.9875L15.9925 20.3657L20.3487 20.3424L20.3657 15.9925L23.9875 13.3419L24 21.848V24L21.848 23.9991Z" fill="#000"/>
<path d="M0.000896693 21.848H0L0.00179339 20.6267V20.3343L0.0125537 13.3419L3.6343 15.9916L3.65761 20.3487L8.00837 20.3657L10.659 23.9875L2.15206 24H0L0.000896693 21.848Z" fill="#000"/>
</g>
<defs>
<clipPath id="clip0_408_13811">
<rect width="30" height="30" fill="#000"/>
</clipPath>
</defs>
</svg>
