<svg xmlns="http://www.w3.org/2000/svg" xmlns:xlink="http://www.w3.org/1999/xlink" version="1.1" x="0px" y="0px" viewBox="0 0 16 20" style="enable-background:new 0 0 16 16;" xml:space="preserve"><g><path d="M10.5,15h-9C1.224,15,1,14.776,1,14.5v-9C1,5.224,1.224,5,1.5,5h9C10.776,5,11,5.224,11,5.5v9C11,14.776,10.776,15,10.5,15   z M2,14h8V6H2V14z"/><path d="M12.5,13c-0.276,0-0.5-0.224-0.5-0.5V4H3.5C3.224,4,3,3.776,3,3.5S3.224,3,3.5,3h9C12.776,3,13,3.224,13,3.5v9   C13,12.776,12.776,13,12.5,13z"/><path d="M14.5,11c-0.276,0-0.5-0.224-0.5-0.5V2H5.5C5.224,2,5,1.776,5,1.5S5.224,1,5.5,1h9C14.776,1,15,1.224,15,1.5v9   C15,10.776,14.776,11,14.5,11z"/></g><text x="0" y="31" fill="#000000" font-size="5px" font-weight="bold" font-family="'Helvetica Neue', Helvetica, Arial-Unicode, Arial, Sans-serif">Created by icon 54</text><text x="0" y="36" fill="#000000" font-size="5px" font-weight="bold" font-family="'Helvetica Neue', Helvetica, Arial-Unicode, Arial, Sans-serif">from the Noun Project</text></svg>