<?xml version="1.0" encoding="utf-8"?>
<!DOCTYPE svg PUBLIC "-//W3C//DTD SVG 1.1//EN" "http://www.w3.org/Graphics/SVG/1.1/DTD/svg11.dtd">
<svg version="1.1" id="Ebene_1" xmlns="http://www.w3.org/2000/svg" xmlns:xlink="http://www.w3.org/1999/xlink" x="0px" y="0px"
	 width="23.653px" height="19px" viewBox="0 0 23.653 19" enable-background="new 0 0 23.653 19" xml:space="preserve">
<g>
	<path d="M4.772,18.949c-0.318,0-0.637-0.121-0.88-0.364l-3.528-3.528c-0.486-0.486-0.486-1.273,0-1.76
		c0.486-0.486,1.273-0.486,1.76,0l3.527,3.528c0.486,0.486,0.486,1.273,0,1.76C5.409,18.828,5.09,18.949,4.772,18.949z"/>
	<path d="M1.244,15.421c-0.318,0-0.637-0.121-0.88-0.364c-0.486-0.486-0.486-1.273,0-1.76l3.528-3.526
		c0.486-0.486,1.273-0.486,1.759,0c0.486,0.486,0.486,1.273,0,1.76l-3.527,3.526C1.881,15.3,1.563,15.421,1.244,15.421z"/>
	<path d="M10.651,15.421H1.244C0.557,15.421,0,14.864,0,14.177s0.557-1.244,1.244-1.244h9.407c1.26,0,2.283-1.023,2.283-2.282V9.475
		c0-0.687,0.557-1.244,1.244-1.244c0.688,0,1.244,0.557,1.244,1.244v1.175C15.423,13.28,13.282,15.421,10.651,15.421z"/>
	<path d="M9.475,10.72c-0.687,0-1.244-0.557-1.244-1.245V8.3c0-2.632,2.14-4.772,4.771-4.772h9.407c0.688,0,1.244,0.557,1.244,1.244
		s-0.556,1.244-1.244,1.244h-9.407c-1.259,0-2.282,1.025-2.282,2.284v1.175C10.72,10.163,10.162,10.72,9.475,10.72z"/>
	<path d="M18.883,9.543c-0.318,0-0.637-0.121-0.88-0.364c-0.486-0.485-0.486-1.273,0-1.759l3.527-3.528
		c0.485-0.486,1.272-0.486,1.759,0c0.486,0.485,0.486,1.273,0,1.759l-3.527,3.528C19.52,9.422,19.201,9.543,18.883,9.543z"/>
	<path d="M22.409,6.016c-0.318,0-0.637-0.122-0.879-0.365l-3.527-3.527c-0.486-0.486-0.486-1.273,0-1.76
		c0.485-0.486,1.273-0.486,1.759,0l3.527,3.527c0.486,0.486,0.486,1.273,0,1.759C23.046,5.894,22.728,6.016,22.409,6.016z"/>
</g>
</svg>
