<?xml version="1.0" encoding="UTF-8" standalone="no"?>
<svg
   width="30"
   height="22"
   viewBox="0 0 30 22"
   fill="#000000"
   version="1.1"
   xmlns="http://www.w3.org/2000/svg"
   xmlns:svg="http://www.w3.org/2000/svg">
  <path
     fill-rule="evenodd"
     d="m 6.0354881,7.3142279 a 1.25,1.25 0 0 1 0.8833333,1.53 8.3333333,8.3333333 0 0 0 12.2166666,9.3733341 1.2506943,1.2506943 0 1 1 1.25,2.166666 A 10.835,10.835 0 0 1 4.5038214,8.1975619 1.25,1.25 0 0 1 6.0354881,7.3142279 Z M 9.5521546,1.6175615 A 10.833333,10.833333 0 0 1 25.433822,13.804228 1.2508453,1.2508453 0 1 1 23.017155,13.157562 8.335,8.335 0 0 0 10.802155,3.7842281 1.2506943,1.2506943 0 1 1 9.5521546,1.6175615 Z"
     clip-rule="evenodd"
     id="path1"
     style="stroke-width:1.66667" />
  <path
     fill-rule="evenodd"
     d="m 4.5021547,6.7842279 a 1.25,1.25 0 0 1 1.7666667,0 L 10.435488,10.950895 A 1.25,1.25 0 1 1 8.6688216,12.717562 L 5.3854881,9.4342279 2.1021547,12.717562 A 1.25,1.25 0 0 1 0.33548811,10.950895 Z m 15.0000003,2.5 a 1.25,1.25 0 0 1 1.766667,0 l 3.283333,3.2833341 3.283333,-3.2833341 a 1.25,1.25 0 1 1 1.766667,1.7666671 l -4.166667,4.166667 a 1.25,1.25 0 0 1 -1.766666,0 l -4.166667,-4.166667 a 1.25,1.25 0 0 1 0,-1.7666671 z"
     clip-rule="evenodd"
     id="path2"
     style="stroke-width:1.66667" />
</svg>
