<svg width="800" height="376" viewBox="0 0 800 376" fill="none" xmlns="http://www.w3.org/2000/svg">
<path d="M531.988 197.803C531.988 197.803 557.95 82.3749 612.749 8.53217L799.998 0.681641C799.998 0.681641 708.744 86.65 682.317 133.288L791.604 125.126C791.604 125.126 619.123 248.949 561.137 375.025C561.137 375.025 548.545 271.257 607.697 189.952L531.988 197.803Z" fill="#FFD93F"/>
<path d="M299.348 50.0391C299.348 50.0391 267.168 63.9526 230.247 92.4015C193.326 120.85 172.883 153.108 172.883 153.108C172.883 153.108 184.076 154.041 180.5 159.559C176.925 165.078 166.742 174.872 166.742 174.872C166.742 174.872 185.475 187.153 240.818 211.327C296.161 235.501 304.167 239.698 304.789 237.522C305.489 235.345 330.906 241.875 330.906 241.875C330.906 241.875 264.681 204.021 231.413 174.173C231.413 174.173 239.419 167.177 259.551 160.181C279.683 153.186 290.332 151.242 290.72 148.755C291.109 146.268 284.58 145.18 284.58 145.18L307.898 137.951C307.898 137.951 263.282 136.241 215.867 146.967C215.867 146.967 238.253 111.29 261.805 93.412C285.357 75.5343 295.462 70.7928 295.85 67.3727C296.239 63.9526 290.72 61.8539 290.72 61.8539C290.72 61.8539 292.042 55.1692 299.348 50.0391Z" fill="white"/>
<path d="M143.033 107.403C143.033 107.403 115.206 137.562 86.8347 181.634C58.4636 225.706 21.4645 282.06 30.3256 287.734C39.1868 293.409 53.178 291.31 53.178 291.31C53.178 291.31 51.3126 297.606 55.4322 298.15C59.5518 298.694 89.2443 273.588 124.533 260.063C159.822 246.46 187.96 238.843 188.738 235.189C189.515 231.458 177.933 229.282 178.633 229.282C179.255 229.282 191.847 226.095 192.78 221.975C193.79 217.856 184.618 216.068 170.782 217.7C156.946 219.333 94.9186 237.91 94.9186 237.91C94.9186 237.91 140.39 155.983 165.652 122.482C190.914 88.9808 199.153 82.4515 199.076 77.3991C198.998 72.3467 178.244 72.9686 178.244 72.9686C178.244 72.9686 175.524 67.2167 172.492 67.1389C169.461 67.0612 92.4313 70.6367 38.8758 81.1302C-14.6796 91.6236 0.788545 92.2453 6.61823 97.1423C12.3702 102.117 3.43136 112.144 3.43136 112.144C3.43136 112.144 29.7038 111.056 29.3151 116.497C28.9265 121.938 20.7649 128.079 20.7649 128.079C20.7649 128.079 83.1038 110.978 143.033 107.403Z" fill="white"/>
<path d="M322.434 54.9355C322.434 54.9355 331.295 102.039 334.171 143.158C337.047 184.277 334.326 220.887 336.425 222.131C338.446 223.375 356.401 215.835 379.798 218.4C403.194 220.965 420.528 221.742 422.471 219.41C424.414 217.079 422.549 211.637 422.549 211.637C422.549 211.637 427.057 212.337 427.912 209.15C428.767 205.963 424.414 202.543 424.414 202.543C424.414 202.543 424.414 170.208 422.549 130.955C420.761 91.779 408.713 57.4228 408.713 57.4228C408.713 57.4228 400.785 189.407 398.53 197.335C398.53 197.335 376.922 189.873 360.288 191.35C360.288 191.35 350.882 137.795 343.11 100.951C335.337 64.1076 333.16 56.801 331.295 57.1896C329.662 57.5005 328.185 64.3407 328.185 64.3407L322.434 54.9355Z" fill="white"/>
<path d="M600.004 119.607C600.004 119.607 538.131 84.5507 498.256 75.0677C458.381 65.5848 450.841 67.6834 453.873 69.9375C456.904 72.114 464.211 76.3115 464.211 76.3115C464.211 76.3115 437.239 75.6897 439.648 79.032C442.058 82.3744 449.753 107.714 449.598 134.297C449.442 160.881 449.442 179.069 450.997 179.769C452.551 180.468 466.309 179.303 466.309 179.303C466.309 179.303 462.889 184.666 466.154 185.21C469.419 185.754 485.198 182.412 501.909 183.5C518.621 184.588 526.316 186.687 526.316 186.687C526.316 186.687 527.949 223.297 517.611 250.347C517.611 250.347 439.104 218.867 436.461 222.287C433.819 225.629 438.482 233.169 438.482 233.169L408.168 245.528C408.168 245.528 449.52 253.612 483.643 267.214C517.766 280.817 537.354 292.476 540.541 291.31C543.728 290.144 549.091 275.376 557.641 230.759C566.191 186.143 561.372 164.145 558.03 161.503C550.568 155.673 473.46 159.015 473.46 159.015C473.46 159.015 476.958 127.457 474.16 108.413C474.238 108.336 477.502 96.5988 600.004 119.607Z" fill="white"/>
</svg>
