<?xml version="1.0" encoding="UTF-8"?>
<svg id="Layer_2" data-name="Layer 2" xmlns="http://www.w3.org/2000/svg" viewBox="0 0 100 100">
  <defs>
    <style>
      .cls-1 {
        stroke-width: 0px;
      }
    </style>
  </defs>
  <g id="Layer_1-2" data-name="Layer 1">
    <path class="cls-1" d="m27.25,27.6L13.42,0h46.47c-16.99,4.39-26.62,16.16-32.64,27.6Zm12.86,72.4h46.47l-13.83-27.6c-6.03,11.43-15.65,23.21-32.64,27.6ZM63.53,0h-.01S13.41,100,13.41,100h23.05L86.58,0h-23.05Zm15.54,50l13.28,26.5,7.64-15.24-5.64-11.26,5.64-11.27-7.64-15.24-13.28,26.5ZM7.64,23.5L0,38.74l5.64,11.27L0,61.26l7.64,15.24,13.28-26.5L7.64,23.5Z"/>
  </g>
</svg>