<svg width="30" height="30" viewBox="0 0 30 30" fill="none" xmlns="http://www.w3.org/2000/svg">
<path fill-rule="evenodd" clip-rule="evenodd" d="M9.88376 7C9.25076 7 8.66993 7.35092 8.37547 7.91126L5.34676 13.6747C5.05521 14.2295 5.04059 14.8889 5.30727 15.4561L8.41632 22.0684C8.68367 22.637 9.25544 23 9.88376 23H12.3839H22.8838C23.9883 23 24.8838 22.1046 24.8838 21V9C24.8838 7.89543 23.9883 7 22.8838 7H12.3839H9.88376ZM12.0303 10.1464C12.2256 9.95118 12.5421 9.95118 12.7374 10.1464L16.8837 14.2927L21.0301 10.1464C21.2253 9.95115 21.5419 9.95115 21.7372 10.1464C21.9324 10.3417 21.9324 10.6583 21.7372 10.8535L17.5908 14.9998L21.7374 19.1464C21.9327 19.3416 21.9327 19.6582 21.7374 19.8535C21.5421 20.0488 21.2256 20.0488 21.0303 19.8535L16.8837 15.7069L12.7372 19.8535C12.5419 20.0487 12.2253 20.0487 12.0301 19.8535C11.8348 19.6582 11.8348 19.3416 12.0301 19.1464L16.1766 14.9998L12.0303 10.8536C11.835 10.6583 11.835 10.3417 12.0303 10.1464Z" fill="white"/>
</svg>
