<svg width="50" height="50" viewBox="0 0 50 50" fill="none" xmlns="http://www.w3.org/2000/svg">
<circle cx="25" cy="25" r="20" fill="#FFB040"/>
<path fill-rule="evenodd" clip-rule="evenodd" d="M29.2946 16.5058C32.0682 17.5232 34.0662 19.0306 33.608 21.9231C33.2615 24.0287 32.1578 25.0578 30.6664 25.421C32.651 26.5315 33.6062 28.2173 32.5845 31.1743C31.3136 34.8829 28.4692 35.2194 24.7018 34.5009L23.7318 38.415L21.5428 37.8726L22.5127 33.9585C22.2745 33.8951 22.0235 33.8367 21.766 33.7767C21.422 33.6967 21.0664 33.6139 20.7147 33.513L19.7447 37.4271L17.5597 36.8857L18.5296 32.9716L14.1769 31.7864L15.2587 29.0188C15.2587 29.0188 16.9017 29.4705 16.8762 29.4422C17.4856 29.5903 17.7835 29.1647 17.9056 28.8668L19.4588 22.592L20.5892 18.1322C20.6381 17.6502 20.4871 17.0195 19.5967 16.7796C19.6573 16.744 17.9939 16.3824 17.9939 16.3824L18.6421 13.7596L23.1282 14.8712L24.0783 11.0372L26.3383 11.5972L25.3883 15.4312C25.8277 15.5267 26.257 15.6377 26.6911 15.75L26.6912 15.75C26.8337 15.7868 26.9766 15.8238 27.1207 15.8604L28.0707 12.0265L30.2697 12.5713L29.2946 16.5058ZM23.2976 22.6707L23.4073 22.7036C24.7215 23.0985 28.6182 24.2693 29.2746 21.6624C29.886 19.1845 26.5099 18.4276 24.9413 18.0759L24.9412 18.0759C24.756 18.0344 24.5959 17.9985 24.4706 17.9661L23.2976 22.6707ZM21.5683 30.4C21.4992 30.3795 21.4356 30.3605 21.3779 30.3436L22.5509 25.6389C22.6895 25.675 22.8648 25.7162 23.0675 25.7638C24.9166 26.1983 29.0469 27.1686 28.4049 29.6603C27.7818 32.2478 23.1874 30.8815 21.5683 30.4Z" fill="white"/>
</svg>
