<svg width="30" height="30" viewBox="0 0 30 30" fill="#000" xmlns="http://www.w3.org/2000/svg">
<path d="M9.6657 6.99999H6.99902V9.66667H9.6657V6.99999Z" fill="#000"/>
<path d="M23.0007 6.99999H20.334V9.66667H23.0007V6.99999Z" fill="#000"/>
<path d="M9.6657 20.3338H6.99902V23.0004H9.6657V20.3338Z" fill="#000"/>
<path d="M3 13.6669H13.6667V3.00017H3V13.6669ZM5.66667 5.66684H11V11.0002H5.66667V5.66684Z" fill="#000"/>
<path d="M3 27H13.6667V16.3333H3V27ZM5.66667 19H11V24.3333H5.66667V19Z" fill="#000"/>
<path d="M16.334 3V13.6667H27.0007V3H16.334ZM24.334 11H19.0007V5.66667H24.334V11Z" fill="#000"/>
<path d="M27.0016 24.3333H24.335V27H27.0016V24.3333Z" fill="#000"/>
<path d="M19.0007 16.3333H16.334V19H19.0007V16.3333Z" fill="#000"/>
<path d="M21.6667 19.0002H19V21.6669H21.6667V19.0002Z" fill="#000"/>
<path d="M19.0007 21.6666H16.334V24.3333H19.0007V21.6666Z" fill="#000"/>
<path d="M21.6667 24.3333H19V27H21.6667V24.3333Z" fill="#000"/>
<path d="M24.3307 21.6666H21.6641V24.3333H24.3307V21.6666Z" fill="#000"/>
<path d="M24.3307 16.3333H21.6641V19H24.3307V16.3333Z" fill="#000"/>
<path d="M27.0016 19.0002H24.335V21.6669H27.0016V19.0002Z" fill="#000"/>
</svg>
