<svg width="30" height="30" viewBox="0 0 30 30" fill="none" xmlns="http://www.w3.org/2000/svg">
<path d="M26 6.99756V12.9976H20" stroke="white" stroke-width="2" stroke-linecap="round" stroke-linejoin="round"/>
<path d="M4 22.9976V16.9976H10" stroke="white" stroke-width="2" stroke-linecap="round" stroke-linejoin="round"/>
<path d="M6.51 11.9976C7.01717 10.5644 7.87913 9.28304 9.01547 8.27305C10.1518 7.26307 11.5255 6.5574 13.0083 6.22189C14.4911 5.88639 16.0348 5.93198 17.4952 6.35441C18.9556 6.77684 20.2853 7.56235 21.36 8.63763L26 12.9976M4 16.9976L8.64 21.3576C9.71475 22.4329 11.0444 23.2184 12.5048 23.6409C13.9652 24.0633 15.5089 24.1089 16.9917 23.7734C18.4745 23.4379 19.8482 22.7322 20.9845 21.7222C22.1209 20.7122 22.9828 19.4308 23.49 17.9976" stroke="white" stroke-width="2" stroke-linecap="round" stroke-linejoin="round"/>
</svg>
