<?xml version="1.0" encoding="UTF-8"?>
<svg xmlns="http://www.w3.org/2000/svg" xmlns:xlink="http://www.w3.org/1999/xlink" width="25px" height="25px" viewBox="0 0 25 25" version="1.1">
<g id="surface1">
<path style=" stroke:none;fill-rule:nonzero;fill:rgb(0%,0%,0%);fill-opacity:1;" d="M 24.042969 16.347656 C 23.507812 16.347656 23.078125 16.777344 23.078125 17.3125 L 23.078125 20.675781 C 23.078125 21.007812 23.015625 21.320312 22.890625 21.613281 C 22.707031 22.042969 22.402344 22.410156 22.019531 22.667969 C 21.824219 22.800781 21.613281 22.902344 21.386719 22.972656 C 21.160156 23.039062 20.925781 23.078125 20.675781 23.078125 L 17.3125 23.078125 C 16.777344 23.078125 16.347656 23.507812 16.347656 24.042969 C 16.347656 24.574219 16.777344 25 17.3125 25 L 20.675781 25 C 21.269531 25 21.839844 24.875 22.355469 24.660156 C 23.136719 24.328125 23.792969 23.777344 24.265625 23.089844 C 24.5 22.746094 24.679688 22.363281 24.808594 21.957031 C 24.933594 21.550781 25.003906 21.117188 25.003906 20.675781 L 25.003906 17.308594 C 25.007812 16.777344 24.578125 16.347656 24.042969 16.347656 Z M 24.042969 16.347656 "/>
<path style=" stroke:none;fill-rule:nonzero;fill:rgb(0%,0%,0%);fill-opacity:1;" d="M 17.3125 1.921875 L 20.675781 1.921875 C 21.007812 1.921875 21.320312 1.984375 21.613281 2.109375 C 22.042969 2.292969 22.410156 2.597656 22.667969 2.980469 C 22.800781 3.175781 22.902344 3.386719 22.972656 3.613281 C 23.039062 3.839844 23.078125 4.074219 23.078125 4.324219 L 23.078125 7.6875 C 23.078125 8.222656 23.507812 8.652344 24.042969 8.652344 C 24.574219 8.652344 25 8.222656 25 7.6875 L 25 4.324219 C 25 3.730469 24.875 3.15625 24.660156 2.640625 C 24.328125 1.863281 23.777344 1.203125 23.089844 0.734375 C 22.746094 0.5 22.363281 0.316406 21.957031 0.1875 C 21.550781 0.0625 21.117188 -0.0078125 20.675781 -0.0078125 L 17.308594 -0.0078125 C 16.777344 -0.0078125 16.347656 0.421875 16.347656 0.957031 C 16.347656 1.492188 16.777344 1.921875 17.3125 1.921875 Z M 17.3125 1.921875 "/>
<path style=" stroke:none;fill-rule:nonzero;fill:rgb(0%,0%,0%);fill-opacity:1;" d="M 7.6875 23.074219 L 4.324219 23.074219 C 3.988281 23.074219 3.679688 23.007812 3.386719 22.886719 C 2.957031 22.707031 2.589844 22.398438 2.328125 22.011719 C 2.199219 21.824219 2.09375 21.609375 2.023438 21.382812 C 1.957031 21.160156 1.917969 20.917969 1.917969 20.671875 L 1.917969 17.304688 C 1.917969 16.773438 1.488281 16.34375 0.957031 16.34375 C 0.421875 16.339844 0 16.777344 0 17.3125 L 0 20.675781 C 0 21.269531 0.125 21.839844 0.339844 22.355469 C 0.671875 23.136719 1.222656 23.792969 1.90625 24.265625 C 2.253906 24.5 2.636719 24.679688 3.039062 24.808594 C 3.449219 24.933594 3.878906 25.003906 4.324219 25.003906 L 7.6875 25.003906 C 8.222656 25.003906 8.652344 24.574219 8.652344 24.042969 C 8.652344 23.503906 8.222656 23.074219 7.6875 23.074219 Z M 7.6875 23.074219 "/>
<path style=" stroke:none;fill-rule:nonzero;fill:rgb(0%,0%,0%);fill-opacity:1;" d="M 7.6875 0 L 4.324219 0 C 3.730469 0 3.15625 0.125 2.644531 0.339844 C 1.863281 0.671875 1.207031 1.222656 0.738281 1.90625 C 0.507812 2.253906 0.324219 2.632812 0.195312 3.039062 C 0.0664062 3.449219 0 3.878906 0 4.324219 L 0 7.6875 C 0 8.222656 0.429688 8.652344 0.964844 8.652344 C 1.496094 8.652344 1.925781 8.222656 1.925781 7.6875 L 1.925781 4.324219 C 1.925781 3.988281 1.992188 3.679688 2.117188 3.386719 C 2.292969 2.957031 2.605469 2.589844 2.988281 2.328125 C 3.175781 2.199219 3.386719 2.097656 3.613281 2.03125 C 3.839844 1.964844 4.074219 1.925781 4.324219 1.925781 L 7.6875 1.925781 C 8.222656 1.925781 8.652344 1.496094 8.652344 0.964844 C 8.652344 0.429688 8.222656 0 7.6875 0 Z M 7.6875 0 "/>
</g>
</svg>
