<svg width="30" height="30" viewBox="0 0 30 30" fill="none" xmlns="http://www.w3.org/2000/svg">
<path d="M22.99 11H7.01C7.00448 11 7 10.9955 7 10.99V9.50735C7 9.50298 7.00284 9.49911 7.00702 9.49781L14.997 7.00093C14.999 7.00033 15.001 7.00033 15.003 7.00093L22.993 9.49781C22.9972 9.49911 23 9.50298 23 9.50735V10.99C23 10.9955 22.9955 11 22.99 11Z" />
<rect width="16" height="2" transform="matrix(1 0 0 -1 7 23)" />
<rect width="2" height="8" transform="matrix(1 0 0 -1 9 20)" />
<rect width="2" height="8" transform="matrix(1 0 0 -1 19 20)" />
<rect width="2" height="8" transform="matrix(1 0 0 -1 14 20)" />
</svg>
