<svg width="50" height="50" viewBox="0 0 50 50" fill="none" xmlns="http://www.w3.org/2000/svg">
<circle cx="25" cy="25" r="20" fill="#242930"/>
<rect x="24" y="18.5" width="11.5" height="13" rx="1.5" stroke="#FFD93F"/>
<path fill-rule="evenodd" clip-rule="evenodd" d="M16 18C14.8954 18 14 18.8954 14 20V30C14 31.1046 14.8954 32 16 32H30C31.1046 32 32 31.1046 32 30V20C32 18.8954 31.1046 18 30 18H16ZM19 27C20.1046 27 21 26.1046 21 25C21 23.8954 20.1046 23 19 23C17.8954 23 17 23.8954 17 25C17 26.1046 17.8954 27 19 27Z" fill="#F2CE3E"/>
</svg>
