<svg width="1137" height="581" viewBox="0 0 1137 581" fill="none" xmlns="http://www.w3.org/2000/svg">
<path d="M281.511 82.9961C247.021 75.3315 10.4624 112.377 3.02999 143.036C-7.18952 185.191 23.4687 212.656 43.9074 220.96C66.9554 230.323 102.67 238.205 151.851 220.96C120.767 266.522 45.9513 379.873 43.9074 402.356C41.3525 430.46 77.1208 464.951 82.2306 471.338C87.3403 477.725 165.264 450.899 208.697 425.35C243.443 404.911 313.447 375.956 344.106 364.033C378.171 372.549 458.053 390.604 505.063 394.691C552.073 398.779 665.169 433.866 715.84 450.899C728.189 498.59 729.892 575.449 758.635 579.92C778.402 582.995 822.32 496.854 901.069 402.356C1003.26 279.722 1142.01 224.792 1136.12 171.778C1131.51 130.261 1009.35 185.678 1003.26 166.668C998.155 150.7 1146.03 36.0334 1136.12 14.653C1123.98 -11.5346 846.234 6.56324 821.229 14.653C799.513 21.679 777.796 95.1318 758.635 128.345C705.621 98.3254 624.887 81.4632 608.536 75.3315C588.097 67.6668 531.889 94.4931 522.947 98.3254C514.005 102.158 442.469 63.8345 420.752 67.6669C403.379 70.7327 362.416 98.7512 344.106 112.377C330.054 103.435 297.597 86.5708 281.511 82.9961Z" fill="#242930" stroke="black" stroke-width="0.356362" stroke-linecap="round" stroke-linejoin="round"/>
<g clip-path="url(#clip0_4381_22093)">
<path d="M731.125 292.705C731.125 292.705 764.283 145.28 834.273 50.967L1073.53 40.8408C1073.53 40.8408 956.979 150.641 923.225 210.206L1062.81 199.782C1062.81 199.782 842.513 357.93 768.453 518.956C768.453 518.956 752.37 386.422 827.92 282.579L731.125 292.705Z" fill="#FFD93F"/>
<path d="M433.991 103.98C433.991 103.98 392.89 121.751 345.734 158.086C298.578 194.421 272.468 235.621 272.468 235.621C272.468 235.621 286.764 236.812 282.197 243.861C277.63 250.91 264.625 263.418 264.625 263.418C264.625 263.418 288.551 279.104 359.235 309.979C429.92 340.854 440.146 346.215 440.94 343.435C441.734 340.656 474.297 348.995 474.297 348.995C474.297 348.995 389.713 300.647 347.223 262.525C347.223 262.525 357.448 253.59 383.161 244.655C408.874 235.72 422.475 233.238 422.971 230.062C423.467 226.885 415.128 225.495 415.128 225.495L444.911 216.262C444.911 216.262 387.926 214.078 327.368 227.778C327.368 227.778 355.959 182.21 386.04 159.377C416.121 136.543 429.027 130.487 429.523 126.119C430.02 121.751 422.971 119.07 422.971 119.07C422.971 119.07 424.659 110.533 433.991 103.98Z" fill="white"/>
<path d="M234.346 177.246C234.346 177.246 198.805 215.766 162.569 272.055C126.333 328.345 79.0776 400.42 90.3951 407.667C101.613 414.914 119.582 412.234 119.582 412.234C119.582 412.234 117.2 420.275 122.461 420.97C127.723 421.665 165.647 389.599 210.718 372.325C255.79 354.951 291.728 345.222 292.72 340.556C293.713 335.89 278.921 333.011 279.815 333.011C280.609 333.011 296.692 328.941 297.883 323.679C299.173 318.418 287.459 316.134 269.788 318.219C252.116 320.304 172.894 344.031 172.894 344.031C172.894 344.031 230.971 239.393 263.235 196.605C295.5 153.817 306.024 145.478 305.924 139.025C305.825 132.572 279.318 133.366 279.318 133.366C279.318 133.366 275.843 126.02 271.972 125.921C268.1 125.821 169.717 130.388 101.316 143.79C32.914 157.193 52.5708 158.086 60.0165 164.341C67.363 170.694 55.9462 183.501 55.9462 183.501C55.9462 183.501 89.5016 182.111 89.0052 189.06C88.5088 196.01 78.0848 203.853 78.0848 203.853C78.0848 203.853 157.804 181.813 234.346 177.246Z" fill="white"/>
<path d="M463.477 110.235C463.477 110.235 474.794 170.397 478.467 222.914C482.141 275.431 478.666 322.191 481.346 323.779C483.927 325.367 506.86 315.738 536.743 319.014C566.625 322.29 588.763 323.283 591.245 320.304C593.727 317.326 591.345 310.377 591.345 310.377C591.345 310.377 597.103 311.27 598.195 307.2C599.287 303.129 593.727 298.761 593.727 298.761C593.727 298.761 593.727 257.462 591.345 207.328C588.962 157.193 573.673 113.412 573.673 113.412C573.673 113.412 563.547 281.984 560.668 292.11C560.668 292.11 533.069 282.579 511.824 284.466C511.824 284.466 499.812 216.064 489.884 169.007C479.956 121.95 477.177 112.618 474.794 113.114C472.709 113.511 470.823 122.248 470.823 122.248L463.477 110.235Z" fill="white"/>
<path d="M817.991 192.832C817.991 192.832 738.967 148.059 688.038 135.947C637.109 123.835 627.479 126.516 631.351 129.395C635.223 132.174 644.555 137.535 644.555 137.535C644.555 137.535 610.106 136.741 613.184 141.01C616.261 145.279 626.089 177.643 625.891 211.596C625.692 245.548 625.692 268.779 627.678 269.672C629.663 270.566 647.235 269.077 647.235 269.077C647.235 269.077 642.867 275.927 647.037 276.622C651.206 277.317 671.359 273.048 692.704 274.438C714.048 275.827 723.877 278.508 723.877 278.508C723.877 278.508 725.962 325.267 712.758 359.815C712.758 359.815 612.489 319.608 609.113 323.877C605.738 328.146 611.694 337.776 611.694 337.776L572.977 353.561C572.977 353.561 625.792 363.886 669.374 381.259C712.956 398.632 737.974 413.524 742.044 412.035C746.115 410.546 752.965 391.683 763.885 334.698C774.806 277.714 768.65 249.618 764.382 246.243C754.851 238.797 656.369 243.066 656.369 243.066C656.369 243.066 660.836 202.76 657.262 178.437C657.361 178.437 661.531 163.447 817.991 192.832Z" fill="white"/>
</g>
<defs>
<clipPath id="clip0_4381_22093">
<rect width="1021.95" height="480.317" fill="white" transform="translate(51.5781 39.5635)"/>
</clipPath>
</defs>
</svg>
